<svg xmlns="http://www.w3.org/2000/svg" viewBox="0 0 200 200">
  <title>Artboard 16 copy 3</title>
  <g>
    <rect width="200" height="200" fill="#1a2535"/>
    <g>
      <path d="M162.5,100a62.5,62.5,0,0,0-125-.044v48.366A14.207,14.207,0,0,0,51.709,162.5h48.315A62.5,62.5,0,0,0,162.5,100" fill="#294172"/>
      <g>
        <path d="M73.533,155.818a29.319,29.319,0,1,1,0-58.638h29.319V126.5A29.353,29.353,0,0,1,73.533,155.818Zm0-44.924A15.605,15.605,0,1,0,89.139,126.5V110.893Z" fill="#3c6eb4"/>
        <path d="M118.35,110.937H89.03V81.618a29.319,29.319,0,1,1,29.319,29.319ZM102.744,97.223H118.35a15.605,15.605,0,1,0-15.605-15.605Z" fill="#3c6eb4"/>
        <path d="M124.829,53.188a23.329,23.329,0,0,0-6.48-.872A29.335,29.335,0,0,0,89.016,81.649V97.2H76.731a6.829,6.829,0,1,0-.072,13.657l10.171,0a2.185,2.185,0,0,1,2.187,2.182v13.454A15.485,15.485,0,0,1,73.534,141.95c-2.893,0-3.61-.379-5.584-.379-4.149,0-6.925,2.781-6.925,6.605,0,3.164,2.712,5.884,6.029,6.752a23.329,23.329,0,0,0,6.48.872,29.335,29.335,0,0,0,29.333-29.333V110.92h12.285a6.829,6.829,0,1,0,.072-13.657l-10.171,0a2.185,2.185,0,0,1-2.187-2.182V81.625A15.485,15.485,0,0,1,118.35,66.166c2.893,0,3.61.379,5.584.379,4.149,0,6.925-2.781,6.925-6.605C130.858,56.776,128.147,54.056,124.829,53.188Z" fill="#fff"/>
      </g>
    </g>
  </g>
</svg>
