<svg xmlns="http://www.w3.org/2000/svg" viewBox="0 0 200 200">
  <g>
    <path d="M0,0H200V200H0Z" fill="#5f0602"/>
    <path d="M162.208,131.366c-7.2,3.755-44.524,19.1-52.47,23.241s-12.359,4.1-18.635,1.1-45.992-19.043-53.146-22.462c-3.576-1.709-5.456-3.151-5.456-4.514V115.087s51.7-11.256,60.051-14.25,11.243-3.1,18.346-.5,49.578,10.266,56.6,12.837l0,13.452c0,1.351-1.619,2.831-5.286,4.741Z" fill="#a41e11"/>
    <path d="M162.208,117.717c-7.2,3.754-44.524,19.1-52.47,23.241s-12.359,4.1-18.635,1.1S45.111,123.016,37.957,119.6s-7.3-5.773-.276-8.525S84.205,92.824,92.553,89.829s11.243-3.1,18.346-.5,44.2,17.368,51.221,19.939S169.412,113.962,162.208,117.717Z" fill="#d82c20"/>
    <path d="M162.208,109.115c-7.2,3.755-44.524,19.1-52.47,23.243s-12.359,4.1-18.635,1.1S45.111,114.416,37.957,111c-3.576-1.709-5.456-3.15-5.456-4.512V92.837s51.7-11.255,60.051-14.25,11.243-3.1,18.346-.5,49.578,10.264,56.6,12.836l0,13.453c0,1.349-1.619,2.829-5.286,4.74Z" fill="#a41e11"/>
    <path d="M162.208,95.465c-7.2,3.755-44.524,19.1-52.47,23.243s-12.359,4.1-18.635,1.1S45.111,100.766,37.957,97.347s-7.3-5.772-.276-8.525S84.205,70.574,92.553,67.58s11.243-3.1,18.346-.5,44.2,17.367,51.221,19.939S169.412,91.71,162.208,95.465Z" fill="#d82c20"/>
    <path d="M162.208,86.038c-7.2,3.755-44.524,19.1-52.47,23.244s-12.359,4.1-18.635,1.1S45.111,91.34,37.957,87.921c-3.576-1.709-5.456-3.15-5.456-4.512V69.761s51.7-11.255,60.051-14.249,11.243-3.1,18.346-.5,49.578,10.264,56.6,12.836l0,13.453c0,1.347-1.619,2.827-5.286,4.738Z" fill="#a41e11"/>
    <path d="M162.208,72.388c-7.2,3.755-44.524,19.1-52.47,23.243s-12.359,4.1-18.635,1.1S45.111,77.689,37.957,74.27s-7.3-5.773-.276-8.525S84.205,47.5,92.553,44.5,103.8,41.4,110.9,44,155.1,61.37,162.12,63.942,169.412,68.634,162.208,72.388Z" fill="#d82c20"/>
    <path d="M117.689,59.246l-11.7,1.215-2.618,6.3-4.23-7.031L85.636,58.516l10.079-3.634L92.691,49.3l9.436,3.69,8.9-2.912-2.4,5.769ZM102.674,89.815,80.843,80.76l31.283-4.8Z" fill="#fff"/>
    <ellipse cx="72.407" cy="69.23" rx="16.72" ry="6.481" fill="#fff"/>
    <path d="M131.513,60.968l18.514,7.317-18.5,7.309Z" fill="#7a0c00"/>
    <path d="M111.031,69.071l20.482-8.1.016,14.626-2.008.786Z" fill="#ad2115"/>
  </g>
</svg>
