<svg xmlns="http://www.w3.org/2000/svg" viewBox="0 0 200 200">
  <g>
    <rect width="200" height="200" fill="#1b262d"/>
    <path d="M159.511,86.8c-2.13-8.586-6.2-14.818-14.834-14.818H132.583V84.7c0,10.214-7.7,19.573-17.575,19.573H85.374c-8.117,0-15.985,6.183-15.985,14.314v28.251c0,8.04,7.566,12.769,15.411,15.074,9.389,2.762,17.949,3.261,29.184,0,7.468-2.163,14.386-6.513,14.386-15.074V136.577H98.879v-4.213h45.8c8.622,0,11.836-6.2,14.834-15.227,3.1-9.294,2.966-18.418,0-30.34Zm-42.636,56.275a5.654,5.654,0,1,1-5.565,5.638A5.6,5.6,0,0,1,116.874,143.072Z" fill="#ffd845"/>
    <path d="M114.271,41.033a88.194,88.194,0,0,0-15.087-1.211,89.5,89.5,0,0,0-14.568,1.211C72.06,43.249,69.389,47.891,69.389,56.454V67.765H98.879v4.213H59.406c-8.623,0-16.172,4.957-18.534,14.818-2.723,11.3-2.844,18.54,0,30.34,2.109,8.783,7.146,15.227,15.768,15.227H66.58V118.21c0-9.792,8.732-18.145,18.794-18.145h29.634c8.249,0,13.362-7.078,13.362-15.36V56.454C128.37,48.412,122.323,42.374,114.271,41.033ZM83.508,60.221a5.654,5.654,0,1,1,5.567-5.635A5.6,5.6,0,0,1,83.508,60.221Z" fill="#386e99"/>
  </g>
</svg>
