<svg xmlns="http://www.w3.org/2000/svg" viewBox="0 0 200 200">
  <title>Artboard 15</title>
  <g>
    <rect width="200" height="200" fill="#5d81b5"/>
    <path d="M100,65.793c-37.278,0-67.5,15.315-67.5,34.207s30.222,34.207,67.5,34.207S167.5,118.892,167.5,100,137.278,65.793,100,65.793ZM82.436,106.664a13.2,13.2,0,0,1-5.37,2.77c-1.97.642-4.477.509-7.525.509H62.633l-1.915,11.049H52.652l7.2-37.565H75.362c4.667,0,8.071,1.342,10.211,3.792s2.783,5.926,1.93,10.316a16.248,16.248,0,0,1-5.067,9.129Zm23.546,3.279,3.183-15.932c.362-1.865.23-3.25-.4-3.928s-1.969-1.132-4.016-1.132h-6.4l-4.122,20.992h-8l7.2-36.46h8l-1.914,9.944h7.13c4.487,0,7.58.9,9.283,2.465s2.213,3.708,1.532,7.212l-3.349,16.839Zm44.48-12.35a16.095,16.095,0,0,1-5.065,9.071,13.2,13.2,0,0,1-5.37,2.77c-1.969.642-4.478.509-7.526.509h-6.909l-1.914,11.049h-8.067l7.2-37.565h15.513c4.667,0,8.071,1.342,10.21,3.792S151.315,93.205,150.462,97.594Zm-15.2-8.642h-5.525l-3.013,15.468h4.908c3.25,0,5.675-.32,7.266-1.547s2.666-3.125,3.224-5.989c.535-2.752.292-4.9-.729-6.03s-3.065-1.9-6.13-1.9Zm-62.96,0H66.78l-3.013,15.468h4.907c3.252,0,5.675-.32,7.267-1.547s2.666-3.125,3.223-5.989c.535-2.752.292-4.9-.729-6.03s-3.063-1.9-6.128-1.9Z" fill="#fff"/>
  </g>
</svg>
