<svg xmlns="http://www.w3.org/2000/svg" viewBox="0 0 200 200">
  <title>Artboard 5</title>
  <g>
    <path d="M0,0H200V200H0Z" fill="#07a007"/>
    <path d="M64.862,147.835a2.442,2.442,0,0,0-2.442,2.442V163L47.969,148.55a2.442,2.442,0,0,0-4.168,1.727V168.9a2.442,2.442,0,0,0,4.884,0V156.173l14.451,14.452A2.442,2.442,0,0,0,67.3,168.9V150.277a2.444,2.444,0,0,0-2.443-2.442Zm27.272,10.737-9.92.031a2.442,2.442,0,1,0,0,4.884l5.983-.031-1.465,2.961H79.04L75.225,159.7l3.846-6.959h8.182l1.908,3.915h4.914l-3.1-7.425-.672-1.374H76.17L75.5,149.11l-5.189,9.432-.671,1.19.671,1.19,5.189,9.126.7,1.251H89.783l.672-1.374,3.876-7.814,1.74-3.541H92.134v0Zm8.773-10.744A2.537,2.537,0,0,0,98.5,150.3v6.363h4.884V150.3A2.541,2.541,0,0,0,100.907,147.828Zm27.383.24a2.445,2.445,0,0,0-2.661.529l-14.451,14.452V150.324a2.442,2.442,0,0,0-4.884,0v18.621a2.442,2.442,0,0,0,4.168,1.727l14.451-14.452v12.725a2.442,2.442,0,0,0,4.884,0V150.324a2.443,2.443,0,0,0-1.507-2.256Zm19.6,11.548,7.6-7.57a2.442,2.442,0,0,0-3.447-3.459l-7.608,7.581-7.608-7.581a2.442,2.442,0,1,0-3.447,3.459l7.6,7.57-7.574,7.548a2.441,2.441,0,1,0,3.447,3.458l7.586-7.56,7.586,7.56a2.441,2.441,0,1,0,3.447-3.458l-7.574-7.548ZM98.5,158.623v10.221a2.442,2.442,0,1,0,4.883,0V158.623Zm38.012-85.458-39.03.12a9.608,9.608,0,1,0,0,19.214l23.538-.12-5.764,11.649H84.989L69.977,77.608,85.109,50.227H117.3l7.506,15.4h19.335L131.954,36.417l-2.642-5.4H73.7l-2.642,4.924L50.642,73.045,48,77.729l2.642,4.684,20.416,35.908,2.762,4.924h53.441l2.642-5.4L145.155,87.1,152,73.165H136.508Z" fill="#fff"/>
  </g>
</svg>
