<svg xmlns="http://www.w3.org/2000/svg" viewBox="0 0 200 200">
  <title>Artboard 20</title>
  <g>
    <rect width="200" height="200" fill="#33698e"/>
    <g>
      <path d="M131.974,133.154c.842-7.008.59-8.036,5.809-6.9l1.325.116a30.2,30.2,0,0,0,12.349-2.079c6.641-3.082,10.577-8.225,4.031-6.875-14.936,3.082-15.962-1.976-15.962-1.976,15.771-23.4,22.364-53.1,16.672-60.376-15.521-19.832-42.388-10.454-42.837-10.212l-.144.027a53.227,53.227,0,0,0-9.964-1.038c-6.759-.112-11.887,1.772-15.778,4.722,0,0-47.929-19.746-45.7,24.833.474,9.483,13.593,71.758,29.24,52.948,5.719-6.878,11.246-12.694,11.246-12.694a14.507,14.507,0,0,0,9.476,2.419l.267-.227a10.372,10.372,0,0,0,.106,2.678c-4.03,4.5-2.846,5.295-10.9,6.953-8.154,1.68-3.364,4.671-.237,5.453,3.792.948,12.563,2.291,18.49-6l-.236.946c1.581,1.266,1.475,9.093,1.7,14.685s.6,10.811,1.739,13.889,2.485,11,13.077,8.731c8.851-1.892,15.619-4.622,16.236-30.018"/>
      <path d="M112.29,168.706a13.493,13.493,0,0,1-9.587-3.561,18.407,18.407,0,0,1-4.568-8.068l-.286-.847c-1.334-3.6-1.787-8.788-2.055-15.466-.041-1-.069-2.036-.1-3.131-.023-.8-.05-1.806-.091-2.858a20.167,20.167,0,0,1-5.322,1.682,25.621,25.621,0,0,1-10.555-.544,12.319,12.319,0,0,1-6.872-4.1c-4.508,3.948-8.809,3.413-11.151,2.631-4.133-1.378-7.831-5.252-11.308-11.839a106.192,106.192,0,0,1-7.12-18.174c-3.915-12.829-6.4-26.341-6.624-30.777-.7-13.885,3.043-23.816,11.108-29.513,12.723-8.987,32-3.7,39.027-1.3a30.572,30.572,0,0,1,16.554-4.131,60.213,60.213,0,0,1,9.564.883A54.951,54.951,0,0,1,129.19,37.3c12.959.154,23.7,5.2,31.052,14.6,5.25,6.706,2.654,20.789.64,28.587a127.821,127.821,0,0,1-13.9,32.791,36.3,36.3,0,0,0,7.467-.891c6.73-1.389,8.7,2.219,9.232,3.835,2.14,6.481-7.162,11.379-10.064,12.726a35.25,35.25,0,0,1-14.744,2.55l-.217-.014-1.3-.115-.129,1.088-.124,1.063c-.334,12.871-2.172,21.022-5.955,26.407-3.966,5.646-9.477,7.229-14.332,8.269a21.654,21.654,0,0,1-4.525.508Zm-9.858-46.843c3.024,2.42,3.289,6.973,3.526,15.483.03,1.062.058,2.067.1,3.006.114,2.843.381,9.5,1.423,12.311.147.4.279.8.418,1.229,1.162,3.557,1.744,5.341,6.767,4.267,4.217-.9,6.384-1.715,8.081-4.131,2.466-3.512,3.845-10.576,4.1-21l5.13.124-5.1-.611.15-1.272c.488-4.194.84-7.223,3.643-9.227a8.7,8.7,0,0,1,6.853-1.083,7.672,7.672,0,0,1-3.028-4.5l-.428-2.108,1.2-1.784A116.873,116.873,0,0,0,150.94,77.92c3.117-12.068,2.167-18.477,1.216-19.689-12.581-16.076-34.4-9.438-36.676-8.685l-.385.208-1.931.359-.989-.2a48.394,48.394,0,0,0-9-.932c-5.1-.086-9.217,1.12-12.592,3.68L88.24,54.432l-2.717-1.119c-5.805-2.374-22.856-7.146-31.853-.773-4.994,3.538-7.269,10.469-6.763,20.6.167,3.346,2.44,16.01,6.19,28.293,5.182,16.975,9.891,22.614,11.857,23.269.343.116,1.234-.576,2.12-1.64,5.76-6.928,11.24-12.7,11.471-12.947l2.971-3.127,3.592,2.387a9.514,9.514,0,0,0,4.685,1.611l8.567-7.307-1.241,12.666a5.21,5.21,0,0,0,.07,1.39l.373,2.4-1.62,1.811-.187.21,4.707,2.172,1.969-2.468Z" fill="#1c3b4c"/>
      <path d="M155.488,117.416c-14.937,3.082-15.963-1.976-15.963-1.976C155.3,92.04,161.889,62.334,156.2,55.064c-15.521-19.831-42.39-10.453-42.838-10.209l-.145.026a53.237,53.237,0,0,0-9.966-1.037c-6.759-.11-11.885,1.772-15.775,4.722,0,0-47.93-19.745-45.7,24.833.474,9.484,13.593,71.759,29.24,52.949,5.719-6.878,11.245-12.694,11.245-12.694a14.507,14.507,0,0,0,9.475,2.419l.268-.227a10.423,10.423,0,0,0,.107,2.678c-4.031,4.5-2.847,5.295-10.906,6.953-8.154,1.68-3.364,4.671-.236,5.453,3.791.948,12.563,2.291,18.489-6l-.237.946c1.58,1.266,2.689,8.229,2.5,14.542s-.311,10.647.934,14.032,2.484,11,13.078,8.731c8.851-1.9,13.438-6.812,14.077-15.012.453-5.83,1.477-4.967,1.542-10.179l.823-2.467c.948-7.9.15-10.451,5.6-9.266l1.325.116a30.206,30.206,0,0,0,12.35-2.079C158.1,121.21,162.035,116.066,155.488,117.416Z" fill="#33698e"/>
      <path d="M112.825,165.543c-8.83,0-11.627-6.993-12.772-9.852-1.675-4.191-2.037-20.454-1.664-33.792a1.712,1.712,0,0,1,3.422.1c-.43,15.383.18,29.323,1.42,32.425,1.935,4.837,4.87,9.067,13.167,7.29,7.876-1.689,10.826-4.676,12.14-12.293,1.008-5.845,3-22.473,3.248-25.754a1.711,1.711,0,1,1,3.413.255c-.256,3.416-2.241,20.012-3.288,26.081-1.551,9-5.562,13.077-14.8,15.057a20.6,20.6,0,0,1-4.291.487ZM64.946,131.388a7.2,7.2,0,0,1-2.27-.375c-5.735-1.914-11.2-11.254-16.238-27.765C42.6,90.679,40.173,77.561,39.959,73.3c-.632-12.64,2.623-21.583,9.675-26.578,13.952-9.885,37.422-.472,38.415-.067a1.712,1.712,0,0,1-1.295,3.17c-.226-.092-22.733-9.109-35.148-.306-6.03,4.276-8.8,12.22-8.229,23.61.179,3.592,2.45,16.4,6.335,29.121,4.5,14.74,9.618,24.041,14.047,25.518.7.232,2.81.936,5.834-2.7,5.69-6.846,10.917-12.31,10.97-12.363a1.712,1.712,0,0,1,2.471,2.368c-.051.054-5.2,5.435-10.809,12.184-2.657,3.2-5.2,4.133-7.279,4.133Zm74.473-14.422A1.711,1.711,0,0,1,138,114.3c15.943-23.657,21.539-52.242,16.746-58.367-6.033-7.708-14.55-11.734-25.319-11.966a47.576,47.576,0,0,0-15.346,2.219l-.261.106a1.715,1.715,0,0,1-1.465-3.083,4.059,4.059,0,0,1,.46-.189l-.023.006.023-.008a49.659,49.659,0,0,1,16.163-2.483c11.915.127,21.758,4.721,28.462,13.288,3.172,4.054,3.179,13.392.02,25.622a124.029,124.029,0,0,1-16.623,36.767,1.7,1.7,0,0,1-1.419.754Zm.815,10.952c-2.722,0-5.163-.384-6.624-1.259a3.432,3.432,0,0,1-1.826-2.772c-.41-7.2,3.561-8.45,5.586-9.022-.282-.427-.683-.929-1.1-1.447a25.522,25.522,0,0,1-4.045-6.52c-.2-.472-.807-1.569-1.515-2.84-3.839-6.884-11.827-21.209-6.7-28.545,2.375-3.395,7.1-4.731,14.072-3.986-2.05-6.245-11.811-25.78-34.973-26.16-6.966-.116-12.679,2.026-16.971,6.361C76.535,61.435,76.883,79,76.888,79.173a1.711,1.711,0,0,1-3.422.09c-.021-.78-.38-19.21,10.248-29.944,4.974-5.023,11.521-7.5,19.46-7.373A39.2,39.2,0,0,1,132.921,56c5.877,6.84,8.758,14.385,9,16.9a1.908,1.908,0,0,1-1.438,2.3l-.618.014c-6.838-1.1-11.225-.335-13.039,2.257-3.9,5.579,3.653,19.13,6.88,24.916.824,1.476,1.418,2.543,1.69,3.2a22.248,22.248,0,0,0,3.553,5.685,9.658,9.658,0,0,1,2.126,3.521c.141.247,2.135,3.2,13.967.754,2.966-.611,4.744-.089,5.288,1.555,1.069,3.234-4.931,7.007-8.253,8.549a31.011,31.011,0,0,1-11.838,2.259Zm-5.037-4.313c.375.379,2.254,1.032,6.143.865a27.145,27.145,0,0,0,9.293-1.916,19.591,19.591,0,0,0,5.635-3.746l-.536.1c-7.565,1.562-12.917,1.354-15.905-.619a6.609,6.609,0,0,1-.579-.43,8.448,8.448,0,0,1-.837.271c-1.695.475-3.447.968-3.214,5.476Zm-48.872,9.563a24.313,24.313,0,0,1-5.877-.762c-2.093-.523-5.621-2.1-5.567-4.687.061-2.9,4.284-3.775,5.874-4.1,5.743-1.183,6.117-1.657,7.912-3.937.523-.664,1.175-1.491,2.063-2.482a5.759,5.759,0,0,1,4.282-2.224,6.375,6.375,0,0,1,2.506.6,7.363,7.363,0,0,1,3.989,4.792,6.147,6.147,0,0,1-.762,5.37A17.085,17.085,0,0,1,86.325,133.168Zm-7.747-5.3a7.988,7.988,0,0,0,2.7,1.22,20.885,20.885,0,0,0,5.047.66,13.617,13.617,0,0,0,11.635-6,2.894,2.894,0,0,0,.256-2.439,4.067,4.067,0,0,0-2.009-2.571,3.338,3.338,0,0,0-1.2-.337c-.189,0-.764,0-1.731,1.082-.817.913-1.406,1.66-1.924,2.319-2.235,2.838-3.26,3.8-9.91,5.171a10.73,10.73,0,0,0-2.868.9Zm13.16-7.895a1.712,1.712,0,0,1-1.689-1.452c-.043-.284-.071-.57-.086-.857a16.733,16.733,0,0,1-11.758-5.284,19.126,19.126,0,0,1-5.04-16.011A75.5,75.5,0,0,0,73.55,81.1c-.05-.854-.087-1.471-.085-1.9,0-.542.014-1.978,4.815-4.412a26.758,26.758,0,0,1,8.872-2.763c6.2-.64,10.281,2.12,11.5,7.772,3.3,15.262.262,22.012-1.958,26.942-.413.918-.8,1.785-1.116,2.625l-.276.74c-1.172,3.144-2.186,5.86-1.875,7.888A1.711,1.711,0,0,1,92,119.95l-.262.021ZM76.9,79.681l.067,1.222a78.738,78.738,0,0,1-.412,15.94,15.721,15.721,0,0,0,4.122,13.168,13.309,13.309,0,0,0,9.589,4.232h.073a46.737,46.737,0,0,1,1.761-5.327l.274-.736c.353-.948.766-1.866,1.2-2.838,2.136-4.745,4.795-10.652,1.732-24.812-.606-2.8-2.077-4.428-4.493-4.963-4.964-1.1-12.362,2.638-13.916,4.116Zm13.352,2.305-.437-.03a4.111,4.111,0,0,1-2.61-1.628,2.224,2.224,0,0,1-.542-1.452c.108-.789,1.072-1.263,2.574-1.263a7.506,7.506,0,0,1,1.037.074,6.31,6.31,0,0,1,2.147.665c.976.545,1.048,1.153,1,1.467A3.331,3.331,0,0,1,90.251,81.986Zm41.294-1.52a3.079,3.079,0,0,1-2.9-1.921c-.123-.907,1.371-1.6,2.909-1.811a7.264,7.264,0,0,1,1-.071c1.328,0,2.208.389,2.3,1.018a2.328,2.328,0,0,1-.793,1.6,3.75,3.75,0,0,1-2.116,1.157Zm5.265,32a1.712,1.712,0,0,1-1.42-2.663c3.645-5.444,2.978-10.995,2.333-16.363a46.374,46.374,0,0,1-.486-6.922,48.451,48.451,0,0,1,.659-6.125,31.268,31.268,0,0,0,.529-6.768,1.711,1.711,0,0,1,3.417-.184,34.445,34.445,0,0,1-.563,7.473,45.422,45.422,0,0,0-.62,5.714,43.223,43.223,0,0,0,.462,6.4c.686,5.709,1.464,12.179-2.886,18.676a1.712,1.712,0,0,1-1.424.759Z" fill="#fff"/>
    </g>
  </g>
</svg>
