<svg xmlns="http://www.w3.org/2000/svg" viewBox="0 0 128 64">
  <g>
    <g>
      <rect x="49" y="46" width="20" height="2" rx="0.5" ry="0.5" opacity="0.25"/>
      <rect x="49" y="50" width="20" height="2" rx="0.5" ry="0.5" opacity="0.25"/>
    </g>
    <path d="M84,6H54a2,2,0,0,0-2,2v3H49a2,2,0,0,0-2,2v3H44a2,2,0,0,0-2,2V56a2,2,0,0,0,2,2H74a2,2,0,0,0,2-2V53h3a2,2,0,0,0,2-2V48h3a2,2,0,0,0,2-2V8A2,2,0,0,0,84,6ZM74,55a1,1,0,0,1-1,1H45a1,1,0,0,1-1-1V19a1,1,0,0,1,1-1H73a1,1,0,0,1,1,1Zm5-5a1,1,0,0,1-1,1H76V18a2,2,0,0,0-2-2H49V14a1,1,0,0,1,1-1H78a1,1,0,0,1,1,1Zm5-5a1,1,0,0,1-1,1H81V13a2,2,0,0,0-2-2H54V9a1,1,0,0,1,1-1H83a1,1,0,0,1,1,1Z"/>
    <path d="M68.5,26.886l-9-5.25a1,1,0,0,0-1.008,0l-9,5.25a1,1,0,0,0-.5.864v10.5a1,1,0,0,0,.5.864l9,5.25a1,1,0,0,0,1.008,0l9-5.25a1,1,0,0,0,.5-.864V27.75A1,1,0,0,0,68.5,26.886Zm-9-2.935,6.511,3.8-6.511,3.8a1,1,0,0,1-1.008,0l-6.511-3.8,6.511-3.8A1,1,0,0,1,59.5,23.951ZM51,29.492l6.5,3.794a1,1,0,0,1,.5.864v7.61l-6.5-3.794A1,1,0,0,1,51,37.1Zm9,12.268v-7.61a1,1,0,0,1,.5-.864L67,29.492V37.1a1,1,0,0,1-.5.864Z"/>
    <g opacity="0.25">
      <circle cx="95" cy="15" r="1"/>
      <circle cx="33" cy="48" r="1"/>
      <circle cx="18" cy="24" r="1"/>
      <path d="M94,38a3,3,0,1,1,3,3A3,3,0,0,1,94,38Zm2,0a1,1,0,1,0,1-1A1,1,0,0,0,96,38Z"/>
      <path d="M101.134,24.5a1,1,0,0,1,0-1l3.464-6a1.04,1.04,0,0,1,1.732,0l3.464,6a1,1,0,0,1-.866,1.5H102A1,1,0,0,1,101.134,24.5Zm5.629-2.25-.866-1.5a.5.5,0,0,0-.866,0l-.866,1.5a.5.5,0,0,0,.433.75h1.731A.5.5,0,0,0,106.762,22.25Z"/>
      <path d="M22,40V34a1,1,0,0,1,1-1h6a1,1,0,0,1,1,1v6a1,1,0,0,1-1,1H23A1,1,0,0,1,22,40Zm6-2V36a1,1,0,0,0-1-1H25a1,1,0,0,0-1,1v2a1,1,0,0,0,1,1h2A1,1,0,0,0,28,38Z"/>
      <path d="M26,15h1.5a.5.5,0,0,0,.5-.5V13a1,1,0,0,1,2,0v1.5a.5.5,0,0,0,.5.5H32a1,1,0,0,1,0,2H30.5a.5.5,0,0,0-.5.5V19a1,1,0,0,1-2,0V17.5a.5.5,0,0,0-.5-.5H26a1,1,0,0,1,0-2Z"/>
    </g>
  </g>
</svg>
