<svg xmlns="http://www.w3.org/2000/svg" viewBox="0 0 128 64">
  <g>
    <g opacity="0.25">
      <ellipse cx="111.007" cy="27.887" rx="0.993" ry="0.987"/>
      <ellipse cx="41.013" cy="16.913" rx="0.993" ry="0.987"/>
      <ellipse cx="17.013" cy="32.9" rx="0.993" ry="0.987"/>
      <path d="M102.052,44.9a2.981,2.981,0,1,1,2.98,2.96A2.974,2.974,0,0,1,102.052,44.9Zm1.987,0a.994.994,0,1,0,.993-.987A.991.991,0,0,0,104.039,44.9Z"/>
      <path d="M29.276,26.407a.982.982,0,0,1,0-.987L32.718,19.5a1.037,1.037,0,0,1,1.721,0L37.88,25.42a.987.987,0,0,1-.861,1.48H30.137A1,1,0,0,1,29.276,26.407Zm5.592-2.22-.86-1.48a.5.5,0,0,0-.86,0l-.86,1.48a.493.493,0,0,0,.43.74h1.72A.493.493,0,0,0,34.868,24.186Z"/>
      <path d="M20.065,40.913V34.993a.99.99,0,0,1,.993-.987H27.02a.99.99,0,0,1,.993.987v5.921a.99.99,0,0,1-.993.987H21.059A.99.99,0,0,1,20.065,40.913Zm5.961-1.974V36.966a.99.99,0,0,0-.993-.987H23.046a.99.99,0,0,0-.993.987V38.94a.99.99,0,0,0,.993.987h1.987A.99.99,0,0,0,26.026,38.94Z"/>
      <path d="M92.007,29.966H93.5a.5.5,0,0,0,.5-.493v-1.48a.994.994,0,0,1,1.987,0v1.48a.5.5,0,0,0,.5.493h1.49a.987.987,0,1,1,0,1.974h-1.49a.5.5,0,0,0-.5.493v1.48a.994.994,0,0,1-1.987,0v-1.48a.5.5,0,0,0-.5-.493h-1.49a.987.987,0,1,1,0-1.974Z"/>
    </g>
    <g>
      <path d="M86,38.95H68a2.008,2.008,0,0,0-2,2v9.974a2.008,2.008,0,0,0,2,2h5v1.914H72a1,1,0,0,0,0,2H82a1,1,0,0,0,0-2H81V52.932h5a2.008,2.008,0,0,0,2-2V40.954A2.008,2.008,0,0,0,86,38.95Zm-7,16H75V53.443a.5.5,0,0,1,.5-.5h3a.5.5,0,0,1,.5.5Zm7-4.5a.5.5,0,0,1-.5.5h-17a.5.5,0,0,1-.5-.5V41.418a.5.5,0,0,1,.5-.5h17a.5.5,0,0,1,.5.5Z"/>
      <path d="M73,7.95H55a2.008,2.008,0,0,0-2,2v9.92a2.008,2.008,0,0,0,2,2h5v2H59a1,1,0,0,0,0,2H69a1,1,0,0,0,0-2H68v-2h5a2.008,2.008,0,0,0,2-2V9.954A2.008,2.008,0,0,0,73,7.95Zm-7,16H62v-1.5a.5.5,0,0,1,.5-.5h3a.5.5,0,0,1,.5.5Zm6.5-3.98h-17a.5.5,0,0,1-.5-.5V10.451a.5.5,0,0,1,.5-.5h17a.5.5,0,0,1,.5.5v9.022A.5.5,0,0,1,72.5,19.975Z"/>
      <path d="M60,39.013H42a2.008,2.008,0,0,0-2,2v9.92a2.008,2.008,0,0,0,2,2h5v2H46a1,1,0,0,0,0,2H56a1,1,0,0,0,0-2H55v-2h5a2.008,2.008,0,0,0,2-2v-9.92A2.008,2.008,0,0,0,60,39.013ZM53,54.95H49V53.443a.5.5,0,0,1,.5-.5h3a.5.5,0,0,1,.5.5Zm6.5-3.922h-17a.5.5,0,0,1-.5-.5V41.418a.5.5,0,0,1,.5-.5h17a.5.5,0,0,1,.5.5v9.109A.5.5,0,0,1,59.5,51.028Z"/>
      <path d="M78,33.956v6.119H76V33.9a1,1,0,0,0-1-1H53a1,1,0,0,0-1,1v6.041H50V33.956a3.005,3.005,0,0,1,3-3.006H63.05L63,24.885h2V30.95H75A3.012,3.012,0,0,1,78,33.956Z"/>
      <rect x="43" y="41.919" width="16" height="8.016" rx="0.5" ry="0.5" opacity="0.25"/>
      <rect x="69" y="41.919" width="16" height="8.016" rx="0.5" ry="0.5" opacity="0.25"/>
      <path d="M71.5,10.95h-15a.5.5,0,0,0-.5.5v6.92a.5.5,0,0,0,.5.5h15a.5.5,0,0,0,.5-.5v-6.92A.5.5,0,0,0,71.5,10.95Zm-4.072,5.918H60.571a.505.505,0,1,1,0-1h6.857a.505.505,0,1,1,0,1Zm0-3.006H60.571a.505.505,0,1,1,0-1h6.857a.505.505,0,1,1,0,1Z" opacity="0.25"/>
    </g>
  </g>
</svg>
