<svg xmlns="http://www.w3.org/2000/svg" viewBox="0 0 128 64">
  <title>docker-image-shield</title>
  <g>
    <g>
      <rect x="49" y="46" width="20" height="2" rx="0.5" ry="0.5" opacity="0.25"/>
      <rect x="49" y="50" width="20" height="2" rx="0.5" ry="0.5" opacity="0.25"/>
    </g>
    <path d="M84,6H54a2,2,0,0,0-2,2v3H49a2,2,0,0,0-2,2v3H44a2,2,0,0,0-2,2V56a2,2,0,0,0,2,2H74a2,2,0,0,0,2-2V53h3a2,2,0,0,0,2-2V48h3a2,2,0,0,0,2-2V8A2,2,0,0,0,84,6ZM74,55a1,1,0,0,1-1,1H45a1,1,0,0,1-1-1V19a1,1,0,0,1,1-1H73a1,1,0,0,1,1,1Zm5-5a1,1,0,0,1-1,1H76V18a2,2,0,0,0-2-2H49V14a1,1,0,0,1,1-1H78a1,1,0,0,1,1,1Zm5-5a1,1,0,0,1-1,1H81V13a2,2,0,0,0-2-2H54V9a1,1,0,0,1,1-1H83a1,1,0,0,1,1,1Z"/>
    <g>
      <path d="M59,44.579l-.376-.152c-.265-.108-6.5-2.688-7.932-7.145-.975-3.041-.955-12.254-.953-12.646l0-1.107,1.1.117a9.881,9.881,0,0,0,7.481-1.983L59,21.048l.676.618a9.933,9.933,0,0,0,7.477,1.98l1.1-.117,0,1.107c0,.392.022,9.6-.953,12.646-1.428,4.456-7.667,7.036-7.932,7.145Zm-7.258-18.87c.027,3.106.209,8.951.854,10.962.882,2.752,4.614,4.929,6.4,5.738,1.275-.59,5.44-2.715,6.41-5.738.645-2.012.827-7.855.854-10.962A12.113,12.113,0,0,1,59,23.662,12.121,12.121,0,0,1,51.742,25.709Z"/>
      <polygon points="59 27.658 60.062 30.928 63.5 30.928 60.719 32.949 61.781 36.218 59 34.197 56.219 36.218 57.281 32.949 54.5 30.928 57.938 30.928 59 27.658"/>
    </g>
    <g opacity="0.25">
      <circle cx="101" cy="21" r="1"/>
      <circle cx="30" cy="15" r="1"/>
      <circle cx="20" cy="34" r="1"/>
      <path d="M26,39a3,3,0,1,1,3,3A3,3,0,0,1,26,39Zm2,0a1,1,0,1,0,1-1A1,1,0,0,0,28,39Z"/>
      <path d="M15.67,25.5a1,1,0,0,1,0-1l3.464-6a1.04,1.04,0,0,1,1.732,0l3.464,6a1,1,0,0,1-.866,1.5H16.536A1,1,0,0,1,15.67,25.5ZM21.3,23.25l-.866-1.5a.5.5,0,0,0-.866,0l-.866,1.5a.5.5,0,0,0,.433.75h1.731A.5.5,0,0,0,21.3,23.25Z"/>
      <path d="M104,45V39a1,1,0,0,1,1-1h6a1,1,0,0,1,1,1v6a1,1,0,0,1-1,1h-6A1,1,0,0,1,104,45Zm6-2V41a1,1,0,0,0-1-1h-2a1,1,0,0,0-1,1v2a1,1,0,0,0,1,1h2A1,1,0,0,0,110,43Z"/>
      <path d="M93,30h1.5a.5.5,0,0,0,.5-.5V28a1,1,0,0,1,2,0v1.5a.5.5,0,0,0,.5.5H99a1,1,0,0,1,0,2H97.5a.5.5,0,0,0-.5.5V34a1,1,0,0,1-2,0V32.5a.5.5,0,0,0-.5-.5H93a1,1,0,0,1,0-2Z"/>
    </g>
  </g>
</svg>
