<svg xmlns="http://www.w3.org/2000/svg" viewBox="0 0 128 64">
  <title>app-stack</title>
  <g>
    <path d="M64,38,44.75,27l-3.062,1.75,20.08,11.474a4.5,4.5,0,0,0,4.465,0L86.313,28.75,83.25,27Z" opacity="0.25"/>
    <path d="M64,48,44.75,37l-3.062,1.75,20.08,11.474a4.5,4.5,0,0,0,4.465,0L86.313,38.75,83.25,37Z" opacity="0.25"/>
    <path d="M90.977,30.263,85.266,27l5.711-3.264a2,2,0,0,0,0-3.473L65.985,5.982a4,4,0,0,0-3.969,0L37.023,20.263a2,2,0,0,0,0,3.473L42.734,27l-5.711,3.263a2,2,0,0,0,0,3.473L42.734,37l-5.711,3.263a2,2,0,0,0,0,3.473L62.015,58.018a4,4,0,0,0,3.969,0L90.977,43.736a2,2,0,0,0,0-3.473L85.266,37l5.711-3.264A2,2,0,0,0,90.977,30.263Zm-52.2-8.7L62.76,7.861a2.5,2.5,0,0,1,2.481,0L89.225,21.566a.5.5,0,0,1,0,.868L65.24,36.139a2.5,2.5,0,0,1-2.481,0L38.775,22.434A.5.5,0,0,1,38.775,21.566Zm50.449,20a.5.5,0,0,1,0,.868L65.24,56.139a2.5,2.5,0,0,1-2.481,0L38.775,42.434a.5.5,0,0,1,0-.868l5.975-3.414,17.265,9.866a4,4,0,0,0,3.969,0L83.25,38.152Zm0-9.132L65.24,46.139a2.5,2.5,0,0,1-2.481,0L38.775,32.434a.5.5,0,0,1,0-.868l5.975-3.414,17.265,9.866a4,4,0,0,0,3.969,0L83.25,28.152l5.975,3.414A.5.5,0,0,1,89.225,32.434Z"/>
    <g opacity="0.25">
      <circle cx="100" cy="31" r="1"/>
      <circle cx="30" cy="15" r="1"/>
      <circle cx="22" cy="36" r="1"/>
      <path d="M26,43a3,3,0,1,1,3,3A3,3,0,0,1,26,43Zm2,0a1,1,0,1,0,1-1A1,1,0,0,0,28,43Z"/>
      <path d="M16.67,29.5a1,1,0,0,1,0-1l3.464-6a1.04,1.04,0,0,1,1.732,0l3.464,6a1,1,0,0,1-.866,1.5H17.536A1,1,0,0,1,16.67,29.5ZM22.3,27.25l-.866-1.5a.5.5,0,0,0-.866,0l-.866,1.5a.5.5,0,0,0,.433.75h1.731A.5.5,0,0,0,22.3,27.25Z"/>
      <path d="M102,45V39a1,1,0,0,1,1-1h6a1,1,0,0,1,1,1v6a1,1,0,0,1-1,1h-6A1,1,0,0,1,102,45Zm6-2V41a1,1,0,0,0-1-1h-2a1,1,0,0,0-1,1v2a1,1,0,0,0,1,1h2A1,1,0,0,0,108,43Z"/>
      <path d="M100,20h1.5a.5.5,0,0,0,.5-.5V18a1,1,0,0,1,2,0v1.5a.5.5,0,0,0,.5.5H106a1,1,0,0,1,0,2h-1.5a.5.5,0,0,0-.5.5V24a1,1,0,0,1-2,0V22.5a.5.5,0,0,0-.5-.5H100a1,1,0,0,1,0-2Z"/>
    </g>
    <g opacity="0.25">
      <path d="M56.088,18.139l3.012-.715-1.225,1.747-1.788-1.032m4.789-1.674-.083-.048a1.953,1.953,0,0,0-1.388-.155l-7.3,1.637a1.45,1.45,0,0,0-.381.125c-.368.214-.372.549-.008.759a1.545,1.545,0,0,0,1.1.125l1.506-.35,2.841,1.64-.574.837c-.164.243-.137.479.195.671a1.465,1.465,0,0,0,1.349,0,.541.541,0,0,0,.209-.21l2.8-4.232c.189-.295.124-.575-.265-.8"/>
      <path d="M63.268,21.711l1.966-1.143,1.1.634c.709.409.813.866.179,1.235l-.013.007a2.164,2.164,0,0,1-2.1-.081l-1.13-.652m4.454-1.176-1.928-1.113a1.541,1.541,0,0,0-1.413,0l-5.055,2.938c-.393.229-.391.59,0,.818a1.541,1.541,0,0,0,1.413,0l1.275-.741,1.079.623a4.965,4.965,0,0,0,4.863.2l.019-.011c1.307-.759,1.282-1.825-.257-2.713"/>
      <path d="M69.659,25.4l1.966-1.143,1.1.634c.709.409.813.866.179,1.235l-.013.007a2.168,2.168,0,0,1-2.107-.085L69.659,25.4m4.454-1.176-1.928-1.113a1.541,1.541,0,0,0-1.413,0l-5.055,2.938c-.393.229-.391.59,0,.818a1.541,1.541,0,0,0,1.413,0l1.275-.741,1.079.623a4.965,4.965,0,0,0,4.863.2l.019-.011c1.307-.759,1.282-1.825-.257-2.713"/>
    </g>
  </g>
</svg>
