<svg xmlns="http://www.w3.org/2000/svg" viewBox="0 0 128 64">
  <title>pic_virtual-machine</title>
  <g>
    <g>
      <rect x="50.05" y="22.6" width="17" height="17" rx="1" ry="1" opacity="0.2"/>
      <path d="M65.975,39.95h-15a2,2,0,0,1-2-2v-15a2,2,0,0,1,2-2h15a2,2,0,0,1,2,2v15A2,2,0,0,1,65.975,39.95Zm-15-16.5v14a.5.5,0,0,0,.5.5h14a.5.5,0,0,0,.5-.5v-14a.5.5,0,0,0-.5-.5h-14A.5.5,0,0,0,50.975,23.45Z"/>
      <path d="M55.975,22.888h-2V10.95a2,2,0,0,1,2-2h15a2,2,0,0,1,2,2v6.813h-2V11.45a.5.5,0,0,0-.5-.5h-14a.5.5,0,0,0-.5.5Z"/>
      <path d="M78.975,35.95H67.163v-2H78.475a.5.5,0,0,0,.5-.5v-14a.5.5,0,0,0-.5-.5h-14a.5.5,0,0,0-.5.5v3.184h-2V18.95a2,2,0,0,1,2-2h15a2,2,0,0,1,2,2v15A2,2,0,0,1,78.975,35.95Z"/>
      <g opacity="0.2">
        <path d="M72.975,17.69v8.19a2.006,2.006,0,0,1-2,2h-7v5.57a.5.5,0,0,0,.5.5h2.69v2h-3.19a2.006,2.006,0,0,1-2-2V27.88h-6a2.006,2.006,0,0,1-2-2V22.82h2v2.56a.5.5,0,0,0,.5.5h5.5V22.63h2v3.25h6.5a.5.5,0,0,0,.5-.5V17.69Z"/>
      </g>
      <polyline points="87.707 54.819 80.423 52.95 49.757 52.95 42.473 54.844" fill="none" stroke="#000" stroke-miterlimit="10" stroke-width="2"/>
      <polyline points="42.473 45.044 49.757 46.95 80.423 46.95 87.707 45.019" fill="none" stroke="#000" stroke-miterlimit="10" stroke-width="2"/>
      <polygon points="42.569 45.619 49.757 47.306 49.757 52.781 42.569 54.244 42.569 45.619" opacity="0.2"/>
      <polygon points="87.611 54.244 80.423 52.556 80.423 47.081 87.611 45.619 87.611 54.244" opacity="0.2"/>
      <circle cx="54.975" cy="49.95" r="1"/>
      <rect x="65.857" y="49.556" width="1.533" height="0.75"/>
      <rect x="68.157" y="49.556" width="1.533" height="0.75"/>
      <rect x="70.457" y="49.556" width="1.533" height="0.75"/>
      <rect x="72.757" y="49.556" width="1.533" height="0.75"/>
      <rect x="75.057" y="49.556" width="1.533" height="0.75"/>
      <rect x="41.975" y="43.95" width="46" height="12" rx="1" ry="1" fill="none" stroke="#000" stroke-miterlimit="10" stroke-width="2"/>
    </g>
    <g opacity="0.2">
      <circle cx="25.975" cy="30.95" r="1"/>
      <circle cx="95.975" cy="44.95" r="1"/>
      <circle cx="107.975" cy="26.95" r="1"/>
      <path d="M107.975,47.95a3,3,0,1,1,3-3A3,3,0,0,1,107.975,47.95Zm0-4a1,1,0,1,0,1,1A1,1,0,0,0,107.975,43.95Z"/>
      <path d="M101.975,23.914H95.047a1,1,0,0,1-.866-1.5l3.464-6a1.04,1.04,0,0,1,1.732,0l3.464,6a1,1,0,0,1-.866,1.5Zm-4.329-2h1.731a.5.5,0,0,0,.433-.75l-.866-1.5a.5.5,0,0,0-.866,0l-.866,1.5A.5.5,0,0,0,97.646,21.914Z"/>
      <path d="M41.975,23.95h-6a1,1,0,0,1-1-1v-6a1,1,0,0,1,1-1h6a1,1,0,0,1,1,1v6A1,1,0,0,1,41.975,23.95Zm-4-2h2a1,1,0,0,0,1-1v-2a1,1,0,0,0-1-1h-2a1,1,0,0,0-1,1v2A1,1,0,0,0,37.975,21.95Z"/>
      <path d="M31.975,42.95h-1.5a.5.5,0,0,1-.5-.5v-1.5a1,1,0,0,0-2,0v1.5a.5.5,0,0,1-.5.5h-1.5a1,1,0,0,0,0,2h1.5a.5.5,0,0,1,.5.5v1.5a1,1,0,0,0,2,0v-1.5a.5.5,0,0,1,.5-.5h1.5a1,1,0,1,0,0-2Z"/>
    </g>
  </g>
</svg>
