<svg xmlns="http://www.w3.org/2000/svg" viewBox="0 0 128 64">
  <title>edit-yaml</title>
  <path d="M91.35,11.563c0.016-.186.028-0.373,0.028-0.562a6.375,6.375,0,0,0-12.75,0c0,0.19.012,0.377,0.028,0.563H91.35Z" opacity="0.25"/>
  <path d="M64.683,55h-32A6.994,6.994,0,0,0,39,59H71A6.994,6.994,0,0,1,64.683,55Z" opacity="0.25"/>
  <path d="M79.8,48.77l-1,.806a1,1,0,0,0-.238,1.282l0.75,1.291a1,1,0,0,0,1.226.43l1.193-.462a5.248,5.248,0,0,0,1.337.772l0.2,1.265a1,1,0,0,0,.988.847h1.493a1,1,0,0,0,.988-0.847l0.2-1.265a5.248,5.248,0,0,0,1.337-.772l1.193,0.462a1,1,0,0,0,1.226-.43l0.75-1.291a1,1,0,0,0-.238-1.282l-1-.806a4.767,4.767,0,0,0,0-1.54l1-.806a1,1,0,0,0,.238-1.282l-0.75-1.291a1,1,0,0,0-1.226-.43l-1.193.462a5.247,5.247,0,0,0-1.337-.772l-0.2-1.265A1,1,0,0,0,85.747,41H84.253a1,1,0,0,0-.988.847l-0.2,1.265a5.247,5.247,0,0,0-1.337.772l-1.193-.462a1,1,0,0,0-1.226.43l-0.75,1.291a1,1,0,0,0,.238,1.282l1,0.806A4.767,4.767,0,0,0,79.8,48.77ZM82.413,48a2.6,2.6,0,1,1,2.6,2.6A2.6,2.6,0,0,1,82.413,48Z"/>
  <g opacity="0.25">
    <rect x="47" y="43" width="23" height="2" rx="0.5" ry="0.5"/>
    <rect x="47" y="39" width="23" height="2" rx="0.5" ry="0.5"/>
    <rect x="47" y="35" width="23" height="2" rx="0.5" ry="0.5"/>
    <rect x="47" y="31" width="23" height="2" rx="0.5" ry="0.5"/>
    <rect x="47" y="27" width="23" height="2" rx="0.5" ry="0.5"/>
  </g>
  <g>
    <path d="M48.041,20.058l-2.034-2.764a0.825,0.825,0,0,1-.171-0.5,0.677,0.677,0,0,1,.693-0.667,0.8,0.8,0,0,1,.684.423l1.53,2.206L50.3,16.538a0.8,0.8,0,0,1,.667-0.414,0.642,0.642,0,0,1,.675.675,0.861,0.861,0,0,1-.18.486l-2.035,2.746V21.85a0.693,0.693,0,1,1-1.387,0V20.058Z"/>
    <path d="M51.56,21.6l2.2-4.96a0.857,0.857,0,0,1,.811-0.549h0.081a0.844,0.844,0,0,1,.8.549l2.2,4.96a0.676,0.676,0,0,1,.071.279,0.657,0.657,0,0,1-.657.667,0.707,0.707,0,0,1-.666-0.478l-0.423-.99H53.2l-0.441,1.036a0.682,0.682,0,0,1-.64.432,0.638,0.638,0,0,1-.639-0.648A0.736,0.736,0,0,1,51.56,21.6Zm3.9-1.747-0.874-2.08-0.873,2.08h1.747Z"/>
    <path d="M58.8,16.844a0.688,0.688,0,0,1,.693-0.693H59.65a0.711,0.711,0,0,1,.63.36l1.675,2.728L63.639,16.5a0.678,0.678,0,0,1,.621-0.351h0.153a0.688,0.688,0,0,1,.693.693V21.85a0.689,0.689,0,1,1-1.378,0V18.708L62.513,20.58a0.648,0.648,0,0,1-1.152,0l-1.2-1.845v3.133a0.68,0.68,0,0,1-1.359,0V16.844Z"/>
    <path d="M66.615,16.826a0.693,0.693,0,0,1,1.387,0v4.4h2.565a0.63,0.63,0,1,1,0,1.26H67.309a0.688,0.688,0,0,1-.693-0.693V16.826Z"/>
  </g>
  <g opacity="0.25">
    <circle cx="101" cy="19" r="1"/>
    <circle cx="30" cy="13" r="1"/>
    <circle cx="20" cy="32" r="1"/>
    <path d="M26,37a3,3,0,1,1,3,3A3,3,0,0,1,26,37Zm2,0a1,1,0,1,0,1-1A1,1,0,0,0,28,37Z"/>
    <path d="M15.67,23.5a1,1,0,0,1,0-1l3.464-6a1.04,1.04,0,0,1,1.732,0l3.464,6a1,1,0,0,1-.866,1.5H16.536A1,1,0,0,1,15.67,23.5ZM21.3,21.25l-0.866-1.5a0.5,0.5,0,0,0-.866,0L18.7,21.25a0.5,0.5,0,0,0,.433.75h1.731A0.5,0.5,0,0,0,21.3,21.25Z"/>
    <path d="M104,43V37a1,1,0,0,1,1-1h6a1,1,0,0,1,1,1v6a1,1,0,0,1-1,1h-6A1,1,0,0,1,104,43Zm6-2V39a1,1,0,0,0-1-1h-2a1,1,0,0,0-1,1v2a1,1,0,0,0,1,1h2A1,1,0,0,0,110,41Z"/>
    <path d="M93,28h1.5a0.5,0.5,0,0,0,.5-0.5V26a1,1,0,0,1,2,0v1.5a0.5,0.5,0,0,0,.5.5H99a1,1,0,0,1,0,2H97.5a0.5,0.5,0,0,0-.5.5V32a1,1,0,0,1-2,0V30.5a0.5,0.5,0,0,0-.5-0.5H93A1,1,0,0,1,93,28Z"/>
  </g>
  <path d="M85.109,36a11.88,11.88,0,0,0-5.4,1.243A0.494,0.494,0,0,1,79,36.794c0-3.709,0-18.767,0-22.8a1,1,0,0,1,1-1H92a1,1,0,0,0,1-1,8,8,0,0,0-8-8H46a8,8,0,0,0-8,8V50a1,1,0,0,1-1,1H32a1,1,0,0,0-1,1,8,8,0,0,0,8,8H71a7.958,7.958,0,0,0,5.708-2.411,0.8,0.8,0,0,1,1.051-.038,11.983,11.983,0,0,0,19.235-9.96A12.116,12.116,0,0,0,85.109,36ZM85,6a6.011,6.011,0,0,1,5.767,4.341A0.507,0.507,0,0,1,90.29,11H79.718a0.507,0.507,0,0,1-.477-0.659A6,6,0,0,1,85,6ZM64.531,58H39a6.011,6.011,0,0,1-5.767-4.341A0.507,0.507,0,0,1,33.71,53H62.229a0.984,0.984,0,0,1,.966.755A7.977,7.977,0,0,0,64.9,57.169,0.5,0.5,0,0,1,64.531,58Zm5.454-.084A6.149,6.149,0,0,1,65,51.767,0.772,0.772,0,0,0,64.223,51H41a1,1,0,0,1-1-1V12a6,6,0,0,1,6-6H78.531a0.5,0.5,0,0,1,.371.828A7.966,7.966,0,0,0,77,12V38.655a1,1,0,0,1-.312.716,11.955,11.955,0,0,0-1.341,15.75,0.813,0.813,0,0,1-.059,1.055A5.97,5.97,0,0,1,69.984,57.916ZM85,58A10,10,0,1,1,95,48,10.012,10.012,0,0,1,85,58Z"/>
</svg>
