<svg xmlns="http://www.w3.org/2000/svg" viewBox="0 0 128 64">
  <title>Artboard 1</title>
  <g>
    <g>
      <path d="M72.2,38.9l3.5-2.1a.618.618,0,0,0,.2-.7c0-.1-.1-.1-.2-.2L64.4,29.3a.908.908,0,0,0-1,0L52.2,35.8a.574.574,0,0,0-.2.7c0,.1.1.1.2.2l3.5,2.2-3.5,2a.574.574,0,0,0-.2.7c0,.1.1.1.2.2l3.5,2.1-3.5,2a.574.574,0,0,0-.2.7c0,.1.1.1.2.2l11.3,6.9a.908.908,0,0,0,1,0l11.3-6.9a.618.618,0,0,0,.2-.7c0-.1-.1-.1-.2-.2l-3.5-2,3.5-2.1a.618.618,0,0,0,.2-.7c0-.1-.1-.1-.2-.2ZM55.3,36.3l8.3-4.8a.454.454,0,0,1,.5,0l8.4,4.9-8.4,5.1a.446.446,0,0,1-.5,0ZM72.5,46.4l-8.4,5.1a.446.446,0,0,1-.5,0l-8.3-5.1,2.2-1.3,5.8,3.6a.908.908,0,0,0,1,0l5.8-3.6Zm-8.8.1-8.4-5.1,2.3-1.3,5.8,3.6a.908.908,0,0,0,1,0l5.8-3.5,2.3,1.3-8.4,5.1a.6.6,0,0,1-.4-.1Z"/>
      <path d="M57.6,40l5.8,3.6a.908.908,0,0,0,1,0l5.8-3.5,2.3,1.3-8.3,5.1a.638.638,0,0,1-.6,0c-.3-.2-8.3-5.1-8.3-5.1Z" opacity="0.2" style="isolation: isolate"/>
      <path d="M61,19.1h6a.945.945,0,0,1,1,1h0a.945.945,0,0,1-1,1H61a.945.945,0,0,1-1-1h0A1,1,0,0,1,61,19.1Z"/>
      <path d="M40,22.8V55.1a.945.945,0,0,0,1,1h6a.945.945,0,0,0,1-1V26.4a.472.472,0,0,1,.5-.5h31a.472.472,0,0,1,.5.5V55.1a.945.945,0,0,0,1,1h6a.945.945,0,0,0,1-1V22.8a1.05,1.05,0,0,0-.5-.9L64.9,10.4a1.91,1.91,0,0,0-1.8,0L40.5,21.9A1.05,1.05,0,0,0,40,22.8ZM85.5,54.1h-3a.472.472,0,0,1-.5-.5V25c0-.6-.4-.8-1-.8H47c-.6,0-1,.3-1,.8V53.5a.56.56,0,0,1-.5.6h-3c-.3,0-.5-.4-.5-.6V23.7c0-.2.1-.4.3-.4L63.6,12.4a1.387,1.387,0,0,1,.9,0L85.8,23.3a.536.536,0,0,1,.3.4V53.6a.739.739,0,0,1-.6.5Z"/>
      <g opacity="0.2">
        <polygon points="87.5 23.2 86.6 25 64.3 13.6 42 25 41.1 23.2 64.2 11.3 64.3 11.4 64.3 11.3 87.5 23.2"/>
      </g>
      <path d="M43,56.1H37a1,1,0,0,1,0-2h6a.945.945,0,0,1,1,1A1,1,0,0,1,43,56.1Z"/>
      <path d="M91,56.1H85a1,1,0,0,1,0-2h6a.945.945,0,0,1,1,1A1,1,0,0,1,91,56.1Z"/>
    </g>
    <g opacity="0.2">
      <circle cx="20" cy="27.1" r="1"/>
      <circle cx="76.9" cy="12.1" r="1"/>
      <circle cx="110.9" cy="25.1" r="1"/>
      <path d="M95.9,17.1a3,3,0,1,1,3-3A2.946,2.946,0,0,1,95.9,17.1Zm0-4a1,1,0,1,0,1,1A1,1,0,0,0,95.9,13.1Z"/>
      <path d="M29,20.1H22a.945.945,0,0,1-1-1,.9.9,0,0,1,.1-.5l3.5-6a1,1,0,0,1,1.4-.3l.3.3,3.5,6a1.012,1.012,0,0,1-.4,1.4A.6.6,0,0,1,29,20.1Zm-4.4-2h1.7a.472.472,0,0,0,.5-.5c0-.1,0-.2-.1-.2l-.9-1.5a.574.574,0,0,0-.7-.2c-.1,0-.1.1-.2.2L24,17.4a.527.527,0,0,0,.2.7Z"/>
      <path d="M35,38.1H29a.945.945,0,0,1-1-1v-6a.945.945,0,0,1,1-1h6a.945.945,0,0,1,1,1v6A1,1,0,0,1,35,38.1Zm-4-2h2a.945.945,0,0,0,1-1v-2a.945.945,0,0,0-1-1H31a.945.945,0,0,0-1,1v2A.945.945,0,0,0,31,36.1Z"/>
      <path d="M103.9,31.1h-1.5a.472.472,0,0,1-.5-.5V29.1a1,1,0,1,0-2,0v1.5a.472.472,0,0,1-.5.5H97.9a1,1,0,1,0,0,2h1.5a.472.472,0,0,1,.5.5v1.5a1,1,0,1,0,2,0V33.6a.472.472,0,0,1,.5-.5h1.5a1,1,0,1,0,0-2Z"/>
    </g>
  </g>
</svg>
