<svg xmlns="http://www.w3.org/2000/svg" viewBox="0 0 128 64">
  <path d="M63,10a5,5,0,0,1,4.9,4H74V56H42V14h6.1A5,5,0,0,1,53,10H38V60H78V10H63Z" opacity="0.25"/>
  <path d="M77,9H64V8.215a6.163,6.163,0,0,0-5.414-6.187A6,6,0,0,0,52,8V9H39a2,2,0,0,0-2,2V59a2,2,0,0,0,2,2H77a2,2,0,0,0,2-2V11A2,2,0,0,0,77,9ZM54,10.5V8.127a4.147,4.147,0,0,1,.967-2.738,3.976,3.976,0,0,1,3.43-1.37,4.15,4.15,0,0,1,3.6,4.2V10.5a0.5,0.5,0,0,0,.5.5H63a4,4,0,0,1,4,4v0.5a0.5,0.5,0,0,1-.5.5h-17a0.5,0.5,0,0,1-.5-0.5V15a4,4,0,0,1,4-4h0.5A0.5,0.5,0,0,0,54,10.5ZM68,18a1,1,0,0,0,1-1V15h3.5a0.5,0.5,0,0,1,.5.5v39a0.5,0.5,0,0,1-.5.5h-29a0.5,0.5,0,0,1-.5-0.5v-39a0.5,0.5,0,0,1,.5-0.5H47v2a1,1,0,0,0,1,1H68Zm9,40a1,1,0,0,1-1,1H40a1,1,0,0,1-1-1V12a1,1,0,0,1,1-1h8.546a5.987,5.987,0,0,0-1.194,2H41.5a0.5,0.5,0,0,0-.5.5v43a0.5,0.5,0,0,0,.5.5h33a0.5,0.5,0,0,0,.5-0.5v-43a0.5,0.5,0,0,0-.5-0.5H68.648a5.987,5.987,0,0,0-1.194-2H76a1,1,0,0,1,1,1V58Z"/>
  <rect x="56.5" y="6.5" width="3" height="3" rx="1.5" ry="1.5"/>
  <path d="M58,22a6,6,0,1,0,6,6A6,6,0,0,0,58,22Zm-0.9,8.946-2.763-2.763,0.882-.882L57.1,29.182l3.687-3.687,0.882,0.882Z"/>
  <g opacity="0.25">
    <rect x="53" y="46" width="14" height="2" rx="0.5" ry="0.5"/>
    <rect x="53" y="42" width="14" height="2" rx="0.5" ry="0.5"/>
    <rect x="53" y="38" width="14" height="2" rx="0.5" ry="0.5"/>
    <rect x="49" y="46" width="2" height="2" rx="1" ry="1"/>
    <rect x="49" y="42" width="2" height="2" rx="1" ry="1"/>
    <rect x="49" y="38" width="2" height="2" rx="1" ry="1"/>
  </g>
  <g opacity="0.25">
    <circle cx="28" cy="24" r="1"/>
    <circle cx="101" cy="22" r="1"/>
    <circle cx="102" cy="42" r="1"/>
    <path d="M28,40a3,3,0,1,1,3-3A3,3,0,0,1,28,40Zm0-4a1,1,0,1,0,1,1A1,1,0,0,0,28,36Z"/>
    <path d="M25.464,53H18.536a1,1,0,0,1-.866-1.5l3.464-6a1.04,1.04,0,0,1,1.732,0l3.464,6A1,1,0,0,1,25.464,53Zm-4.329-2h1.731a0.5,0.5,0,0,0,.433-0.75l-0.866-1.5a0.5,0.5,0,0,0-.866,0L20.7,50.25A0.5,0.5,0,0,0,21.134,51Z"/>
    <path d="M23,25H17a1,1,0,0,1-1-1V18a1,1,0,0,1,1-1h6a1,1,0,0,1,1,1v6A1,1,0,0,1,23,25Zm-4-2h2a1,1,0,0,0,1-1V20a1,1,0,0,0-1-1H19a1,1,0,0,0-1,1v2A1,1,0,0,0,19,23Z"/>
    <path d="M110,32h-1.5a0.5,0.5,0,0,1-.5-0.5V30a1,1,0,0,0-2,0v1.5a0.5,0.5,0,0,1-.5.5H104a1,1,0,0,0,0,2h1.5a0.5,0.5,0,0,1,.5.5V36a1,1,0,0,0,2,0V34.5a0.5,0.5,0,0,1,.5-0.5H110A1,1,0,0,0,110,32Z"/>
  </g>
  <rect x="90" y="22" width="3" height="28" opacity="0.25"/>
  <path d="M94.714,19.092L91.5,11.058l-3.214,8.035A4,4,0,0,0,88,20.578V56a2,2,0,0,0,2,2h3a2,2,0,0,0,2-2V20.578A4,4,0,0,0,94.714,19.092Zm-3.651-1.557c0.145,0.01.29,0.022,0.437,0.022s0.292-.012.437-0.022L92.923,20H90.077ZM93,55a1,1,0,0,1-1,1H91a1,1,0,0,1-1-1V52.5a0.5,0.5,0,0,1,.5-0.5h2a0.5,0.5,0,0,1,.5.5V55Zm-0.5-5h-2a0.5,0.5,0,0,1-.5-0.5V22h3V49.5A0.5,0.5,0,0,1,92.5,50Z"/>
</svg>
