<svg xmlns="http://www.w3.org/2000/svg" viewBox="0 0 128 64">
  <path d="M105.934,41.07L102,39.349h0L89.4,33.836a1,1,0,0,0-.8,0L83,36.286V38.47l5.6-2.45a1,1,0,0,1,.8,0l10,4.375a1,1,0,0,1,.6.916V53H83v1h19V42.3a0.5,0.5,0,0,1,.7-0.458l2.432,1.064a0.981,0.981,0,0,0,.4.084A1,1,0,0,0,105.934,41.07Z" opacity="0.25"/>
  <path d="M57,15L31,26.375V29.1L56.2,18.079a2,2,0,0,1,1.6,0L83,29.1V31h0.5V26.375Z" opacity="0.25"/>
  <rect x="52" y="27" width="10" height="4" rx="1" ry="1"/>
  <path d="M107,53H85a1,1,0,0,1-1-1V29.161a1,1,0,0,1,1.4-.916l2.2,0.961a0.981,0.981,0,0,0,.4.084,1,1,0,0,0,.4-1.916L84,25.45h0L57.8,13.987a2,2,0,0,0-1.6,0L30,25.449h0l-4.4,1.924a1,1,0,0,0,.8,1.832l2.2-.961a1,1,0,0,1,1.4.916V52a1,1,0,0,1-1,1H21a1,1,0,0,0,0,2h86A1,1,0,0,0,107,53ZM32.6,26.5L56.2,16.171a2,2,0,0,1,1.6,0L81.4,26.5a1,1,0,0,1,.6.916V52a1,1,0,0,1-1,1H74.5a0.5,0.5,0,0,1-.5-0.5V38a1,1,0,0,0-1-1H41a1,1,0,0,0-1,1V52.5a0.5,0.5,0,0,1-.5.5H33a1,1,0,0,1-1-1V27.412A1,1,0,0,1,32.6,26.5Zm9.4,26v-1a0.5,0.5,0,0,1,.5-0.5h29a0.5,0.5,0,0,1,.5.5v1a0.5,0.5,0,0,1-.5.5h-29A0.5,0.5,0,0,1,42,52.5Zm30-12a0.5,0.5,0,0,1-.5.5h-29a0.5,0.5,0,0,1-.5-0.5v-1a0.5,0.5,0,0,1,.5-0.5h29a0.5,0.5,0,0,1,.5.5v1ZM42.5,43h29a0.5,0.5,0,0,1,.5.5v1a0.5,0.5,0,0,1-.5.5h-29a0.5,0.5,0,0,1-.5-0.5v-1A0.5,0.5,0,0,1,42.5,43Zm0,4h29a0.5,0.5,0,0,1,.5.5v1a0.5,0.5,0,0,1-.5.5h-29a0.5,0.5,0,0,1-.5-0.5v-1A0.5,0.5,0,0,1,42.5,47Z"/>
  <g opacity="0.25">
    <circle cx="33" cy="15" r="1"/>
    <circle cx="70" cy="12" r="1"/>
    <circle cx="104" cy="22" r="1"/>
    <path d="M97,27a3,3,0,1,1,3-3A3,3,0,0,1,97,27Zm0-4a1,1,0,1,0,1,1A1,1,0,0,0,97,23Z"/>
    <path d="M86.964,17H80.036a1,1,0,0,1-.866-1.5l3.464-6a1.04,1.04,0,0,1,1.732,0l3.464,6A1,1,0,0,1,86.964,17Zm-4.329-2h1.731a0.5,0.5,0,0,0,.433-0.75l-0.866-1.5a0.5,0.5,0,0,0-.866,0L82.2,14.25A0.5,0.5,0,0,0,82.634,15Z"/>
    <path d="M23,21H17a1,1,0,0,1-1-1V14a1,1,0,0,1,1-1h6a1,1,0,0,1,1,1v6A1,1,0,0,1,23,21Zm-4-2h2a1,1,0,0,0,1-1V16a1,1,0,0,0-1-1H19a1,1,0,0,0-1,1v2A1,1,0,0,0,19,19Z"/>
    <path d="M113,15h-1.5a0.5,0.5,0,0,1-.5-0.5V13a1,1,0,0,0-2,0v1.5a0.5,0.5,0,0,1-.5.5H107a1,1,0,0,0,0,2h1.5a0.5,0.5,0,0,1,.5.5V19a1,1,0,0,0,2,0V17.5a0.5,0.5,0,0,1,.5-0.5H113A1,1,0,0,0,113,15Z"/>
  </g>
</svg>
