<svg xmlns="http://www.w3.org/2000/svg" viewBox="0 0 128 64">
  <title>pic</title>
  <path d="M91,32a2.988,2.988,0,0,0-1.431-2.25,1.55,1.55,0,0,1-.289-2.2,2.988,2.988,0,0,0,.8-2.543,2.988,2.988,0,0,0-1.964-1.8,1.55,1.55,0,0,1-.847-2.046,2.988,2.988,0,0,0,.114-2.664,2.993,2.993,0,0,0-2.371-1.234,1.55,1.55,0,0,1-1.349-1.759,2.983,2.983,0,0,0-.571-2.6,2.983,2.983,0,0,0-2.6-.571,1.55,1.55,0,0,1-1.759-1.349A2.993,2.993,0,0,0,77.5,8.617a2.988,2.988,0,0,0-2.664.114,1.55,1.55,0,0,1-2.046-.847,2.988,2.988,0,0,0-1.8-1.964,2.988,2.988,0,0,0-2.543.8,1.55,1.55,0,0,1-2.2-.289,2.484,2.484,0,0,0-4.5,0,1.55,1.55,0,0,1-2.2.289,2.988,2.988,0,0,0-2.543-.8,2.988,2.988,0,0,0-1.8,1.964,1.55,1.55,0,0,1-2.046.847A2.988,2.988,0,0,0,50.5,8.617a2.993,2.993,0,0,0-1.234,2.371,1.55,1.55,0,0,1-1.759,1.349,2.983,2.983,0,0,0-2.6.571,2.983,2.983,0,0,0-.571,2.6,1.55,1.55,0,0,1-1.349,1.759A2.993,2.993,0,0,0,40.617,18.5a2.988,2.988,0,0,0,.114,2.664,1.55,1.55,0,0,1-.847,2.046,2.988,2.988,0,0,0-1.964,1.8,2.988,2.988,0,0,0,.8,2.543,1.55,1.55,0,0,1-.289,2.2A2.988,2.988,0,0,0,37,32a2.988,2.988,0,0,0,1.431,2.25,1.55,1.55,0,0,1,.289,2.2,2.988,2.988,0,0,0-.8,2.543,2.988,2.988,0,0,0,1.964,1.8,1.55,1.55,0,0,1,.847,2.046,2.988,2.988,0,0,0-.114,2.664,2.993,2.993,0,0,0,2.371,1.234,1.55,1.55,0,0,1,1.349,1.759,2.468,2.468,0,0,0,3.17,3.17,1.55,1.55,0,0,1,1.759,1.349A2.993,2.993,0,0,0,50.5,55.383a2.988,2.988,0,0,0,2.664-.114,1.55,1.55,0,0,1,2.046.847,2.988,2.988,0,0,0,1.8,1.964,2.988,2.988,0,0,0,2.543-.8,1.55,1.55,0,0,1,2.2.289,2.484,2.484,0,0,0,4.5,0,1.55,1.55,0,0,1,2.2-.289,2.484,2.484,0,0,0,4.346-1.164,1.55,1.55,0,0,1,2.046-.847,2.485,2.485,0,0,0,3.9-2.257,1.55,1.55,0,0,1,1.759-1.349,2.468,2.468,0,0,0,3.17-3.17,1.55,1.55,0,0,1,1.349-1.759A2.993,2.993,0,0,0,87.383,45.5a2.988,2.988,0,0,0-.114-2.664,1.55,1.55,0,0,1,.847-2.046,2.988,2.988,0,0,0,1.964-1.8,2.988,2.988,0,0,0-.8-2.543,1.55,1.55,0,0,1,.289-2.2A2.988,2.988,0,0,0,91,32ZM64,55A23,23,0,1,1,87,32,23,23,0,0,1,64,55Z"/>
  <path d="M64,12A20,20,0,1,1,44,32,20.023,20.023,0,0,1,64,12m0-1A21,21,0,1,0,85,32,21,21,0,0,0,64,11h0Z"/>
  <polygon points="60.84 42.313 51.168 32.641 54.256 29.552 60.84 36.135 73.744 23.232 76.832 26.32 60.84 42.313"/>
</svg>
