<svg xmlns="http://www.w3.org/2000/svg" viewBox="0 0 128 64">
  <g>
    <g opacity="0.25">
      <polygon points="89 57.377 89 30.5 66.641 43.915 89 57.377"/>
      <polygon points="84 57.5 39 30.5 39 57.5 84 57.5"/>
      <g>
        <polygon points="66.976 12 64.086 12 61.086 15 63.976 15 66.976 12"/>
        <polygon points="49.086 15 51.976 15 54.976 12 52.086 12 49.086 15"/>
        <polygon points="60.976 12 58.086 12 55.086 15 57.976 15 60.976 12"/>
        <polygon points="72.976 12 70.086 12 67.086 15 69.976 15 72.976 12"/>
        <polygon points="79.086 15 82 15 82 12.086 79.086 15"/>
        <polygon points="48.976 12 46 12 46 14.976 48.976 12"/>
        <polygon points="78.976 12 76.086 12 73.086 15 75.976 15 78.976 12"/>
      </g>
      <circle cx="53.5" cy="26" r="1.5"/>
      <circle cx="74.5" cy="26" r="1.5"/>
    </g>
    <path d="M84,18.267V8a2,2,0,0,0-2-2H46a2,2,0,0,0-2,2V18.267a1,1,0,0,1-.486.857l-4.543,2.726A2,2,0,0,0,38,23.566V56a2,2,0,0,0,2,2H88a2,2,0,0,0,2-2V23.566a2,2,0,0,0-.971-1.715l-4.543-2.726A1,1,0,0,1,84,18.267ZM47,8H81a1,1,0,0,1,1,1V29.468a1,1,0,0,1-.486.857L65.543,39.908a3,3,0,0,1-3.087,0L46.486,30.325A1,1,0,0,1,46,29.468V9A1,1,0,0,1,47,8ZM40.486,23.275l2.757-1.654a.5.5,0,0,1,.757.429v5.9a.5.5,0,0,1-.757.429l-2.757-1.654A1,1,0,0,1,40,25.868V24.133A1,1,0,0,1,40.486,23.275ZM40,55V30.532a1,1,0,0,1,1.514-.857l42.327,25.4a.5.5,0,0,1-.257.929H41A1,1,0,0,1,40,55Zm46.486-.675L67.373,42.857a1,1,0,0,1,0-1.715L86.486,29.675A1,1,0,0,1,88,30.532V53.468A1,1,0,0,1,86.486,54.325Zm1.029-27.6-2.757,1.654A.5.5,0,0,1,84,27.951v-5.9a.5.5,0,0,1,.757-.429l2.757,1.654a1,1,0,0,1,.486.857v1.735A1,1,0,0,1,87.514,26.725Z"/>
    <g opacity="0.25">
      <circle cx="95" cy="15" r="1"/>
      <circle cx="33" cy="48" r="1"/>
      <circle cx="18" cy="24" r="1"/>
      <path d="M94,38a3,3,0,1,1,3,3A3,3,0,0,1,94,38Zm2,0a1,1,0,1,0,1-1A1,1,0,0,0,96,38Z"/>
      <path d="M101.134,24.5a1,1,0,0,1,0-1l3.464-6a1.04,1.04,0,0,1,1.732,0l3.464,6a1,1,0,0,1-.866,1.5H102A1,1,0,0,1,101.134,24.5Zm5.629-2.25-.866-1.5a.5.5,0,0,0-.866,0l-.866,1.5a.5.5,0,0,0,.433.75h1.731A.5.5,0,0,0,106.762,22.25Z"/>
      <path d="M22,40V34a1,1,0,0,1,1-1h6a1,1,0,0,1,1,1v6a1,1,0,0,1-1,1H23A1,1,0,0,1,22,40Zm6-2V36a1,1,0,0,0-1-1H25a1,1,0,0,0-1,1v2a1,1,0,0,0,1,1h2A1,1,0,0,0,28,38Z"/>
      <path d="M26,15h1.5a.5.5,0,0,0,.5-.5V13a1,1,0,0,1,2,0v1.5a.5.5,0,0,0,.5.5H32a1,1,0,0,1,0,2H30.5a.5.5,0,0,0-.5.5V19a1,1,0,0,1-2,0V17.5a.5.5,0,0,0-.5-.5H26a1,1,0,0,1,0-2Z"/>
    </g>
    <g>
      <circle cx="57" cy="23" r="2"/>
      <circle cx="71" cy="23" r="2"/>
      <path d="M64,28.6A2.6,2.6,0,0,1,61.4,26a.6.6,0,1,1,1.2,0,1.4,1.4,0,0,0,2.8,0,.6.6,0,1,1,1.2,0A2.6,2.6,0,0,1,64,28.6Z"/>
    </g>
  </g>
</svg>
