<svg xmlns="http://www.w3.org/2000/svg" viewBox="0 0 128 64">
  <path d="M56,22.187a1,1,0,0,1,1-1H97a1,1,0,0,1,1,1v24a1,1,0,0,1-1,1H93.673A2,2,0,0,0,91.7,48.834l-0.71,3.954-5.418-5.062a2,2,0,0,0-1.365-.539H57a1,1,0,0,1-1-1v-24Zm0-3a2,2,0,0,0-2,2v26a2,2,0,0,0,2,2H84.149a1,1,0,0,1,.7.281l6.045,5.847a1,1,0,0,0,1.673-.51l1.029-4.827a1,1,0,0,1,.978-0.791H98a2,2,0,0,0,2-2v-26a2,2,0,0,0-2-2H56Z"/>
  <path d="M43.424,40.726l-5.418,5.062L37.3,41.834a2,2,0,0,0-1.968-1.647H32a1,1,0,0,1-1-1v-26a1,1,0,0,1,1-1H70a1,1,0,0,1,1,1v6h2v-7a2,2,0,0,0-2-2H31a2,2,0,0,0-2,2v28a2,2,0,0,0,2,2h3.43a1,1,0,0,1,.978.791l1.029,4.827a1,1,0,0,0,1.673.51l6.045-5.847a1,1,0,0,1,.7-0.281H55v-2H44.789A2,2,0,0,0,43.424,40.726Z"/>
  <path d="M54,41.187v-20a2,2,0,0,1,2-2H71v-2H54a2,2,0,0,0-2,2v22h2Z" opacity="0.25"/>
  <path d="M91.492,29.187H62.508a0.5,0.5,0,0,1-.508-0.5v-1a0.5,0.5,0,0,1,.508-0.5H91.492a0.5,0.5,0,0,1,.508.5v1A0.5,0.5,0,0,1,91.492,29.187Z"/>
  <path d="M91.492,35.187H62.508a0.5,0.5,0,0,1-.508-0.5v-1a0.5,0.5,0,0,1,.508-0.5H91.492a0.5,0.5,0,0,1,.508.5v1A0.5,0.5,0,0,1,91.492,35.187Z"/>
  <path d="M85.39,41.187H62.508a0.5,0.5,0,0,1-.508-0.5v-1a0.5,0.5,0,0,1,.508-0.5H85.39a0.5,0.5,0,0,1,.508.5v1A0.5,0.5,0,0,1,85.39,41.187Z"/>
  <g opacity="0.25">
    <circle cx="37.036" cy="11.187" r="1"/>
    <circle cx="23" cy="35.187" r="1"/>
    <circle cx="107" cy="41.187" r="1"/>
    <path d="M20,24.187a3,3,0,1,1,3-3A3,3,0,0,1,20,24.187Zm0-4a1,1,0,1,0,1,1A1,1,0,0,0,20,20.187Z"/>
    <path d="M108,16.152h-6.928a1,1,0,0,1-.866-1.5l3.464-6a1.04,1.04,0,0,1,1.732,0l3.464,6A1,1,0,0,1,108,16.152Zm-4.329-2H105.4a0.5,0.5,0,0,0,.433-0.75l-0.866-1.5a0.5,0.5,0,0,0-.866,0l-0.866,1.5A0.5,0.5,0,0,0,103.671,14.152Z"/>
    <path d="M21,50.187H15a1,1,0,0,1-1-1v-6a1,1,0,0,1,1-1h6a1,1,0,0,1,1,1v6A1,1,0,0,1,21,50.187Zm-4-2h2a1,1,0,0,0,1-1v-2a1,1,0,0,0-1-1H17a1,1,0,0,0-1,1v2A1,1,0,0,0,17,48.187Z"/>
    <path d="M121,26.187h-1.5a0.5,0.5,0,0,1-.5-0.5v-1.5a1,1,0,0,0-2,0v1.5a0.5,0.5,0,0,1-.5.5H115a1,1,0,0,0,0,2h1.5a0.5,0.5,0,0,1,.5.5v1.5a1,1,0,1,0,2,0v-1.5a0.5,0.5,0,0,1,.5-0.5H121A1,1,0,0,0,121,26.187Z"/>
  </g>
</svg>
