<svg xmlns="http://www.w3.org/2000/svg" viewBox="0 0 128 64">
  <title>pic_drive</title>
  <g>
    <g>
      <path d="M83.017,58.05h-37a4,4,0,0,1-4-4v-43a4,4,0,0,1,4-4h37a4,4,0,0,1,4,4v43A4,4,0,0,1,83.017,58.05Zm-37-49a2,2,0,0,0-2,2v43a2,2,0,0,0,2,2h37a2,2,0,0,0,2-2v-43a2,2,0,0,0-2-2Z"/>
      <path d="M83.017,47.05h-37a4,4,0,0,1-4-4v-5h2v5a2,2,0,0,0,2,2h37a2,2,0,0,0,2-2v-5h2v5A4,4,0,0,1,83.017,47.05Z"/>
      <rect x="49.017" y="50.05" width="2" height="3"/>
      <rect x="53.017" y="50.05" width="2" height="3"/>
      <rect x="57.017" y="50.05" width="2" height="3"/>
      <rect x="61.017" y="50.05" width="2" height="3"/>
      <rect x="77.017" y="50.05" width="3" height="3"/>
      <g opacity="0.2">
        <path d="M55.669,25.146c-.01-.119-.017-.236-.017-.359a4.21,4.21,0,0,1,5.727-3.935A6.89,6.89,0,0,1,73.532,25.3h0A4.99,4.99,0,0,1,72,35.05H56.521a4.988,4.988,0,0,1-.851-9.9Z"/>
      </g>
      <g opacity="0.2">
        <path d="M43.2,45.591H85.825v8.25s-.937,3.25-3.062,3.313-37-.125-37-.125-2.812-1.562-2.875-3.375S43.2,45.591,43.2,45.591Z"/>
      </g>
    </g>
    <g opacity="0.25">
      <circle cx="101.017" cy="30.05" r="1"/>
      <circle cx="32.017" cy="14.05" r="1"/>
      <circle cx="23.017" cy="35.05" r="1"/>
      <path d="M28.017,41.05a3,3,0,1,1,3,3A3,3,0,0,1,28.017,41.05Zm2,0a1,1,0,1,0,1-1A1,1,0,0,0,30.017,41.05Z"/>
      <path d="M103.15,44.514a1,1,0,0,1,0-1l3.464-6a1.04,1.04,0,0,1,1.732,0l3.464,6a1,1,0,0,1-.866,1.5h-6.928A1,1,0,0,1,103.15,44.514Zm5.629-2.25-.866-1.5a.5.5,0,0,0-.866,0l-.866,1.5a.5.5,0,0,0,.433.75h1.731A.5.5,0,0,0,108.779,42.264Z"/>
      <path d="M16.017,22.05v-6a1,1,0,0,1,1-1h6a1,1,0,0,1,1,1v6a1,1,0,0,1-1,1h-6A1,1,0,0,1,16.017,22.05Zm6-2v-2a1,1,0,0,0-1-1h-2a1,1,0,0,0-1,1v2a1,1,0,0,0,1,1h2A1,1,0,0,0,22.017,20.05Z"/>
      <path d="M102.017,19.05h1.5a.5.5,0,0,0,.5-.5v-1.5a1,1,0,1,1,2,0v1.5a.5.5,0,0,0,.5.5h1.5a1,1,0,0,1,0,2h-1.5a.5.5,0,0,0-.5.5v1.5a1,1,0,1,1-2,0v-1.5a.5.5,0,0,0-.5-.5h-1.5a1,1,0,0,1,0-2Z"/>
    </g>
  </g>
</svg>
