<svg xmlns="http://www.w3.org/2000/svg" viewBox="0 0 128 64">
  <g opacity="0.25">
    <circle cx="108" cy="26" r="1"/>
    <circle cx="86" cy="14" r="1"/>
    <circle cx="18" cy="24" r="1"/>
    <path d="M95,22a3,3,0,1,1,3,3A3,3,0,0,1,95,22Zm2,0a1,1,0,1,0,1-1A1,1,0,0,0,97,22Z"/>
    <path d="M84.67,37.5a1,1,0,0,1,0-1l3.464-6a1.04,1.04,0,0,1,1.732,0l3.464,6a1,1,0,0,1-.866,1.5H85.536A1,1,0,0,1,84.67,37.5ZM90.3,35.25l-0.866-1.5a0.5,0.5,0,0,0-.866,0L87.7,35.25a0.5,0.5,0,0,0,.433.75h1.731A0.5,0.5,0,0,0,90.3,35.25Z"/>
    <path d="M33,39V33a1,1,0,0,1,1-1h6a1,1,0,0,1,1,1v6a1,1,0,0,1-1,1H34A1,1,0,0,1,33,39Zm6-2V35a1,1,0,0,0-1-1H36a1,1,0,0,0-1,1v2a1,1,0,0,0,1,1h2A1,1,0,0,0,39,37Z"/>
    <path d="M27,18h1.5a0.5,0.5,0,0,0,.5-0.5V16a1,1,0,0,1,2,0v1.5a0.5,0.5,0,0,0,.5.5H33a1,1,0,0,1,0,2H31.5a0.5,0.5,0,0,0-.5.5V22a1,1,0,0,1-2,0V20.5a0.5,0.5,0,0,0-.5-0.5H27A1,1,0,0,1,27,18Z"/>
  </g>
  <g opacity="0.25">
    <path d="M85,58H43a2,2,0,0,1-2-2H87A2,2,0,0,1,85,58Z"/>
    <path d="M81,52H47a2,2,0,0,1-2-2H83A2,2,0,0,1,81,52Z"/>
    <path d="M68.047,44a9.854,9.854,0,0,1-8.338-4.49c0.068,0.18.117,0.364,0.2,0.543A9.989,9.989,0,0,0,63.052,44H49a2,2,0,0,0,2,2H77a2,2,0,0,0,2-2H68.047Z"/>
  </g>
  <path d="M85,52H84.444A3.953,3.953,0,0,0,85,50a4,4,0,0,0-4-4H80.445A3.959,3.959,0,0,0,81,44a4,4,0,0,0-4-4H69.047a4,4,0,0,1-2.965-6.686l7.793-8.6A10,10,0,0,0,66.465,8H62.918A8,8,0,0,0,56,4H46V7H42V9h4v6H42v2h4v3H56a8,8,0,0,0,6.918-4h3.547a2,2,0,0,1,1.482,3.343l-7.793,8.6A11.839,11.839,0,0,0,57.732,40H51a4,4,0,0,0-4,4,3.953,3.953,0,0,0,.556,2H47a4,4,0,0,0-4,4,3.953,3.953,0,0,0,.556,2H43a4,4,0,0,0,0,8H85A4,4,0,0,0,85,52ZM56,18H48V6h8A6,6,0,0,1,56,18Zm5.636,11.285,7.794-8.6A4,4,0,0,0,66.465,14H63.737a7.727,7.727,0,0,0,0-4h2.728a8,8,0,0,1,5.929,13.373l-7.793,8.6A6,6,0,0,0,69.047,42H77a2,2,0,0,1,0,4H69.047A10,10,0,0,1,61.636,29.285ZM51,42h7.66a11.88,11.88,0,0,0,3.711,4H51A2,2,0,0,1,51,42Zm-4,6H81a2,2,0,0,1,0,4H47A2,2,0,0,1,47,48ZM85,58H43a2,2,0,0,1,0-4H85A2,2,0,0,1,85,58Z"/>
  <rect x="51" y="6" width="2" height="12"/>
</svg>
