<svg xmlns="http://www.w3.org/2000/svg" viewBox="0 0 32 32">
  <path d="M17.335,11.533a0.782,0.782,0,0,1,.477-0.119C17.9,11.424,17.583,11.941,17.335,11.533ZM14.824,7.949l0.126-.036c0.075,0.064-.084.111-0.059,0.159a0.451,0.451,0,0,1,.009.387c-0.016.1-.121,0.056-0.174,0.108-0.062.077,0.3,0.087,0.306,0.1a0.669,0.669,0,0,0-.355.2A1.253,1.253,0,0,0,15.5,8.66c0.263-.132.034-0.146-0.113-0.222a1.793,1.793,0,0,0-.249-0.793l0.1-.119C15,7.178,14.824,7.949,14.824,7.949ZM30,16A14,14,0,1,1,16,2,14,14,0,0,1,30,16ZM20.3,9.734C20.3,9.564,20.083,9.4,19.859,9.7a3.221,3.221,0,0,0-.215.65c-0.121.2,0.662,0.4,0.662,0.2,0.029-.323.854-0.074,1.015-0.029,0.289,0.08.75-.264,0.246-0.445a0.812,0.812,0,0,1-.67-0.61s0.219-.205.124-0.194C20.767,9.3,20.305,10.19,20.3,9.734ZM27.65,16a11.146,11.146,0,0,0-.417-3.071,0.713,0.713,0,0,0-.419-0.441c-0.3-.117-1.56.7-1.75,0.3-0.125-.267-0.378.17-0.667,0.009a1.973,1.973,0,0,0-.706-0.537c-0.361.13,0.553,1.125,0.8,1.255,0.235-.177.994-0.543,1.157-0.044,0.313,0.938-.86,1.966-1.459,2.507-0.9.81-.728-0.524-1.338-0.994a11.113,11.113,0,0,0-.642-0.951,4.021,4.021,0,0,1-.8-0.948l-0.02.194a0.6,0.6,0,0,1-.368-0.375,3.343,3.343,0,0,0,.745,1.168,10.089,10.089,0,0,0,.873,1.547,5.013,5.013,0,0,0,1.207,1.048c0.225-.02.937-0.534,1.063-0.505,0.751,0.177-1.769,3.739-2.008,4.18a6.147,6.147,0,0,0,.132,1.722,1.332,1.332,0,0,1-.809.944c-0.4.3-.309,0.869-0.649,1.079-0.6.371-1.037,1.579-1.894,1.573-0.252,0-1.33.42-1.471,0.008a6.654,6.654,0,0,0-.412-0.82A6.347,6.347,0,0,0,17.6,24a3.606,3.606,0,0,1-.593-0.79,1.29,1.29,0,0,1,.327-0.826c0.267-.137.051-0.534,0.019-0.765a1.553,1.553,0,0,0-.618-0.993C16.28,20.277,16.514,20,16.621,19.5a0.394,0.394,0,0,0-.464-0.457c-0.658.191-.458-0.513-0.938-0.482a4.448,4.448,0,0,0-.948.341,2.957,2.957,0,0,1-1.216-.146c-1.641-.208-2.177-2.084-1.749-3.437a7.14,7.14,0,0,1-.056-0.8,4.2,4.2,0,0,1,.889-1.183,3.323,3.323,0,0,1,.638-0.267,11.174,11.174,0,0,0,.667-0.911,3.287,3.287,0,0,1,1.713-.453c0.324-.043,1.559-0.31,1.754-0.07,0,0.044.223,0.7-.022,0.667,0.505,0.027,1.225.874,1.7,0.676,0.246-.1.156-0.859,0.662-0.494a2.9,2.9,0,0,0,1.96.081,1.3,1.3,0,0,0,.061-1.191,1.108,1.108,0,0,1-.792.114,1.422,1.422,0,0,1-.5.029c0.135,0.064-.754-0.413-0.254-0.778-0.209.153-.4-0.043-0.629,0.125-0.155.126,0.072,0.21-.149,0.32-0.352.179-.618-0.613-0.751-0.7s-1.183-.824-0.9-0.344l0.92,0.916c-0.045.029-.241-0.334-0.241-0.069,0.062-.158.023,0.675-0.121,0.4a0.93,0.93,0,0,0,.007-0.313,1,1,0,0,0-.317-0.264,3.186,3.186,0,0,0-.743-0.675,6.079,6.079,0,0,0-.961.128,2.076,2.076,0,0,0-.209.363,2.356,2.356,0,0,0-.489.25l-0.183.412c-0.079.071-.893,0.339-0.9,0.35a1.879,1.879,0,0,1-.529-0.375,3.559,3.559,0,0,0,.2-1.013c-0.056-.23,1.253.331,1.337-0.274,0.034-.262.054-0.568-0.365-0.613a3.1,3.1,0,0,0,.932-0.42,1.485,1.485,0,0,1,.845-0.516c0.331,0,.26-0.482.413-0.717,0.153,0.062-.082.439,0.1,0.591a1.249,1.249,0,0,1,.571.038c0.121-.063.8-0.026,0.693-0.343s0.059-.228.211-0.3c-0.026.01,0.4-.722,0.469-0.482-0.05-.247-0.491.086-0.645,0.074-0.356-.028-0.205-0.607-0.071-0.776,0.1-.134-0.284-0.3-0.288-0.042a4.682,4.682,0,0,0-.281,1.241c0.126,0.769-.857-0.185-0.944-0.133-0.327.2-.594-0.25-0.425-0.518s0.589-.261.761-0.555A2.322,2.322,0,0,1,17.5,5.9c0.624-.524.8-0.1,1.419-0.048S19.123,6,19.039,6.234s0.334,0.3.477,0.115a3.092,3.092,0,0,0,.348-0.576c0.1-.259,1.051-0.23.39-0.625a10.375,10.375,0,0,0-3.612-.784,1.313,1.313,0,0,0-.678.481c-0.415.344-1.479,1.02-2.071,0.814s-1.9.77-2.109,0.777A0.711,0.711,0,0,1,12.2,5.641a11.155,11.155,0,0,0,1.41-1c-0.054-.21-3.265.959-3.122,1.194,0.069,0.107.349,0.107-.019,0.343a6.974,6.974,0,0,1-.631.935C9.251,7.368,9.214,6.6,8.558,7.587l-1.043.42A11.619,11.619,0,0,0,4.5,14.054a1.59,1.59,0,0,0,.442.327,4.951,4.951,0,0,1,.195,1.051,5.958,5.958,0,0,0,.863,1.375,2.61,2.61,0,0,1,.384,1.384c0.126-.208,1.248.951,1.454,1.192C8.326,19.952,8.7,20.64,7.914,21.2c-0.253.182,0.385,1.317,0.056,1.6l-0.421.109a0.781,0.781,0,0,0,.024,1.146A11.653,11.653,0,0,0,27.65,16ZM14.226,8.584a0.4,0.4,0,0,0,.363-0.257c0.018-.173.051-0.054,0.093-0.117S14.6,8.049,14.553,8.04a0.252,0.252,0,0,0-.174.121L14.3,8.183l-0.079.1,0.009,0.056-0.1.124C14.025,8.563,14.126,8.627,14.226,8.584Z" fill="#a4aab4"/>
</svg>
