<svg xmlns="http://www.w3.org/2000/svg" viewBox="0 0 32 32">
  <path d="M29,22.011a21.453,21.453,0,0,1-1.949,3.639C25.786,27.576,24,29.98,21.791,30c-1.965.017-2.471-1.282-5.136-1.262S13.434,30.017,11.469,30c-2.21-.02-3.9-2.186-5.166-4.108C2.764,20.5,2.392,14.176,4.578,10.815a7.837,7.837,0,0,1,6.3-3.787c2.344,0,3.817,1.286,5.752,1.286,1.878,0,3.023-1.289,5.732-1.289a7.653,7.653,0,0,1,5.762,3.044A6.6,6.6,0,0,0,29,22.011h0ZM20.3,4.872A6.6,6.6,0,0,0,21.768,0a7.11,7.11,0,0,0-4.587,2.468,6.115,6.115,0,0,0-1.5,4.751A5.991,5.991,0,0,0,20.3,4.872h0Z" fill="#949494" fill-rule="evenodd"/>
</svg>
