<svg xmlns="http://www.w3.org/2000/svg" viewBox="0 0 32 32">
  <title>win</title>
  <path d="M3.066,15.82c6.192-2.55,9.189-1.19,11.873.633l-3.1,10.653C9.145,25.295,6.216,23.8,0,26.374L3.03,15.835l0.036-.015h0Z" fill="#00b4f1"/>
  <path d="M16.563,17.482c2.691,1.811,5.444,3.139,11.771.975L25.381,28.73c-6.21,2.568-9.191,1.114-11.88-.708l3.062-10.539h0Z" fill="#ffc300"/>
  <path d="M15.455,14.532a10.113,10.113,0,0,0-5.84-2.13,15.933,15.933,0,0,0-6.049,1.472l3.06-10.6c6.212-2.569,9.2-1.113,11.889.708l-3.06,10.554h0Z" fill="#f8682c"/>
  <path d="M32,5.776C25.8,8.34,22.815,6.9,20.129,5.089L17.069,15.7c2.683,1.82,5.927,3.312,11.875.651L32,5.776h0Z" fill="#91c300"/>
</svg>
