<svg xmlns="http://www.w3.org/2000/svg" viewBox="0 0 32 32">
  <title>icon_color-icon_python</title>
  <g>
    <path d="M8.5,19.5a4,4,0,0,1,4-4h7a3,3,0,0,0,3-3V6.375C22.5,3.267,20.331,2,15.75,2,10.57,2,9,3.433,9,4.917V8h7V9H6.667C3.167,9,2,12.5,2,16s1.167,7,4.667,7H8.5ZM12.188,6.453a1.25,1.25,0,1,1,1.25-1.25A1.25,1.25,0,0,1,12.188,6.453Z" fill="#386e99"/>
    <path d="M25.333,9H23.5v3.5a4,4,0,0,1-4,4h-7a3,3,0,0,0-3,3v6.125C9.5,28.733,11.669,30,16.25,30,21.43,30,23,28.567,23,27.083V24H16V23h9.333C28.833,23,30,19.5,30,16S28.833,9,25.333,9ZM19.812,25.547a1.25,1.25,0,1,1-1.25,1.25A1.25,1.25,0,0,1,19.812,25.547Z" fill="#ffd845"/>
  </g>
</svg>
