<svg xmlns="http://www.w3.org/2000/svg" viewBox="0 0 32 32">
  <title>color-icon_weblogic</title>
  <g>
    <path d="M21.33,3H10.671a9.17,9.17,0,1,0,0,18.339l10.66,0A9.171,9.171,0,0,0,21.33,3Zm-.237,15.108H10.907a5.938,5.938,0,0,1,0-11.876H21.093a5.937,5.937,0,0,1,0,11.875Z" fill="#ea1b22"/>
    <g>
      <path d="M1.231,24.668,1.9,27.912l.845-3.244H3.8l.761,3.244.7-3.244h.888L5.045,29H4.014l-.786-3.31L2.383,29H1.328L.272,24.668Z" fill="#ea1b22"/>
      <path d="M6.626,24.649h2.9v.708H7.555v1.031H9.4V27.1H7.555v1.169H9.594v.72H6.626Z" fill="#ea1b22"/>
      <path d="M10.256,24.655h1.619a2.14,2.14,0,0,1,1.067.2,1.086,1.086,0,0,1,.486.924.862.862,0,0,1-.252.647,1.171,1.171,0,0,1-.492.294v.012a1.036,1.036,0,0,1,.917,1.056,1.116,1.116,0,0,1-.636,1.02,2.781,2.781,0,0,1-1.091.174H10.256Zm.888,1.764h.647c.264,0,.744,0,.744-.558,0-.54-.456-.54-.762-.54h-.629Zm0,1.871h.629c.426,0,.906,0,.906-.582,0-.617-.558-.617-1-.617h-.534Z" fill="#ea1b22"/>
      <path d="M14.264,24.655h.948v3.593H17.07v.737H14.264Z" fill="#ea1b22"/>
      <path d="M19.219,24.559a2.01,2.01,0,0,1,1.523.588,2.49,2.49,0,0,1,.552,1.631,2.663,2.663,0,0,1-.546,1.7,2.061,2.061,0,0,1-1.541.618,2.1,2.1,0,0,1-1.535-.594,2.381,2.381,0,0,1-.534-1.619A2.038,2.038,0,0,1,19.219,24.559Zm-.785,3.5a1.038,1.038,0,0,0,1.595-.054,2.091,2.091,0,0,0,.294-1.241,2.5,2.5,0,0,0-.108-.773,1,1,0,0,0-.989-.768.985.985,0,0,0-.8.365,2.016,2.016,0,0,0-.318,1.26A1.993,1.993,0,0,0,18.434,28.061Z" fill="#ea1b22"/>
      <path d="M24.876,25.981a.82.82,0,0,0-.12-.438.832.832,0,0,0-.726-.336c-1.055,0-1.265.983-1.265,1.649a1.749,1.749,0,0,0,.36,1.163,1.235,1.235,0,0,0,1.019.372,2.093,2.093,0,0,0,.708-.084V27.4h-.84v-.72h1.769v2.165a4.472,4.472,0,0,1-1.583.239,2.42,2.42,0,0,1-1.841-.575,2.252,2.252,0,0,1-.576-1.619,2.151,2.151,0,0,1,2.272-2.356,1.953,1.953,0,0,1,1.475.545,1.319,1.319,0,0,1,.312.906Z" fill="#ea1b22"/>
      <path d="M26.582,24.637h.929v4.348h-.929Z" fill="#ea1b22"/>
      <path d="M30.745,26.065c-.018-.15-.072-.762-.7-.762-.689,0-.978.72-.978,1.612,0,.259,0,1.487.906,1.487a.761.761,0,0,0,.779-.821h.978a1.484,1.484,0,0,1-.39,1.02,1.7,1.7,0,0,1-1.266.485,1.918,1.918,0,0,1-1.979-2.177,2.015,2.015,0,0,1,1.985-2.284,1.459,1.459,0,0,1,1.613,1.439Z" fill="#ea1b22"/>
    </g>
  </g>
</svg>
