<svg xmlns="http://www.w3.org/2000/svg" viewBox="0 0 32 32">
  <title>color-icon_php</title>
  <path d="M16,8.652C7.992,8.652,1.5,11.942,1.5,16S7.992,23.348,16,23.348,30.5,20.058,30.5,16,24.008,8.652,16,8.652Zm-3.773,8.78a2.835,2.835,0,0,1-1.153.6,5.68,5.68,0,0,1-1.617.109H7.973l-.411,2.373H5.829l1.546-8.07h3.332a2.776,2.776,0,0,1,2.193.815,2.5,2.5,0,0,1,.415,2.216,3.49,3.49,0,0,1-1.088,1.961Zm5.058.7.684-3.422a1.015,1.015,0,0,0-.086-.844,1.193,1.193,0,0,0-.863-.243H15.646l-.886,4.509H13.041L14.588,10.3h1.719L15.9,12.44h1.532a2.967,2.967,0,0,1,1.994.53,1.509,1.509,0,0,1,.329,1.549l-.719,3.617Zm9.555-2.653a3.457,3.457,0,0,1-1.088,1.949,2.836,2.836,0,0,1-1.153.6,5.681,5.681,0,0,1-1.617.109H21.5l-.411,2.373H19.354L20.9,12.44h3.332a2.776,2.776,0,0,1,2.193.815A2.532,2.532,0,0,1,26.84,15.483Zm-3.264-1.856H22.389l-.647,3.323H22.8a2.573,2.573,0,0,0,1.561-.332,2.009,2.009,0,0,0,.693-1.287,1.547,1.547,0,0,0-.157-1.3,1.76,1.76,0,0,0-1.317-.408Zm-13.525,0H8.864l-.647,3.323H9.27a2.574,2.574,0,0,0,1.561-.332,2.009,2.009,0,0,0,.692-1.287,1.547,1.547,0,0,0-.157-1.3,1.758,1.758,0,0,0-1.316-.408Z" fill="#777bb3"/>
</svg>
