<svg xmlns="http://www.w3.org/2000/svg" viewBox="0 0 32 32">
  <title>ie</title>
  <path d="M23.641,17.836h7.28A14.112,14.112,0,0,0,31,16.288a13.541,13.541,0,0,0-1.822-6.8c1.2-3.187,1.157-5.893-.448-7.512C27.2,0.458,23.107.7,18.476,2.757c-0.343-.026-0.688-0.038-1.037-0.038A13.577,13.577,0,0,0,4.278,12.992a18.885,18.885,0,0,1,6.891-5.755c-0.255.237-1.74,1.718-1.992,1.967C1.794,16.593-.535,26.248,1.97,28.758c1.9,1.906,5.358,1.583,9.325-.361a13.564,13.564,0,0,0,18.976-7.711H22.935a5.956,5.956,0,0,1-11.206-2.829V17.833l11.912,0h0Zm-11.9-3.58a5.707,5.707,0,0,1,11.4,0H11.74ZM28.662,3.487c1.034,1.047,1.008,2.97.123,5.371a13.612,13.612,0,0,0-6.316-5.175c2.78-1.193,5.039-1.352,6.193-.2h0ZM3.883,28.283c-1.318-1.319-.923-4.093.779-7.433a13.622,13.622,0,0,0,5.777,7.072c-2.944,1.337-5.353,1.563-6.557.361h0Z" fill="#1fbaee" fill-rule="evenodd"/>
</svg>
