<svg xmlns="http://www.w3.org/2000/svg" viewBox="0 0 32 32">
  <path d="M11.126,18.813a5.14,5.14,0,0,0,1.256,3.525A5.759,5.759,0,0,0,13.76,23.51a8.167,8.167,0,0,0,1.678.811,10.326,10.326,0,0,0,1.852.478,11.872,11.872,0,0,0,1.9.155,12.6,12.6,0,0,0,2.241-.187,16.209,16.209,0,0,0,2.062-.525,18.252,18.252,0,0,0,1.978-.783c.656-.3,1.322-.628,2.006-.994v6.356a22.557,22.557,0,0,1-2.264.961,23.159,23.159,0,0,1-2.264.675,17.547,17.547,0,0,1-2.33.412A23.012,23.012,0,0,1,18.171,31a13.566,13.566,0,0,1-3.258-.389A12.771,12.771,0,0,1,11.969,29.5a12.336,12.336,0,0,1-2.522-1.772A11.2,11.2,0,0,1,7.479,25.38,11.362,11.362,0,0,1,6.2,22.54a11.7,11.7,0,0,1-.445-3.262,12.139,12.139,0,0,1,.506-3.525,11.2,11.2,0,0,1,3.783-5.583,12.275,12.275,0,0,1,3.084-1.781,6.508,6.508,0,0,0-1.453,2.217,9.589,9.589,0,0,0-.67,2.569H21.686a10.753,10.753,0,0,0-.328-2.822,4.712,4.712,0,0,0-1.064-2.006,4.429,4.429,0,0,0-1.889-1.2,8.61,8.61,0,0,0-2.8-.4,13.313,13.313,0,0,0-3.867.577A16.275,16.275,0,0,0,8.065,8.914a17.806,17.806,0,0,0-3.206,2.428A15.142,15.142,0,0,0,2.4,14.379a17.5,17.5,0,0,1,.811-3.642A15.5,15.5,0,0,1,4.732,7.5,14.507,14.507,0,0,1,6.907,4.812,12.96,12.96,0,0,1,9.673,2.75,14,14,0,0,1,12.94,1.428,16.75,16.75,0,0,1,16.671,1a13.078,13.078,0,0,1,2.3.206A16.279,16.279,0,0,1,21.2,1.78,13.148,13.148,0,0,1,27.93,6.912a13.718,13.718,0,0,1,1.762,3.83,15.546,15.546,0,0,1,.609,4.345v3.726Z" fill="#0078d7"/>
</svg>
