<svg xmlns="http://www.w3.org/2000/svg" viewBox="0 0 32 32">
  <title>color-icon_tomcat</title>
  <g>
    <g>
      <path d="M6.192,19.353q.512.631,1.138,1.276a5.132,5.132,0,0,0-2.509,1.644,4.714,4.714,0,0,0-1.107,3.278H1.62A30.013,30.013,0,0,1,6.192,19.353Zm24.245,6.77H27.892c-5.838-3.047-10.964-5.195-16.409-5.664a10.545,10.545,0,0,1,.406-2.571l-.5-.135a11.14,11.14,0,0,0-.422,2.667q-.851-.057-1.715-.057a7.045,7.045,0,0,0-1.339.123,18.288,18.288,0,0,1-1.363-1.512A23.2,23.2,0,0,1,16.8,13.1a12.391,12.391,0,0,0,5.83,7.231c.194-.111.384-.226.571-.348l4.607,4.96.2-.017a2.569,2.569,0,0,1,2.162.786A1.453,1.453,0,0,1,30.437,26.123Z" fill="#d1a41a"/>
      <path d="M28.189,9.534a11.138,11.138,0,0,1-5.511,10.087C17.13,16.858,16.085,9.853,17.031,6.1c.263,1.437.741,2.337,1.775,2.779a15.5,15.5,0,0,1,7.638-.066,4.254,4.254,0,0,0,1.522-2.673A20.393,20.393,0,0,1,28.189,9.534Z" fill="#ffdc76"/>
    </g>
    <path d="M14.232,13.867l.847,2.509-2.571-1.725Zm-2.477,1.1.909,1.568-1.913-.972Zm-2.07,1.223.439,1.568-1.317-.909ZM23.7,20.39l-.815,1.254,1.442-.659Zm1.286,1.442-1.317,1,1.819-.47Zm-3.2-13.609.972,2.132.627-2.164Zm-4.923,3.1,1.537.815-1.38.094Zm.376,1.662.941.376-.784.22Zm10.975-1.066-1.254.533L28,12.613Zm-.5,1.536-.972.282.784.282Z"/>
    <path d="M16.361,15.813h3.026v.374H16.361Zm0-.9h3.026v.374H16.361Zm9.241.9h3.026v.374H25.6Zm0-.9h3.026v.374H25.6ZM24.535,12.7H19.6v-.336h1.535a3.119,3.119,0,0,0,0-1.975.452.452,0,0,0-.424-.245,1.48,1.48,0,0,0-1.255.967h0l-.315-.118a1.814,1.814,0,0,1,1.57-1.185.789.789,0,0,1,.714.412,3.266,3.266,0,0,1,.057,2.144h2.693a2.186,2.186,0,0,1,2.353-1.547v.336a1.813,1.813,0,0,0-2,1.211H26l0,.335Zm.221,1.661h0A1.851,1.851,0,0,1,24.4,12.7l-.343,0a1.882,1.882,0,0,0,.222,1.446H20.858A8.014,8.014,0,0,0,21.4,12.7h-.348a7.1,7.1,0,0,1-.619,1.531l-.08.14,1.92,1.209-1.081.712.185.281,1.208-.8,1.3.851.179-.285L22.86,15.6s1.808-1.175,1.9-1.232Zm-2.175,1.016-1.42-.894h2.776l-1.355.894Z"/>
    <path d="M30.555,25.36a3.591,3.591,0,0,0-2.618-.917c-.662-.788-4.5-4.827-4.5-4.827l-.266.335L27.8,24.936l.2-.017a2.574,2.574,0,0,1,2.163.786,1.466,1.466,0,0,1,.268.408H27.891c-5.838-3.046-10.964-5.194-16.409-5.663a10.6,10.6,0,0,1,.406-2.571l-.5-.136a11.168,11.168,0,0,0-.422,2.668q-.851-.056-1.714-.057a7.006,7.006,0,0,0-1.339.124,18.469,18.469,0,0,1-1.363-1.512,23.167,23.167,0,0,1,10.324-5.892l-.117-.507A23.854,23.854,0,0,0,6.217,18.537,8.109,8.109,0,0,1,4.547,14.9a3.946,3.946,0,0,1,.807-3.1c1.084-1.346,2.623-1.441,4.206-1.175a.972.972,0,0,0,.1.637c.419.618,2.669.836,4.012.236-.991-1.389-3-2.067-3.555-1.8a.952.952,0,0,0-.419.448,8.922,8.922,0,0,0-1.488-.168,3.967,3.967,0,0,0-3.263,1.491,4.452,4.452,0,0,0-.917,3.5,8.755,8.755,0,0,0,1.825,3.943q-.257.276-.5.545C2.841,22.279,1,25.3,1,25.8v.259H4.323l-.058-.308A4.054,4.054,0,0,1,5.219,22.6a4.66,4.66,0,0,1,2.533-1.552A34.274,34.274,0,0,0,11.867,24.4h2.47v-.259a.848.848,0,0,0-.409-.721,1.842,1.842,0,0,0-1.545-.1,3.77,3.77,0,0,1-.887-2.346c5.359.475,10.485,2.639,16.269,5.66h3.182l.042-.209a1.357,1.357,0,0,0-.433-1.064ZM4.82,22.265a4.714,4.714,0,0,0-1.107,3.278H1.62a30.108,30.108,0,0,1,4.571-6.2q.511.632,1.138,1.277A5.13,5.13,0,0,0,4.82,22.265Z"/>
    <path d="M28.235,5.393A5.568,5.568,0,0,0,25.3,8a18.2,18.2,0,0,0-5.579.07c-.3-1.229-1.779-2.17-2.9-2.7A8.968,8.968,0,0,0,16.2,9.32l-.006,0a12.584,12.584,0,0,0,6.434,11,12.375,12.375,0,0,0,6.123-11.2l0,0A15.045,15.045,0,0,0,28.235,5.393Zm-.046,4.133a11.139,11.139,0,0,1-5.511,10.087c-5.549-2.765-6.594-9.768-5.648-13.525.263,1.436.741,2.337,1.775,2.779A15.491,15.491,0,0,1,26.443,8.8a4.253,4.253,0,0,0,1.523-2.673A20.283,20.283,0,0,1,28.189,9.526Z"/>
  </g>
</svg>
