<svg xmlns="http://www.w3.org/2000/svg" viewBox="0 0 32 32">
  <g>
    <path d="M16,29.531a2.079,2.079,0,0,1-1.04-.278l-3.311-1.959c-.494-.277-.253-.375-.09-.431a6.6,6.6,0,0,0,1.5-.681.254.254,0,0,1,.246.019l2.544,1.51a.327.327,0,0,0,.307,0l9.917-5.724a.313.313,0,0,0,.152-.268V10.273A.32.32,0,0,0,26.066,10L16.152,4.281a.311.311,0,0,0-.306,0L5.936,10a.319.319,0,0,0-.157.272V21.718a.3.3,0,0,0,.156.265l2.717,1.57c1.474.737,2.377-.131,2.377-1V11.25a.285.285,0,0,1,.288-.286h1.258a.286.286,0,0,1,.287.286v11.3c0,1.967-1.071,3.1-2.937,3.1a4.243,4.243,0,0,1-2.284-.621l-2.6-1.5A2.1,2.1,0,0,1,4,21.718V10.273A2.09,2.09,0,0,1,5.04,8.466l9.917-5.731a2.173,2.173,0,0,1,2.084,0l9.917,5.731A2.093,2.093,0,0,1,28,10.273V21.718a2.1,2.1,0,0,1-1.042,1.809l-9.917,5.726A2.08,2.08,0,0,1,16,29.531Z" fill="#80bd01"/>
    <path d="M19.061,21.646c-4.34,0-5.249-1.992-5.249-3.663A.285.285,0,0,1,14.1,17.7h1.282a.287.287,0,0,1,.285.243c.194,1.305.771,1.964,3.4,1.964,2.089,0,2.979-.473,2.979-1.581,0-.639-.252-1.113-3.5-1.431-2.713-.268-4.392-.868-4.392-3.039,0-2,1.687-3.194,4.514-3.194,3.177,0,4.749,1.1,4.948,3.469a.287.287,0,0,1-.286.312H22.039a.286.286,0,0,1-.278-.224c-.309-1.374-1.06-1.813-3.1-1.813-2.281,0-2.546.795-2.546,1.39,0,.721.313.931,3.393,1.339,3.048.4,4.5.973,4.5,3.115C24.005,20.409,22.2,21.646,19.061,21.646Z" fill="#80bd01"/>
  </g>
</svg>
