<svg xmlns="http://www.w3.org/2000/svg" viewBox="0 0 32 32">
  <path d="M30.2,15.992a13.419,13.419,0,0,0-1.688-6.536C33.094-.916,23.6.6,23.072.707a24.144,24.144,0,0,0-5.589,1.826c-.253-.014-.508-.022-.764-.022A13.486,13.486,0,0,0,3.578,12.969c3.376-3.788,5.739-5.316,7.154-5.928A39.48,39.48,0,0,0,.953,21.03c-3.84,13.7,8.132,7.919,9.8,7.055a13.489,13.489,0,0,0,18.669-7.579H22.341a6.225,6.225,0,0,1-5.384,2.97,5.959,5.959,0,0,1-6.15-5.748H30.089a13.611,13.611,0,0,0,.111-1.736ZM27.681,2.726c1.161.784,2.092,2.014.493,6.158A13.526,13.526,0,0,0,21.59,3.419C22.838,2.817,25.928,1.542,27.681,2.726ZM3.009,28.057c-.946-.97-1.113-3.331.974-7.635A13.52,13.52,0,0,0,9.853,27.6c-1.351.743-4.937,2.417-6.844.461Zm7.767-14.016a5.943,5.943,0,0,1,6.092-5.556,5.943,5.943,0,0,1,6.092,5.556H10.776Z" fill="#1ebbee"/>
</svg>
