<svg xmlns="http://www.w3.org/2000/svg" xmlns:xlink="http://www.w3.org/1999/xlink" viewBox="0 0 32 32">
  <defs>
    <radialGradient id="a" cx="76.6" cy="339.097" r="26.846" gradientTransform="translate(-56.11 -296.699) scale(0.941 0.886)" gradientUnits="userSpaceOnUse">
      <stop offset="0" stop-color="#52c4f1"/>
      <stop offset="0.077" stop-color="#45bbec"/>
      <stop offset="0.182" stop-color="#00a9dc"/>
      <stop offset="0.376" stop-color="#2276b8"/>
      <stop offset="0.501" stop-color="#035495"/>
      <stop offset="0.75" stop-color="#1d204e"/>
    </radialGradient>
    <radialGradient id="b" cx="45.096" cy="213.498" r="26.308" gradientTransform="translate(-22.535 -202.082) scale(1 0.981)" gradientUnits="userSpaceOnUse">
      <stop offset="0.119" stop-color="#fff"/>
      <stop offset="0.122" stop-color="#fffffa"/>
      <stop offset="0.25" stop-color="#ffe560"/>
      <stop offset="0.287" stop-color="#ffdf56"/>
      <stop offset="0.347" stop-color="#f8d03b"/>
      <stop offset="0.406" stop-color="#f0be1b"/>
      <stop offset="0.473" stop-color="#eb9d23"/>
      <stop offset="0.548" stop-color="#e57c27"/>
      <stop offset="0.765" stop-color="#dd5626"/>
      <stop offset="0.903" stop-color="#c33a28"/>
      <stop offset="1" stop-color="#b02228"/>
    </radialGradient>
  </defs>
  <path d="M15.962,29.6A13.782,13.782,0,1,0,2.189,15.809h0A13.777,13.777,0,0,0,15.952,29.6h.01Z" fill="url(#a)"/>
  <path d="M26.4,23.987c.792-1.486,1.862-2.36,2.441-3.388.767-1.372,2.229-5.217,1.127-8.328.506,1.943.343,3.919-1.257,4.915a15.035,15.035,0,0,0,.31-7.087A6.876,6.876,0,0,0,26.854,6.27,5.009,5.009,0,0,1,28.03,9.356a11.766,11.766,0,0,0-7.054-5.495,10.65,10.65,0,0,1,4.262,4.556A5.326,5.326,0,0,0,22.5,6.874a9.227,9.227,0,0,1,3.062,7.732,8.329,8.329,0,0,0-1.3-2.057c.441,4.033.057,4.9-.212,5.968a3.564,3.564,0,0,0-.335-1.086,9.026,9.026,0,0,1-.865,3.054c-.621,1.363-1.257,1.78-1.543,1.731a.236.236,0,0,1-.114-.041,1.171,1.171,0,0,0-.008-.482.994.994,0,0,0-.433.327,1.225,1.225,0,0,1-.269.278c-.016.016.188-.261.171-.253a3.386,3.386,0,0,0-.318.294c-.4.416-.767.882-.955.751a.633.633,0,0,0,.351-.5,3.033,3.033,0,0,1-1.453.547,6.339,6.339,0,0,1-4.009-.7,1.779,1.779,0,0,1,1.1.065c-.343-.376-1.184-.3-1.78-.49A5.764,5.764,0,0,1,12,20.747a5.654,5.654,0,0,0,4.278-.563c1-.678,1.584-1.176,2.106-1.053a.507.507,0,0,0,.465-.882,2.758,2.758,0,0,0-2.751-.767c-1.037.261-1.91,1.086-3.364.514a1.966,1.966,0,0,1-.269-.122,1.7,1.7,0,0,0,.2,0,7.128,7.128,0,0,1-.914-.425c-.024-.016.212.041.188.024-1.38-.816-1.29-1.47-1.29-1.87a1.164,1.164,0,0,1,.563-.963,2.931,2.931,0,0,1,.318.139s-.09-.139-.147-.212c.016-.008.024-.008.041-.016a6.149,6.149,0,0,1,.71.286.826.826,0,0,1,.335.253s.057-.041,0-.163a.855.855,0,0,0-.359-.359h.008a2.431,2.431,0,0,1,.416.2,1.955,1.955,0,0,0,.082-.849,1.214,1.214,0,0,0-.106-.457c-.057-.09.016-.122.106-.049a2.136,2.136,0,0,0-.09-.212h0c.073-.351,2.147-1.437,2.3-1.551a1.919,1.919,0,0,0,.572-.686,1.506,1.506,0,0,0,.155-.808c-.016-.269-.171-.433-2.384-.408a1.463,1.463,0,0,1-1.233-.678c-.054-.07-.1-.139-.134-.2a2.043,2.043,0,0,1-.114-.245A4.764,4.764,0,0,1,13.3,6.159c.049-.041-.2.024-.147-.016a5.269,5.269,0,0,1,.474-.253.942.942,0,0,0-.767-.09,2.031,2.031,0,0,0-.686.237c.082-.09.351-.22.286-.212a4.356,4.356,0,0,0-1.38.686.8.8,0,0,1,.008-.131,2.318,2.318,0,0,0-.825.776,1.094,1.094,0,0,0-.008-.163,3.56,3.56,0,0,0-.4.449.008.008,0,0,1-.008.008h0A5.98,5.98,0,0,0,6.54,7.5,3.908,3.908,0,0,1,5.414,6.237c-.033-.049-.033.115-.066.063a4.053,4.053,0,0,1-.425-1.535,1.617,1.617,0,0,0-.588.939c-.041.131-.073.2-.1.278-.008.024.016-.237.008-.212a1.969,1.969,0,0,0-.212.4,1.806,1.806,0,0,0-.1.351.008.008,0,0,1-.008.008.494.494,0,0,0-.016-.155,6.707,6.707,0,0,0-.278.931,7.985,7.985,0,0,0-.155,2.278c0,.082.008.155.008.22a6.5,6.5,0,0,0-.656,1.1,14.66,14.66,0,0,0-1.208,4.074,9.813,9.813,0,0,1,.7-1.584,13.944,13.944,0,0,0-.457,5.184c.008-.082.082-.71.261-1.551a12.741,12.741,0,0,0,1.764,5.862c.98,1.674,3.552,5.56,10.01,7.013a3.1,3.1,0,0,1-1.151-.612,15.167,15.167,0,0,0,4.172.71.814.814,0,0,1-.661-.359s6.262.351,8.426-2.6c-.743.865-2.613,1.11-3.323,1.119,1.078-.988,3.462-.972,6.05-3.511A5.229,5.229,0,0,0,29.132,21.2C28.928,22.493,27.687,23.277,26.4,23.987Z" fill="url(#b)"/>
</svg>
