<svg xmlns="http://www.w3.org/2000/svg" viewBox="0 0 32 32">
  <g>
    <path d="M28.566,9.789A14.038,14.038,0,0,0,4.379,8.161l5.639,9.772a6.265,6.265,0,0,1,5.89-8.143" fill="#df2227"/>
    <path d="M14.906,29.959a14.031,14.031,0,0,0,13.66-20.17H15.908A6.264,6.264,0,0,1,20.8,19.937" fill="#ffce42"/>
    <circle cx="15.971" cy="16.003" r="5.639" fill="#4a8af4"/>
    <path d="M15.971,22.2a6.2,6.2,0,1,1,6.2-6.2A6.209,6.209,0,0,1,15.971,22.2Zm0-11.275A5.074,5.074,0,1,0,21.047,16,5.08,5.08,0,0,0,15.971,10.929Z" fill="#fff"/>
    <path d="M10.018,17.933,4.379,8.161a14.032,14.032,0,0,0,10.527,21.8L20.8,19.937a6.267,6.267,0,0,1-10.778-2" fill="#15a05d"/>
  </g>
</svg>
