<svg xmlns="http://www.w3.org/2000/svg" viewBox="0 0 32 32">
  <title>edge</title>
  <path d="M18.786,31H18.148a1.027,1.027,0,0,0-.174-0.032c-0.443,0-.884-0.04-1.325-0.086a14.524,14.524,0,0,1-1.6-.256,12.456,12.456,0,0,1-2.557-.846A11.134,11.134,0,0,1,8.954,27.19,11.987,11.987,0,0,1,6.81,23.964a10.353,10.353,0,0,1-.944-3.916c-0.022-.6,0-1.2.028-1.8a10.392,10.392,0,0,1,.186-1.439A11.234,11.234,0,0,1,6.953,14.1a10.864,10.864,0,0,1,2.431-3.3,14.156,14.156,0,0,1,3.563-2.39c0.019-.009.04-0.016,0.059-0.023-0.241.359-.487,0.71-0.715,1.071A7.232,7.232,0,0,0,11.72,10.6a10.32,10.32,0,0,0-.408,1.219,4.292,4.292,0,0,0-.235,1.272h10.56a0.083,0.083,0,0,0,.1-0.09c0.006-.143.024-0.286,0.017-0.428a9.855,9.855,0,0,0-.1-1.1A6.41,6.41,0,0,0,20.927,9.3,4.773,4.773,0,0,0,18.971,7.4,6.478,6.478,0,0,0,16.2,6.7,9.429,9.429,0,0,0,15.1,6.72c-0.427.03-.854,0.079-1.278,0.136a14.67,14.67,0,0,0-2.543.592A16.053,16.053,0,0,0,7.933,8.97a17.663,17.663,0,0,0-3.616,2.885,18.9,18.9,0,0,0-1.8,2.159c-0.035.05-.073,0.1-0.118,0.158a0.259,0.259,0,0,1,0-.047c0.081-.454.152-0.909,0.245-1.36a16.726,16.726,0,0,1,1.4-4.057A15.037,15.037,0,0,1,5.247,6.688,13.558,13.558,0,0,1,7.985,3.807a12.965,12.965,0,0,1,4.98-2.385,13.261,13.261,0,0,1,2.017-.336c0.354-.03.707-0.059,1.062-0.077a9.69,9.69,0,0,1,1.437.05c0.371,0.036.744,0.068,1.113,0.122a14.264,14.264,0,0,1,2.036.457,12.752,12.752,0,0,1,6.591,4.589,12.673,12.673,0,0,1,1.686,2.948,13.788,13.788,0,0,1,.749,2.587c0.069,0.371.123,0.746,0.174,1.12,0.038,0.274.064,0.549,0.088,0.825,0.029,0.34.068,0.68,0.072,1.02C30,15.872,30,17.017,30,18.162c0,0.037,0,.074,0,0.111a0.078,0.078,0,0,1-.087.085l-0.166,0H11.434c-0.055,0-.111,0-0.166,0a0.079,0.079,0,0,0-.085.087c0,0.032,0,.065,0,0.1a6.086,6.086,0,0,0,.186,1.423A5.528,5.528,0,0,0,13.876,23.4a7.95,7.95,0,0,0,1.937.875,10.781,10.781,0,0,0,1.851.394,12.018,12.018,0,0,0,1.323.105,13.678,13.678,0,0,0,1.77-.052c0.416-.048.835-0.086,1.248-0.15a15.392,15.392,0,0,0,2.088-.479,12.462,12.462,0,0,0,3.278-1.488c0.033-.022.069-0.039,0.128-0.073v6.058c0,0.028,0,.056,0,0.083a0.149,0.149,0,0,1-.088.157c-0.118.063-.233,0.132-0.351,0.194a14.832,14.832,0,0,1-2.4.985,17.406,17.406,0,0,1-1.966.514Q21.9,30.68,21.1,30.8c-0.392.058-.787,0.1-1.182,0.131-0.317.026-.636,0.026-0.954,0.041A1.31,1.31,0,0,0,18.786,31Z" fill="#3177bc"/>
</svg>
