<svg xmlns="http://www.w3.org/2000/svg" viewBox="0 0 32 32">
  <title>color-icon_php</title>
  <g>
    <path d="M10.279,13.661a7.532,7.532,0,0,0-2.2-.175l-.748,3.738A7.12,7.12,0,0,0,9.654,17c.529-.164.892-.783,1.075-1.825C10.879,14.3,10.733,13.8,10.279,13.661Z" fill="#777bb3"/>
    <path d="M25.1,13.661a7.616,7.616,0,0,0-2.2-.175l-.748,3.738A7.316,7.316,0,0,0,24.475,17c.535-.168.892-.783,1.075-1.825C25.7,14.3,25.554,13.8,25.1,13.661Z" fill="#777bb3"/>
    <path d="M16,7.583C7.163,7.583,0,11.351,0,16s7.163,8.417,16,8.417S32,20.649,32,16,24.837,7.583,16,7.583Zm-3.458,7.6a4.388,4.388,0,0,1-.388,1.3,3.865,3.865,0,0,1-.8,1.15,2.793,2.793,0,0,1-1.338.825,6.159,6.159,0,0,1-1.475.175h-1.5l-.475,2.375H4.828l1.788-8.964h3.35a2.593,2.593,0,0,1,2.138.85A2.85,2.85,0,0,1,12.542,15.187Zm6.205,3.45H17l.8-3.976a1.128,1.128,0,0,0-.075-.888,1.062,1.062,0,0,0-.863-.263L15.472,13.5l-1.025,5.138H12.721l1.8-8.976h1.725l-.488,2.388h1.55a3.113,3.113,0,0,1,1.9.525q.638.5.375,1.9Zm8.616-3.45a4.388,4.388,0,0,1-.388,1.3,3.865,3.865,0,0,1-.8,1.15,2.793,2.793,0,0,1-1.338.825,6.159,6.159,0,0,1-1.475.175h-1.5l-.475,2.375H19.65l1.788-8.964h3.35a2.593,2.593,0,0,1,2.138.85A2.85,2.85,0,0,1,27.363,15.187Z" fill="#777bb3"/>
  </g>
</svg>
