<svg xmlns="http://www.w3.org/2000/svg" viewBox="0 0 32 32">
  <title>color-icon_ruby</title>
  <g>
    <path d="M27.814,7.167a4.124,4.124,0,0,0-3.551-3.058L20.545,6.161l6.877,5.617-8.83.577,2.388,9.355-9.225-2.938L8.964,27.915,5.638,20.142,4,23.148c.147,4.6,3.428,4.744,4.9,4.787l17.728-1.2L28,8.873A5.981,5.981,0,0,0,27.814,7.167Z" fill="#cc342d"/>
    <path d="M9.124,9.1c3.565-3.534,8.161-5.623,9.925-3.843s-.106,6.1-3.672,9.637-8.1,5.737-9.866,3.957S5.559,12.629,9.124,9.1Z" fill="#cc342d"/>
  </g>
</svg>
