<svg xmlns="http://www.w3.org/2000/svg" xmlns:xlink="http://www.w3.org/1999/xlink" viewBox="0 0 32 32">
  <defs>
    <clipPath id="a">
      <path d="M29.982,26.515a1.768,1.768,0,0,1-.294.495,3.207,3.207,0,0,1-1.033.733,20.43,20.43,0,0,0-1.923,1.015,7.892,7.892,0,0,0-1.134.913,9.086,9.086,0,0,1-.922.837,2.652,2.652,0,0,1-1.148.486,2.75,2.75,0,0,1-1.493-.226,1.791,1.791,0,0,1-.831-.65,1.953,1.953,0,0,1-.233-1.036,10.783,10.783,0,0,1,.227-1.887c.092-.519.18-1.039.236-1.564a16.1,16.1,0,0,0,.033-2.873,2.18,2.18,0,0,1,0-.481.611.611,0,0,1,.622-.57,2.224,2.224,0,0,1,.443.037,9.357,9.357,0,0,1,1.033.179c.213.056.421.131.634.189a2.91,2.91,0,0,0,1.093.1,8.483,8.483,0,0,1,1.172-.184,1.738,1.738,0,0,1,.479.084,1.024,1.024,0,0,1,.43.24.946.946,0,0,1,.2.32,1.94,1.94,0,0,1,.122.548,4.745,4.745,0,0,0,.043.5,1.632,1.632,0,0,0,.368.724A4.682,4.682,0,0,0,28.7,25c.209.176.419.35.644.5.106.072.215.14.315.219a.991.991,0,0,1,.255.284.708.708,0,0,1,.071.5h0" fill="#f5bd0c"/>
    </clipPath>
    <clipPath id="b">
      <path d="M8.219,21.2a.949.949,0,0,1,.533-.049,1.313,1.313,0,0,1,.5.211,3.145,3.145,0,0,1,.733.791c.488.672.957,1.358,1.383,2.07.345.578.662,1.175,1.061,1.718.26.354.554.683.816,1.036a3.57,3.57,0,0,1,.61,1.161,2.328,2.328,0,0,1-.17,1.666,2.2,2.2,0,0,1-.812.871,2.093,2.093,0,0,1-1.15.3A5.642,5.642,0,0,1,9.9,30.4c-1.209-.482-2.523-.633-3.769-1.008-.383-.115-.76-.252-1.145-.358a3.386,3.386,0,0,1-.507-.162.876.876,0,0,1-.4-.336.761.761,0,0,1-.1-.4,1.238,1.238,0,0,1,.081-.4c.094-.258.245-.492.347-.747a3.139,3.139,0,0,0,.174-1.324c-.022-.448-.1-.892-.126-1.34a2.315,2.315,0,0,1,.019-.6.9.9,0,0,1,.757-.77,2.431,2.431,0,0,1,.552-.035,5.3,5.3,0,0,0,.554,0,1.272,1.272,0,0,0,.529-.148,1.252,1.252,0,0,0,.38-.359,4.4,4.4,0,0,0,.272-.45,2.882,2.882,0,0,1,.286-.441,1.09,1.09,0,0,1,.412-.32" fill="#f5bd0c"/>
    </clipPath>
  </defs>
  <title>linux</title>
  <g>
    <path d="M17.425,4.639a1.706,1.706,0,0,0-.653.809,1.987,1.987,0,0,0,.052,1.305,2.165,2.165,0,0,0,.771,1.1,1.411,1.411,0,0,0,.63.244,1.149,1.149,0,0,0,.662-.115,1.276,1.276,0,0,0,.549-.6,2.21,2.21,0,0,0,.181-.806,2.72,2.72,0,0,0-.131-1.044,1.754,1.754,0,0,0-.676-.9,1.321,1.321,0,0,0-.534-.2,1.138,1.138,0,0,0-.566.063,1.418,1.418,0,0,0-.287.157" fill="#fff"/>
    <path d="M27.3,18.78a14.65,14.65,0,0,0-.823-2.862,8.2,8.2,0,0,0-1.022-1.934c-.43-.572-.972-1.054-1.393-1.633-.222-.3-.41-.636-.641-.933-.094-.193-.186-.387-.275-.582h0c-.278-.605-.53-1.225-.86-1.8-.051-.09-.105-.179-.161-.267-.042-.554-.1-1.107-.13-1.662a15.642,15.642,0,0,0-.279-3.32,5.4,5.4,0,0,0-.66-1.482,5.082,5.082,0,0,0-1.29-1.39A4.979,4.979,0,0,0,16.91,0a4.468,4.468,0,0,0-2.165.5,3.9,3.9,0,0,0-1.627,1.694A5.611,5.611,0,0,0,12.6,4.5c-.026.78.046,1.56.075,2.341.03.811.014,1.625.081,2.434h0c.022.261.052.521.051.783,0,.13-.008.262-.01.392l-.01.028a16.648,16.648,0,0,1-1.17,1.727q-.444.565-.9,1.123a6.793,6.793,0,0,0-.987,1.455A10.387,10.387,0,0,0,9.3,16.191l-.011.04a10.955,10.955,0,0,1-.623,1.6c-.023.048-.047.1-.07.144-.15.31-.307.615-.468.919l-.187.351a5.722,5.722,0,0,0-.313.652,2.16,2.16,0,0,0-.116.415,2.193,2.193,0,0,0,.056.9c.019.074.041.146.066.218a4.711,4.711,0,0,0,.272.628h0c.048.093.1.185.149.276L8.1,22.4q.075.13.154.257l.006.01q.091.144.188.283l.009.013q.1.139.2.273h0a7.236,7.236,0,0,0,1.374,2.737c-.1.175-.191.352-.292.525a7.938,7.938,0,0,0-.868,1.642,1.972,1.972,0,0,0-.066.92,1.321,1.321,0,0,0,.454.791,1.374,1.374,0,0,0,.549.254,2.455,2.455,0,0,0,.606.053,9.859,9.859,0,0,0,2.267-.447q.664-.174,1.337-.312a7.953,7.953,0,0,1,1.421-.194h0c.118,0,.236,0,.353-.012a6.609,6.609,0,0,0,.979.036l.12-.007c.085.01.17.015.255.02h0c.574.033,1.148.089,1.716.175q.751.113,1.489.294a11.382,11.382,0,0,0,2.33.447,2.532,2.532,0,0,0,.622-.049,1.384,1.384,0,0,0,.564-.258,1.322,1.322,0,0,0,.455-.792,1.967,1.967,0,0,0-.068-.922A7.649,7.649,0,0,0,23.37,26.5c-.126-.212-.243-.429-.368-.64a11.328,11.328,0,0,0,1.409-1.957,1.917,1.917,0,0,0,.712-.09,2.985,2.985,0,0,0,1.5-1.125,1.712,1.712,0,0,0,.251-.513,3.4,3.4,0,0,0,.48-1.222A6.129,6.129,0,0,0,27.3,18.78Z" fill="#020204"/>
    <path d="M13.975,8.967a1.239,1.239,0,0,0-.223.471,2.511,2.511,0,0,0-.065.52A4.6,4.6,0,0,1,13.6,11a3.209,3.209,0,0,1-.539.979,5.937,5.937,0,0,0-.943,1.692,3,3,0,0,0-.109,1.166A12.328,12.328,0,0,0,10.923,16.8a10.728,10.728,0,0,0-.883,3.272,8.353,8.353,0,0,0,.588,4.082,6.688,6.688,0,0,0,1.742,2.427,5.957,5.957,0,0,0,1.273.845,5.706,5.706,0,0,0,5.113-.05,9.934,9.934,0,0,0,2.17-1.715,7.557,7.557,0,0,0,1.1-1.25,7.016,7.016,0,0,0,.919-3.052,9.955,9.955,0,0,0-.587-5.517,6.086,6.086,0,0,0-1.1-1.581,8.664,8.664,0,0,0-.7-2.354c-.248-.538-.55-1.051-.78-1.6-.094-.224-.176-.454-.281-.673a2.021,2.021,0,0,0-.41-.6,1.688,1.688,0,0,0-.641-.372,2.785,2.785,0,0,0-.734-.126c-.5-.025-1,.04-1.494.02-.4-.016-.791-.085-1.187-.062a1.825,1.825,0,0,0-.58.122,1.169,1.169,0,0,0-.477.345" fill="#fff"/>
    <path d="M14.135,4.639a.809.809,0,0,0-.5.223,1.13,1.13,0,0,0-.291.47,2.847,2.847,0,0,0-.065,1.108,3.265,3.265,0,0,0,.175.992,1.294,1.294,0,0,0,.269.424.925.925,0,0,0,.43.254.868.868,0,0,0,.468-.017,1.014,1.014,0,0,0,.4-.244,1.347,1.347,0,0,0,.34-.594,2.357,2.357,0,0,0,.079-.685,2.856,2.856,0,0,0-.132-.852,1.919,1.919,0,0,0-.436-.74,1.232,1.232,0,0,0-.334-.25.823.823,0,0,0-.405-.089" fill="#fff"/>
    <path d="M17.425,4.639a1.706,1.706,0,0,0-.653.809,1.987,1.987,0,0,0,.052,1.305,2.165,2.165,0,0,0,.771,1.1,1.411,1.411,0,0,0,.63.244,1.149,1.149,0,0,0,.662-.115,1.276,1.276,0,0,0,.549-.6,2.21,2.21,0,0,0,.181-.806,2.72,2.72,0,0,0-.131-1.044,1.754,1.754,0,0,0-.676-.9,1.321,1.321,0,0,0-.534-.2,1.138,1.138,0,0,0-.566.063,1.418,1.418,0,0,0-.287.157" fill="#fff"/>
    <path d="M18.095,5.515a.673.673,0,0,0-.308.1.81.81,0,0,0-.234.228,1.176,1.176,0,0,0-.187.62,1.308,1.308,0,0,0,.066.485.916.916,0,0,0,.273.4.79.79,0,0,0,.462.18.775.775,0,0,0,.476-.136.855.855,0,0,0,.262-.3,1.118,1.118,0,0,0,.119-.382,1.18,1.18,0,0,0-.112-.69.967.967,0,0,0-.514-.465.727.727,0,0,0-.3-.047" fill="#020204"/>
    <path d="M14.135,4.639a.809.809,0,0,0-.5.223,1.13,1.13,0,0,0-.291.47,2.847,2.847,0,0,0-.065,1.108,3.265,3.265,0,0,0,.175.992,1.294,1.294,0,0,0,.269.424.925.925,0,0,0,.43.254.868.868,0,0,0,.468-.017,1.014,1.014,0,0,0,.4-.244,1.347,1.347,0,0,0,.34-.594,2.357,2.357,0,0,0,.079-.685,2.856,2.856,0,0,0-.132-.852,1.919,1.919,0,0,0-.436-.74,1.232,1.232,0,0,0-.334-.25.823.823,0,0,0-.405-.089" fill="#fff"/>
    <path d="M13.686,6.179a1.405,1.405,0,0,0,.04.7,1.177,1.177,0,0,0,.248.4.822.822,0,0,0,.242.188.449.449,0,0,0,.3.038.442.442,0,0,0,.232-.156.763.763,0,0,0,.127-.253,1.407,1.407,0,0,0-.013-.827,1.079,1.079,0,0,0-.316-.514.628.628,0,0,0-.256-.134A.447.447,0,0,0,14,5.644a.492.492,0,0,0-.224.226,1.031,1.031,0,0,0-.093.309" fill="#020204"/>
    <path d="M13.249,9.094a.285.285,0,0,0,.034.088A.4.4,0,0,0,13.4,9.3c.044.032.091.058.137.087a2.475,2.475,0,0,1,.619.6,3.886,3.886,0,0,0,.762.865,1.607,1.607,0,0,0,.762.273,2.494,2.494,0,0,0,.948-.11,3.348,3.348,0,0,0,.813-.357,8.5,8.5,0,0,1,1.411-.925c.116-.042.236-.073.347-.125a.545.545,0,0,0,.27-.242,1.168,1.168,0,0,0,.066-.347c.018-.125.058-.247.08-.371a.624.624,0,0,0-.029-.373.482.482,0,0,0-.219-.218.746.746,0,0,0-.3-.075,4.5,4.5,0,0,0-.625.062c-.277.025-.555-.01-.833,0-.345.01-.686.088-1.031.1-.394.019-.787-.042-1.181-.058a2.438,2.438,0,0,0-.511.024,1.184,1.184,0,0,0-.474.183,4.553,4.553,0,0,0-.372.332.954.954,0,0,1-.205.141.53.53,0,0,1-.241.057.391.391,0,0,0-.128,0,.173.173,0,0,0-.067.042.393.393,0,0,0-.05.063,1.1,1.1,0,0,0-.091.163" fill="#d99a03"/>
    <path d="M14.117,8.222c-.14.083-.274.174-.407.268a.5.5,0,0,0-.175.177.416.416,0,0,0-.032.174,1.513,1.513,0,0,1,0,.178c-.005.04-.016.08-.018.121a.2.2,0,0,0,.006.06.125.125,0,0,0,.029.053.153.153,0,0,0,.068.039c.025.008.051.012.077.018a.758.758,0,0,1,.323.188c.094.084.178.179.276.259a1.551,1.551,0,0,0,.957.31,4.312,4.312,0,0,0,1.012-.141A6.113,6.113,0,0,0,17,9.713a3.418,3.418,0,0,0,1.056-.629,3.616,3.616,0,0,1,.431-.357c.14-.088.3-.146.439-.23a.278.278,0,0,0,.037-.025.107.107,0,0,0,.028-.034.1.1,0,0,0,0-.075A.2.2,0,0,0,18.96,8.3a.462.462,0,0,0-.059-.06.942.942,0,0,0-.546-.189c-.2-.015-.393,0-.586-.037a3.815,3.815,0,0,1-.53-.154,3.9,3.9,0,0,0-.563-.137,3.724,3.724,0,0,0-1.355.033,3.96,3.96,0,0,0-1.2.468" fill="#604405"/>
    <path d="M14.073,7.749a2.48,2.48,0,0,0-.536.489,1.16,1.16,0,0,0-.212.356,2.69,2.69,0,0,0-.069.32.6.6,0,0,0-.018.121.2.2,0,0,0,.009.06.137.137,0,0,0,.031.053.17.17,0,0,0,.09.045c.033.007.067.008.1.012a.941.941,0,0,1,.418.178c.126.087.242.187.371.269a1.94,1.94,0,0,0,.963.274,4.307,4.307,0,0,0,1.005-.1A4.516,4.516,0,0,0,17,9.608a4.649,4.649,0,0,0,1.056-.629,4.428,4.428,0,0,0,.431-.357c.046-.044.09-.09.139-.13a.5.5,0,0,1,.164-.095.611.611,0,0,1,.287-.005,1.064,1.064,0,0,0,.216.025A.321.321,0,0,0,19.4,8.4a.219.219,0,0,0,.088-.063.211.211,0,0,0,.046-.133.269.269,0,0,0-.039-.136.466.466,0,0,0-.22-.177,2.169,2.169,0,0,0-.376-.11,5.4,5.4,0,0,1-1.131-.413c-.179-.089-.353-.187-.53-.282a3.123,3.123,0,0,0-.563-.25,2.212,2.212,0,0,0-1.355.061,2.9,2.9,0,0,0-1.249.855h0" fill="#f5bd0c"/>
    <path d="M16.329,7.2c.024.078.149.065.221.1s.114.1.185.106.174-.024.183-.091c.012-.089-.118-.146-.2-.178a.427.427,0,0,0-.347-.007C16.347,7.144,16.321,7.174,16.329,7.2Z" fill="#cd8907"/>
    <path d="M15.136,7.156c-.093-.03-.246.133-.2.217.014.023.056.052.084.037s.078-.108.124-.14C15.179,7.247,15.172,7.167,15.136,7.156Z" fill="#cd8907"/>
    <g>
      <path d="M29.982,26.515a1.768,1.768,0,0,1-.294.495,3.207,3.207,0,0,1-1.033.733,20.43,20.43,0,0,0-1.923,1.015,7.892,7.892,0,0,0-1.134.913,9.086,9.086,0,0,1-.922.837,2.652,2.652,0,0,1-1.148.486,2.75,2.75,0,0,1-1.493-.226,1.791,1.791,0,0,1-.831-.65,1.953,1.953,0,0,1-.233-1.036,10.783,10.783,0,0,1,.227-1.887c.092-.519.18-1.039.236-1.564a16.1,16.1,0,0,0,.033-2.873,2.18,2.18,0,0,1,0-.481.611.611,0,0,1,.622-.57,2.224,2.224,0,0,1,.443.037,9.357,9.357,0,0,1,1.033.179c.213.056.421.131.634.189a2.91,2.91,0,0,0,1.093.1,8.483,8.483,0,0,1,1.172-.184,1.738,1.738,0,0,1,.479.084,1.024,1.024,0,0,1,.43.24.946.946,0,0,1,.2.32,1.94,1.94,0,0,1,.122.548,4.745,4.745,0,0,0,.043.5,1.632,1.632,0,0,0,.368.724A4.682,4.682,0,0,0,28.7,25c.209.176.419.35.644.5.106.072.215.14.315.219a.991.991,0,0,1,.255.284.708.708,0,0,1,.071.5h0" fill="#f5bd0c"/>
      <g clip-path="url(#a)">
        <path d="M29.982,26.515a1.768,1.768,0,0,1-.294.495,3.207,3.207,0,0,1-1.033.733,20.43,20.43,0,0,0-1.923,1.015,7.892,7.892,0,0,0-1.134.913,9.086,9.086,0,0,1-.922.837,2.652,2.652,0,0,1-1.148.486,2.75,2.75,0,0,1-1.493-.226,1.791,1.791,0,0,1-.831-.65,1.953,1.953,0,0,1-.233-1.036,10.783,10.783,0,0,1,.227-1.887c.092-.519.18-1.039.236-1.564a16.1,16.1,0,0,0,.033-2.873,2.18,2.18,0,0,1,0-.481.611.611,0,0,1,.622-.57,2.224,2.224,0,0,1,.443.037,9.357,9.357,0,0,1,1.033.179c.213.056.421.131.634.189a2.91,2.91,0,0,0,1.093.1,8.483,8.483,0,0,1,1.172-.184,1.738,1.738,0,0,1,.479.084,1.024,1.024,0,0,1,.43.24.946.946,0,0,1,.2.32,1.94,1.94,0,0,1,.122.548,4.745,4.745,0,0,0,.043.5,1.632,1.632,0,0,0,.368.724A4.682,4.682,0,0,0,28.7,25c.209.176.419.35.644.5.106.072.215.14.315.219a.991.991,0,0,1,.255.284.708.708,0,0,1,.071.5h0" fill="#f5bd0c"/>
      </g>
    </g>
    <g>
      <path d="M8.219,21.2a.949.949,0,0,1,.533-.049,1.313,1.313,0,0,1,.5.211,3.145,3.145,0,0,1,.733.791c.488.672.957,1.358,1.383,2.07.345.578.662,1.175,1.061,1.718.26.354.554.683.816,1.036a3.57,3.57,0,0,1,.61,1.161,2.328,2.328,0,0,1-.17,1.666,2.2,2.2,0,0,1-.812.871,2.093,2.093,0,0,1-1.15.3A5.642,5.642,0,0,1,9.9,30.4c-1.209-.482-2.523-.633-3.769-1.008-.383-.115-.76-.252-1.145-.358a3.386,3.386,0,0,1-.507-.162.876.876,0,0,1-.4-.336.761.761,0,0,1-.1-.4,1.238,1.238,0,0,1,.081-.4c.094-.258.245-.492.347-.747a3.139,3.139,0,0,0,.174-1.324c-.022-.448-.1-.892-.126-1.34a2.315,2.315,0,0,1,.019-.6.9.9,0,0,1,.757-.77,2.431,2.431,0,0,1,.552-.035,5.3,5.3,0,0,0,.554,0,1.272,1.272,0,0,0,.529-.148,1.252,1.252,0,0,0,.38-.359,4.4,4.4,0,0,0,.272-.45,2.882,2.882,0,0,1,.286-.441,1.09,1.09,0,0,1,.412-.32" fill="#f5bd0c"/>
      <g clip-path="url(#b)">
        <path d="M8.219,21.2a.949.949,0,0,1,.533-.049,1.313,1.313,0,0,1,.5.211,3.145,3.145,0,0,1,.733.791c.488.672.957,1.358,1.383,2.07.345.578.662,1.175,1.061,1.718.26.354.554.683.816,1.036a3.57,3.57,0,0,1,.61,1.161,2.328,2.328,0,0,1-.17,1.666,2.2,2.2,0,0,1-.812.871,2.093,2.093,0,0,1-1.15.3A5.642,5.642,0,0,1,9.9,30.4c-1.209-.482-2.523-.633-3.769-1.008-.383-.115-.76-.252-1.145-.358a3.386,3.386,0,0,1-.507-.162.876.876,0,0,1-.4-.336.761.761,0,0,1-.1-.4,1.238,1.238,0,0,1,.081-.4c.094-.258.245-.492.347-.747a3.139,3.139,0,0,0,.174-1.324c-.022-.448-.1-.892-.126-1.34a2.315,2.315,0,0,1,.019-.6.9.9,0,0,1,.757-.77,2.431,2.431,0,0,1,.552-.035,5.3,5.3,0,0,0,.554,0,1.272,1.272,0,0,0,.529-.148,1.252,1.252,0,0,0,.38-.359,4.4,4.4,0,0,0,.272-.45,2.882,2.882,0,0,1,.286-.441,1.09,1.09,0,0,1,.412-.32" fill="#f5bd0c"/>
        <path d="M8.483,21.493a.817.817,0,0,1,.483-.032,1.133,1.133,0,0,1,.437.214,2.763,2.763,0,0,1,.611.759c.415.672.82,1.35,1.2,2.043a13.555,13.555,0,0,0,.923,1.533c.236.318.506.609.747.923a3.114,3.114,0,0,1,.563,1.037,2.043,2.043,0,0,1-.156,1.486,1.982,1.982,0,0,1-.75.784,1.931,1.931,0,0,1-1.053.26,5.889,5.889,0,0,1-1.669-.517c-1.055-.383-2.2-.434-3.28-.733-.388-.105-.766-.246-1.156-.344a3.507,3.507,0,0,1-.512-.148.83.83,0,0,1-.407-.33.721.721,0,0,1-.088-.382,1.194,1.194,0,0,1,.085-.386c.094-.247.242-.471.337-.718a2.77,2.77,0,0,0,.135-1.183c-.027-.4-.1-.795-.12-1.194a2.035,2.035,0,0,1,.024-.534.917.917,0,0,1,.24-.471.933.933,0,0,1,.52-.241,2.421,2.421,0,0,1,.58,0,3.913,3.913,0,0,0,.581.027,1.09,1.09,0,0,0,.55-.168,1.1,1.1,0,0,0,.339-.4,4.213,4.213,0,0,0,.206-.482,2.28,2.28,0,0,1,.232-.471.909.909,0,0,1,.4-.338" fill="#f5bd0c"/>
      </g>
    </g>
  </g>
</svg>
