<svg xmlns="http://www.w3.org/2000/svg" xmlns:xlink="http://www.w3.org/1999/xlink" viewBox="0 0 32 32">
  <defs>
    <linearGradient id="a" x1="-232.697" y1="-2122.334" x2="-233.962" y2="-2124.567" gradientTransform="translate(897.125 7988) scale(3.75)" gradientUnits="userSpaceOnUse">
      <stop offset="0" stop-color="#fb7655"/>
      <stop offset="0.41" stop-color="#e42b1e"/>
      <stop offset="0.99" stop-color="#900"/>
      <stop offset="1" stop-color="#900"/>
    </linearGradient>
    <linearGradient id="b" x1="-232.067" y1="-2124.21" x2="-233.697" y2="-2125.303" gradientTransform="translate(897.125 7988) scale(3.75)" gradientUnits="userSpaceOnUse">
      <stop offset="0" stop-color="#871101"/>
      <stop offset="0.99" stop-color="#911209"/>
      <stop offset="1" stop-color="#911209"/>
    </linearGradient>
    <linearGradient id="c" x1="-233.371" y1="-2122.267" x2="-235.001" y2="-2123.36" xlink:href="#b"/>
    <linearGradient id="d" x1="-236.793" y1="-2125.001" x2="-236.54" y2="-2123.36" gradientTransform="translate(897.125 7988) scale(3.75)" gradientUnits="userSpaceOnUse">
      <stop offset="0" stop-color="#fff"/>
      <stop offset="0.23" stop-color="#e57252"/>
      <stop offset="0.46" stop-color="#de3b20"/>
      <stop offset="0.99" stop-color="#a60003"/>
      <stop offset="1" stop-color="#a60003"/>
    </linearGradient>
    <linearGradient id="e" x1="-235.055" y1="-2126.534" x2="-234.962" y2="-2124.859" gradientTransform="translate(897.125 7988) scale(3.75)" gradientUnits="userSpaceOnUse">
      <stop offset="0" stop-color="#fff"/>
      <stop offset="0.23" stop-color="#e4714e"/>
      <stop offset="0.56" stop-color="#be1a0d"/>
      <stop offset="0.99" stop-color="#a80d00"/>
      <stop offset="1" stop-color="#a80d00"/>
    </linearGradient>
    <linearGradient id="f" x1="-233.513" y1="-2128.083" x2="-233.235" y2="-2126.882" gradientTransform="translate(897.125 7988) scale(3.75)" gradientUnits="userSpaceOnUse">
      <stop offset="0" stop-color="#fff"/>
      <stop offset="0.18" stop-color="#e46342"/>
      <stop offset="0.4" stop-color="#c82410"/>
      <stop offset="0.99" stop-color="#a80d00"/>
      <stop offset="1" stop-color="#a80d00"/>
    </linearGradient>
    <linearGradient id="g" x1="-234.364" y1="-2128.506" x2="-233.163" y2="-2129.107" gradientTransform="translate(897.125 7988) scale(3.75)" gradientUnits="userSpaceOnUse">
      <stop offset="0" stop-color="#fff"/>
      <stop offset="0.54" stop-color="#c81f11"/>
      <stop offset="0.99" stop-color="#bf0905"/>
      <stop offset="1" stop-color="#bf0905"/>
    </linearGradient>
    <linearGradient id="h" x1="-237.846" y1="-2125.42" x2="-237.747" y2="-2124.43" gradientTransform="translate(897.125 7988) scale(3.75)" gradientUnits="userSpaceOnUse">
      <stop offset="0" stop-color="#fff"/>
      <stop offset="0.31" stop-color="#de4024"/>
      <stop offset="0.99" stop-color="#bf190b"/>
      <stop offset="1" stop-color="#bf190b"/>
    </linearGradient>
    <linearGradient id="i" x1="-238.525" y1="-2124.163" x2="-233.879" y2="-2128.941" gradientTransform="translate(897.125 7988) scale(3.75)" gradientUnits="userSpaceOnUse">
      <stop offset="0" stop-color="#bd0012"/>
      <stop offset="0.07" stop-color="#fff"/>
      <stop offset="0.17" stop-color="#fff"/>
      <stop offset="0.27" stop-color="#c82f1c"/>
      <stop offset="0.33" stop-color="#820c01"/>
      <stop offset="0.46" stop-color="#a31601"/>
      <stop offset="0.72" stop-color="#b31301"/>
      <stop offset="0.99" stop-color="#e82609"/>
      <stop offset="1" stop-color="#e82609"/>
    </linearGradient>
    <linearGradient id="j" x1="-234.966" y1="-2123.681" x2="-236.366" y2="-2124.026" gradientTransform="translate(897.125 7988) scale(3.75)" gradientUnits="userSpaceOnUse">
      <stop offset="0" stop-color="#8c0c01"/>
      <stop offset="0.54" stop-color="#990c00"/>
      <stop offset="0.99" stop-color="#a80d0e"/>
      <stop offset="1" stop-color="#a80d0e"/>
    </linearGradient>
    <linearGradient id="k" x1="-232.563" y1="-2125.361" x2="-233.806" y2="-2126.475" gradientTransform="translate(897.125 7988) scale(3.75)" gradientUnits="userSpaceOnUse">
      <stop offset="0" stop-color="#7e110b"/>
      <stop offset="0.99" stop-color="#9e0c00"/>
      <stop offset="1" stop-color="#9e0c00"/>
    </linearGradient>
    <linearGradient id="l" x1="-232.106" y1="-2127.405" x2="-232.725" y2="-2128.067" gradientTransform="translate(897.125 7988) scale(3.75)" gradientUnits="userSpaceOnUse">
      <stop offset="0" stop-color="#79130d"/>
      <stop offset="0.99" stop-color="#9e120b"/>
      <stop offset="1" stop-color="#9e120b"/>
    </linearGradient>
    <radialGradient id="m" cx="-233.612" cy="-2126.454" r="1.524" gradientTransform="translate(897.125 7988) scale(3.75)" gradientUnits="userSpaceOnUse">
      <stop offset="0" stop-color="#a80d00"/>
      <stop offset="0.99" stop-color="#7e0e08"/>
      <stop offset="1" stop-color="#7e0e08"/>
    </radialGradient>
    <radialGradient id="n" cx="-235.722" cy="-2124.446" r="2.025" gradientTransform="translate(897.125 7988) scale(3.75)" gradientUnits="userSpaceOnUse">
      <stop offset="0" stop-color="#a30c00"/>
      <stop offset="0.99" stop-color="#800e08"/>
      <stop offset="1" stop-color="#800e08"/>
    </radialGradient>
    <linearGradient id="o" x1="-237.157" y1="-2122.885" x2="-237.662" y2="-2124.597" gradientTransform="translate(897.125 7988) scale(3.75)" gradientUnits="userSpaceOnUse">
      <stop offset="0" stop-color="#8b2114"/>
      <stop offset="0.43" stop-color="#9e100a"/>
      <stop offset="0.99" stop-color="#b3100c"/>
      <stop offset="1" stop-color="#b3100c"/>
    </linearGradient>
    <linearGradient id="p" x1="-233.285" y1="-2128.559" x2="-232.154" y2="-2128.06" gradientTransform="translate(897.125 7988) scale(3.75)" gradientUnits="userSpaceOnUse">
      <stop offset="0" stop-color="#b31000"/>
      <stop offset="0.44" stop-color="#910f08"/>
      <stop offset="0.99" stop-color="#791c12"/>
      <stop offset="1" stop-color="#791c12"/>
    </linearGradient>
  </defs>
  <title>color-icon_ruby</title>
  <g>
    <path d="M22.176,19.587,9.342,27.208,25.959,26.08l1.28-16.756Z" fill="url(#a)"/>
    <path d="M25.987,26.069l-1.428-9.858-3.89,5.137Z" fill="url(#b)"/>
    <path d="M26.006,26.069l-10.464-.821L9.4,27.187Z" fill="url(#c)"/>
    <path d="M9.412,27.189l2.614-8.564-5.752,1.23Z" fill="url(#d)"/>
    <path d="M20.667,21.377l-2.405-9.421-6.883,6.452Z" fill="url(#e)"/>
    <path d="M26.694,12.088,20.187,6.774l-1.812,5.858Z" fill="url(#f)"/>
    <path d="M23.651,4.879,19.824,6.994,17.41,4.851Z" fill="url(#g)"/>
    <path d="M4.761,22.728l1.6-2.924-1.3-3.483Z" fill="url(#h)"/>
    <path d="M4.981,16.211l1.3,3.7,5.669-1.272,6.473-6.015,1.827-5.8L17.378,4.792l-4.89,1.83c-1.541,1.433-4.53,4.268-4.638,4.321s-1.974,3.584-2.869,5.268Z" fill="#fff"/>
    <path d="M9.562,9.563c3.339-3.31,7.643-5.266,9.3-3.6s-.1,5.717-3.439,9.026S7.828,20.362,6.178,18.7s.045-5.824,3.384-9.133Z" fill="url(#i)"/>
    <path d="M9.412,27.185l2.593-8.591,8.614,2.767c-3.114,2.92-6.578,5.389-11.207,5.824Z" fill="url(#j)"/>
    <path d="M18.439,12.608l2.211,8.759c2.6-2.735,4.936-5.676,6.08-9.313l-8.291.555Z" fill="url(#k)"/>
    <path d="M26.707,12.1c.885-2.671,1.089-6.5-3.084-7.213L20.2,6.775,26.707,12.1Z" fill="url(#l)"/>
    <path d="M4.761,22.689c.122,4.408,3.3,4.473,4.657,4.512L6.289,19.894Z" fill="#9e1209"/>
    <path d="M18.451,12.621c2,1.229,6.028,3.7,6.11,3.742a14.093,14.093,0,0,0,2.1-4.29l-8.212.548Z" fill="url(#m)"/>
    <path d="M12,18.595l3.467,6.689A22.418,22.418,0,0,0,20.6,21.366Z" fill="url(#n)"/>
    <path d="M6.275,19.9l-.491,5.85a3.583,3.583,0,0,0,3.54,1.277c-.968-2.409-2.9-7.225-3.049-7.127Z" fill="url(#o)"/>
    <path d="M20.179,6.79l6.888.967a3.763,3.763,0,0,0-3.42-2.877Z" fill="url(#p)"/>
  </g>
</svg>
