<svg xmlns="http://www.w3.org/2000/svg" viewBox="0 0 32 32">
  <title>android</title>
  <path d="M28.465,12.887a1.824,1.824,0,0,0-3.648,0v7.6a1.824,1.824,0,1,0,3.648,0Z" fill="#78c62e"/>
  <path d="M7.183,12.887a1.824,1.824,0,0,0-3.648,0v7.6a1.824,1.824,0,1,0,3.648,0Z" fill="#78c62e"/>
  <path d="M7.863,11.375V23.17A1.967,1.967,0,0,0,9.83,25.138h1.306v4.024a1.824,1.824,0,1,0,3.648,0V25.138h2.432v4.024a1.824,1.824,0,1,0,3.648,0V25.138H22.17a1.967,1.967,0,0,0,1.967-1.967V11.375Z" fill="#78c62e"/>
  <path d="M19.99,4.193l1.287-2.322a.259.259,0,0,0-.454-.251l-1.3,2.348a8.771,8.771,0,0,0-7.043,0l-1.3-2.348a.259.259,0,0,0-.454.251L12.01,4.193a7.437,7.437,0,0,0-4.148,6.539H24.137A7.437,7.437,0,0,0,19.99,4.193ZM12.244,7.754a.68.68,0,1,1,.68-.68A.68.68,0,0,1,12.244,7.754Zm7.511,0a.68.68,0,1,1,.68-.68A.68.68,0,0,1,19.756,7.754Z" fill="#78c62e"/>
</svg>
