<svg xmlns="http://www.w3.org/2000/svg" viewBox="0 0 32 32">
  <title>color-icon_python</title>
  <g>
    <path d="M27.283,13.1c-.406-1.636-1.181-2.823-2.826-2.823h-2.3V12.7a3.605,3.605,0,0,1-3.348,3.729H13.16a2.958,2.958,0,0,0-3.045,2.727v5.382c0,1.532,1.441,2.433,2.936,2.872a9.176,9.176,0,0,0,5.56,0c1.423-.412,2.741-1.241,2.741-2.872V22.587H15.732v-.8h8.725c1.643,0,2.255-1.181,2.826-2.9a9.82,9.82,0,0,0,0-5.78ZM19.161,23.825A1.077,1.077,0,1,1,18.1,24.9,1.067,1.067,0,0,1,19.161,23.825Z" fill="#ffd845"/>
    <path d="M18.665,4.385a16.8,16.8,0,0,0-2.874-.231,17.051,17.051,0,0,0-2.775.231c-2.392.422-2.9,1.307-2.9,2.938V9.478h5.618v.8H8.212A3.491,3.491,0,0,0,4.681,13.1a10.7,10.7,0,0,0,0,5.78c.4,1.673,1.361,2.9,3,2.9H9.579v-2.7a3.589,3.589,0,0,1,3.58-3.457h5.646A2.672,2.672,0,0,0,21.351,12.7V7.323A3.023,3.023,0,0,0,18.665,4.385ZM12.8,8.041a1.077,1.077,0,1,1,1.061-1.074A1.067,1.067,0,0,1,12.8,8.041Z" fill="#386e99"/>
  </g>
</svg>
