<svg xmlns="http://www.w3.org/2000/svg" viewBox="0 0 32 32">
  <g>
    <g>
      <path d="M5.538,19.576q.546.674,1.214,1.361a5.474,5.474,0,0,0-2.676,1.754,5.028,5.028,0,0,0-1.181,3.5H.662A32.014,32.014,0,0,1,5.538,19.576ZM31.4,26.8H28.685c-6.227-3.25-11.695-5.541-17.5-6.042a11.249,11.249,0,0,1,.433-2.743l-.535-.144a11.882,11.882,0,0,0-.45,2.845q-.908-.061-1.829-.06a7.514,7.514,0,0,0-1.428.132,19.507,19.507,0,0,1-1.454-1.612A24.742,24.742,0,0,1,16.85,12.91a13.217,13.217,0,0,0,6.219,7.713c.207-.118.41-.241.609-.371l4.914,5.29.215-.019a2.741,2.741,0,0,1,2.306.839A1.549,1.549,0,0,1,31.4,26.8Z" fill="#d1a41a"/>
      <path d="M29,9.1a11.881,11.881,0,0,1-5.878,10.76C17.205,16.915,16.091,9.444,17.1,5.437c.28,1.533.791,2.493,1.893,2.964a16.534,16.534,0,0,1,8.147-.07A4.537,4.537,0,0,0,28.763,5.48,21.752,21.752,0,0,1,29,9.1Z" fill="#ffdc76"/>
    </g>
    <path d="M14.114,13.725l.9,2.676-2.743-1.84ZM11.472,14.9l.97,1.672L10.4,15.532ZM9.264,16.2l.468,1.673-1.4-.97Zm14.951,4.482-.87,1.338,1.539-.7Zm1.371,1.539-1.4,1.07,1.94-.5ZM22.175,7.7l1.037,2.275.669-2.308Zm-5.251,3.311,1.639.87-1.472.1Zm.4,1.773,1,.4-.836.234Zm11.707-1.137-1.338.569,1.1.167ZM28.5,13.29l-1.037.3.836.3Z" fill="#000"/>
    <path d="M16.385,15.8h3.228v.4H16.385Zm0-.957h3.228v.4H16.385Zm9.857.957H29.47v.4H26.242Zm0-.957H29.47v.4H26.242ZM25.1,12.482h-5.26v-.359h1.637a3.327,3.327,0,0,0,0-2.106.482.482,0,0,0-.452-.261,1.579,1.579,0,0,0-1.339,1.032h0l-.336-.126A1.935,1.935,0,0,1,21.027,9.4a.841.841,0,0,1,.762.439,3.484,3.484,0,0,1,.061,2.287h2.872a2.332,2.332,0,0,1,2.51-1.65v.359A1.934,1.934,0,0,0,25.1,12.123h1.567l0,.357Zm.236,1.771h0a1.975,1.975,0,0,1-.382-1.773l-.365,0a2.007,2.007,0,0,0,.237,1.542h-3.65a8.549,8.549,0,0,0,.578-1.542h-.372a7.574,7.574,0,0,1-.661,1.633l-.085.149,2.048,1.289-1.153.76.2.3,1.289-.85,1.391.908.191-.3-1.29-.8s1.929-1.253,2.025-1.314Zm-2.32,1.084-1.515-.954h2.961l-1.446.953Z" fill="#000"/>
    <path d="M31.525,25.984a3.83,3.83,0,0,0-2.793-.978c-.706-.84-4.8-5.149-4.8-5.149l-.284.357,4.94,5.318.214-.018a2.745,2.745,0,0,1,2.307.839,1.563,1.563,0,0,1,.286.435H28.684c-6.227-3.249-11.695-5.54-17.5-6.041A11.307,11.307,0,0,1,11.614,18l-.534-.145a11.913,11.913,0,0,0-.45,2.845q-.908-.06-1.829-.061a7.473,7.473,0,0,0-1.428.132,19.7,19.7,0,0,1-1.454-1.612A24.711,24.711,0,0,1,16.931,12.88l-.125-.541A25.445,25.445,0,0,0,5.565,18.706a8.65,8.65,0,0,1-1.782-3.878,4.209,4.209,0,0,1,.861-3.309c1.156-1.436,2.8-1.537,4.487-1.253a1.037,1.037,0,0,0,.109.679c.446.66,2.847.891,4.279.252-1.057-1.482-3.2-2.2-3.792-1.915a1.015,1.015,0,0,0-.446.478,9.517,9.517,0,0,0-1.587-.179,4.232,4.232,0,0,0-3.48,1.591A4.749,4.749,0,0,0,3.235,14.9a9.339,9.339,0,0,0,1.946,4.206q-.275.295-.53.581C1.964,22.7,0,25.922,0,26.456v.277H3.544L3.482,26.4A4.324,4.324,0,0,1,4.5,23.036a4.971,4.971,0,0,1,2.7-1.655,36.559,36.559,0,0,0,4.388,3.58h2.634v-.277a.9.9,0,0,0-.436-.769,1.965,1.965,0,0,0-1.648-.108,4.021,4.021,0,0,1-.946-2.5c5.716.506,11.184,2.814,17.353,6.037h3.395l.044-.223a1.448,1.448,0,0,0-.462-1.135Zm-27.451-3.3a5.029,5.029,0,0,0-1.181,3.5H.661a32.115,32.115,0,0,1,4.876-6.612q.546.675,1.214,1.362A5.472,5.472,0,0,0,4.075,22.683Z" fill="#000"/>
    <path d="M29.05,4.685c-.968.368-2.729,1.56-3.128,2.778a19.41,19.41,0,0,0-5.951.075c-.315-1.311-1.9-2.315-3.091-2.88a9.566,9.566,0,0,0-.67,4.216l-.007,0a13.423,13.423,0,0,0,6.863,11.734A13.2,13.2,0,0,0,29.6,8.668l0,0A16.048,16.048,0,0,0,29.05,4.685ZM29,9.094a11.882,11.882,0,0,1-5.878,10.76C17.205,16.9,16.09,9.435,17.1,5.427c.281,1.532.79,2.493,1.893,2.964a16.524,16.524,0,0,1,8.146-.07A4.536,4.536,0,0,0,28.763,5.47,21.635,21.635,0,0,1,29,9.094Z" fill="#000"/>
  </g>
</svg>
