<svg xmlns="http://www.w3.org/2000/svg" viewBox="0 0 16 16">
  <g>
    <g>
      <circle cx="8" cy="8" r="0.9"/>
      <path d="M11.767,4.234S8.714,8.205,8.46,8.459a.65.65,0,0,1-.919-.919C7.794,7.286,11.767,4.234,11.767,4.234Z"/>
      <rect x="9.936" y="3.315" width="1.249" height="0.5" transform="translate(2.193 10.929) rotate(-60.005)"/>
      <rect x="2.94" y="10.31" width="1.25" height="0.5" transform="translate(-4.805 3.201) rotate(-30.023)"/>
      <rect x="11.811" y="5.189" width="1.25" height="0.499" transform="translate(-1.053 6.952) rotate(-30.023)"/>
      <rect x="12.5" y="7.75" width="1.25" height="0.5"/>
      <rect x="2.25" y="7.75" width="1.25" height="0.5"/>
      <rect x="12.185" y="9.936" width="0.5" height="1.25" transform="matrix(0.5, -0.866, 0.866, 0.5, -2.93, 16.045)"/>
      <rect x="3.315" y="4.815" width="0.5" height="1.249" transform="translate(-2.928 5.805) rotate(-59.983)"/>
      <rect x="5.189" y="2.94" width="0.5" height="1.249" transform="matrix(0.866, -0.5, 0.5, 0.866, -1.054, 3.198)"/>
      <rect x="7.75" y="2.25" width="0.5" height="1.25"/>
    </g>
    <path d="M8,.5A7.5,7.5,0,1,0,15.5,8,7.5,7.5,0,0,0,8,.5Zm2,12a.5.5,0,0,1-.5.5h-3a.5.5,0,0,1-.5-.5v-1a.5.5,0,0,1,.5-.5h3a.5.5,0,0,1,.5.5Zm2.44.238a.5.5,0,0,1-.818-.253l-.338-1.35A1.5,1.5,0,0,0,9.829,10H6.171a1.5,1.5,0,0,0-1.455,1.136l-.338,1.35a.5.5,0,0,1-.818.254,6.5,6.5,0,1,1,8.879,0Z"/>
  </g>
</svg>
