<svg xmlns="http://www.w3.org/2000/svg" viewBox="0 0 32 32">
  <title>drive-small</title>
  <g>
    <rect x="22" y="25" width="2" height="2"/>
    <rect x="8" y="25" width="1" height="2"/>
    <rect x="10" y="25" width="1" height="2"/>
    <rect x="12" y="25" width="1" height="2"/>
    <rect x="14" y="25" width="1" height="2"/>
    <path d="M24,2H8A4,4,0,0,0,4,6V26a4,4,0,0,0,4,4H24a4,4,0,0,0,4-4V6A4,4,0,0,0,24,2ZM11.023,12.262c-.006-.069-.01-.137-.01-.208a2.439,2.439,0,0,1,3.318-2.28,3.992,3.992,0,0,1,7.042,2.579v0A2.891,2.891,0,0,1,20.483,18H11.517a2.89,2.89,0,0,1-.493-5.738ZM24,29H8a3,3,0,0,1,0-6H24a3,3,0,0,1,0,6Z"/>
  </g>
</svg>
