<svg xmlns="http://www.w3.org/2000/svg" viewBox="0 0 32 32">
  <title>rook</title>
  <g>
    <rect x="11" y="12" width="10" height="11" rx="0.5" ry="0.5"/>
    <path d="M10.707,24.293,7,28v2H25V28l-3.707-3.707A1,1,0,0,0,20.586,24H11.414A1,1,0,0,0,10.707,24.293Z"/>
    <path d="M7,2.5V7l3.707,3.707a1,1,0,0,0,.707.293h9.172a1,1,0,0,0,.707-.293L25,7V2.5a.5.5,0,0,0-.5-.5H21.724a.5.5,0,0,0-.493.418L20.87,4.582A.5.5,0,0,1,20.376,5H18.724a.5.5,0,0,1-.493-.418L17.87,2.418A.5.5,0,0,0,17.376,2H14.624a.5.5,0,0,0-.493.418L13.77,4.582A.5.5,0,0,1,13.276,5H11.624a.5.5,0,0,1-.493-.418L10.77,2.418A.5.5,0,0,0,10.276,2H7.5A.5.5,0,0,0,7,2.5Z"/>
  </g>
</svg>
