<svg xmlns="http://www.w3.org/2000/svg" viewBox="0 0 16 16">
  <title>icon_board</title>
  <g>
    <path d="M13.011,3.489a.5.5,0,0,0-.5-.489H3.489a.5.5,0,0,0-.5.489l-.178,8a.5.5,0,0,0,.5.511h9.378a.5.5,0,0,0,.5-.511ZM12,8,10.854,6.854l-2,2a.5.5,0,0,1-.707,0L6.5,7.207,4.854,8.854a.5.5,0,0,1-.707-.707l2-2a.5.5,0,0,1,.707,0L8.5,7.793l1.646-1.646L9,5h3Z"/>
    <path d="M9,1A1,1,0,0,0,7,1H6V2h4V1Z"/>
    <path d="M14,13H2v1H4.187l-.324,1.386a.5.5,0,0,0,.373.6A.513.513,0,0,0,4.351,16a.5.5,0,0,0,.486-.386L5.214,14h5.573l.377,1.614a.5.5,0,0,0,.486.386.513.513,0,0,0,.114-.013.5.5,0,0,0,.373-.6L11.813,14H14Z"/>
  </g>
</svg>
