<svg xmlns="http://www.w3.org/2000/svg" viewBox="0 0 32 32">
  <title>service</title>
  <g>
    <path d="M23.491,19.281l.337.967a1.75,1.75,0,0,1-.784,2.094l-1.5.856a1.75,1.75,0,0,1-2.193-.375l-.6-.694-.172.9a1.75,1.75,0,0,1-1.719,1.422H15.137a1.75,1.75,0,0,1-1.719-1.422l-.172-.9-.6.694a1.75,1.75,0,0,1-2.193.375l-1.5-.856a1.75,1.75,0,0,1-.784-2.094l.337-.967L2,23l14,8,14-8Z"/>
    <path d="M26.851,12.714V10.988L24.7,10.577A8.731,8.731,0,0,0,24.173,8.6l1.655-1.429-.856-1.5L22.9,6.4a8.836,8.836,0,0,0-1.445-1.445l.722-2.074-1.5-.856L19.248,3.678a8.733,8.733,0,0,0-1.974-.524L16.863,1H15.137l-.411,2.154a8.733,8.733,0,0,0-1.974.524L11.322,2.023l-1.5.856.722,2.074A8.836,8.836,0,0,0,9.1,6.4L7.028,5.676l-.856,1.5L7.827,8.6A8.731,8.731,0,0,0,7.3,10.577l-2.154.411v1.726l2.154.411A8.733,8.733,0,0,0,7.827,15.1L6.172,16.529l.856,1.5L9.1,17.3a8.838,8.838,0,0,0,1.445,1.445l-.722,2.074,1.5.856,1.429-1.655a8.731,8.731,0,0,0,1.974.524l.411,2.154h1.726l.411-2.154a8.731,8.731,0,0,0,1.974-.524l1.429,1.655,1.5-.856-.722-2.074A8.838,8.838,0,0,0,22.9,17.3l2.074.722.856-1.5L24.173,15.1a8.733,8.733,0,0,0,.524-1.974ZM16,5.147a6.7,6.7,0,0,1,6.647,5.866H17.452A1.676,1.676,0,0,1,16,10.175l-2.6-4.5A6.683,6.683,0,0,1,16,5.147Zm-6.7,6.7a6.687,6.687,0,0,1,2.656-5.335l2.6,4.5a1.676,1.676,0,0,1,0,1.676l-2.6,4.5A6.687,6.687,0,0,1,9.3,11.851Zm6.7,6.7a6.683,6.683,0,0,1-2.6-.524l2.6-4.5a1.676,1.676,0,0,1,1.452-.838h5.195A6.7,6.7,0,0,1,16,18.556Z"/>
  </g>
</svg>
