<svg xmlns="http://www.w3.org/2000/svg" viewBox="0 0 32 32">
  <title>icon_file-dockerfile</title>
  <g>
    <g>
      <path d="M28,6V30H4V2H24V0H4A2,2,0,0,0,2,2V30a2,2,0,0,0,2,2H28a2,2,0,0,0,2-2V6Z"/>
      <path d="M25,0V3a2,2,0,0,0,2,2h3Z"/>
    </g>
    <g>
      <path d="M24.7,15.283a2.523,2.523,0,0,0-1.867-.169,2.483,2.483,0,0,0-1.009-1.581l-.2-.158-.169.19a2.092,2.092,0,0,0-.395,1.505,1.93,1.93,0,0,0,.377,1.011,2.932,2.932,0,0,1-.543.239,3.631,3.631,0,0,1-1.118.182H9.214l-.023.236a4.417,4.417,0,0,0,.371,2.3l.144.286.016.027A5.679,5.679,0,0,0,14.6,21.84a7.982,7.982,0,0,0,7.868-5.129A2.35,2.35,0,0,0,24.8,15.627l.116-.22-.221-.124ZM12.291,19.548a.825.825,0,1,1,.849-.825.838.838,0,0,1-.849.825Z"/>
      <rect x="10.002" y="14.5" width="1.5" height="1.5"/>
      <rect x="12.002" y="14.5" width="1.5" height="1.5"/>
      <rect x="12.002" y="12.5" width="1.5" height="1.5"/>
      <rect x="14.002" y="12.5" width="1.5" height="1.5"/>
      <rect x="14.002" y="14.5" width="1.5" height="1.5"/>
      <rect x="16.002" y="14.5" width="1.5" height="1.5"/>
      <rect x="18.002" y="14.5" width="1.5" height="1.5"/>
      <rect x="16.002" y="12.5" width="1.5" height="1.5"/>
      <rect x="16.002" y="10.5" width="1.5" height="1.5"/>
    </g>
  </g>
</svg>
