<svg xmlns="http://www.w3.org/2000/svg" viewBox="0 0 16 16">
  <title>icon_setting</title>
  <path d="M15.6,6.75H13.265a.614.614,0,0,1-.572-.423,4.94,4.94,0,0,0-.192-.461.614.614,0,0,1,.105-.705L14.258,3.51a.4.4,0,0,0,0-.566l-1.2-1.2a.4.4,0,0,0-.566,0L10.839,3.394a.614.614,0,0,1-.705.105,4.931,4.931,0,0,0-.461-.192.614.614,0,0,1-.423-.572V.4a.4.4,0,0,0-.4-.4H7.15a.4.4,0,0,0-.4.4V2.735a.614.614,0,0,1-.423.572,4.931,4.931,0,0,0-.461.192.614.614,0,0,1-.705-.105L3.51,1.742a.4.4,0,0,0-.566,0l-1.2,1.2a.4.4,0,0,0,0,.566L3.394,5.161a.614.614,0,0,1,.105.705,4.94,4.94,0,0,0-.192.461.614.614,0,0,1-.572.423H.4a.4.4,0,0,0-.4.4v1.7a.4.4,0,0,0,.4.4H2.735a.614.614,0,0,1,.572.423,4.933,4.933,0,0,0,.192.461.614.614,0,0,1-.105.705L1.742,12.49a.4.4,0,0,0,0,.566l1.2,1.2a.4.4,0,0,0,.566,0l1.651-1.651a.614.614,0,0,1,.705-.105,4.932,4.932,0,0,0,.461.192.614.614,0,0,1,.423.572V15.6a.4.4,0,0,0,.4.4h1.7a.4.4,0,0,0,.4-.4V13.265a.614.614,0,0,1,.423-.572,4.932,4.932,0,0,0,.461-.192.614.614,0,0,1,.705.105l1.651,1.651a.4.4,0,0,0,.566,0l1.2-1.2a.4.4,0,0,0,0-.566l-1.651-1.651a.614.614,0,0,1-.105-.705,4.933,4.933,0,0,0,.192-.461.614.614,0,0,1,.572-.423H15.6a.4.4,0,0,0,.4-.4V7.15A.4.4,0,0,0,15.6,6.75ZM8,10a2,2,0,1,1,2-2A2,2,0,0,1,8,10Z"/>
</svg>
