<svg xmlns="http://www.w3.org/2000/svg" viewBox="0 0 32 32">
  <title>linux</title>
  <g>
    <path d="M29.488,27.231c0,.718-.865,1.312-2.9,1.948-1.638.512-2.618,2.744-4.673,2.457-1.605-.224-1.55-1.164-2.55-1.53-.926-.338-5.512-.424-6.716.765-1.51,1.49-4.714.018-5.828-.271-1.5-.389-3.808-.672-4.113-1.385-.319-.745.272-1.17.5-2.148.125-.543-.67-1.772-.395-2.384.385-.854,1.71-.275,2.355-.642a1.385,1.385,0,0,0,.885-1.479c.276.9.129,1.459-.559,1.851-.854.486-1.975-.063-2.191.449-.243.578.617,1.483.448,2.352-.2,1.026-.7,1.263-.463,1.762.19.4,2.58.71,3.887,1.015,1.081.253,3.868,1.553,4.925.117.734-1-.484-2.966-.6-3.163A34.83,34.83,0,0,0,8.55,22.719c-1.513-1.584-1.866-.561-2.108-.675s-.336-1.529.432-2.678c.589-.883,1.161-3.079,1.886-4.417.323-.6,2.846-3.7,2.846-4.347C11.6,8.158,9.584.567,15.411.354c5-.183,5.517,4.435,5.517,5.657a9.9,9.9,0,0,0,.524,3.736c1.489,3.857,3.221,3.724,4.593,8.019,1.241,3.884.351,4.848-.063,4.835-.973-.029-.973,2.042-2.8,1.72-1.2-.211-1.2-1.955-2-1.692-.607.2-.623,1.578-.361,2.437.707,2.317-1.062,4.788.84,5.6,1.715.735,2.75-1.39,4.373-1.918,2.421-.789,2.935-1.169,2.928-1.616-.009-.567-1.03-.619-1.683-1.161a2.122,2.122,0,0,1-.811-1.789,2.03,2.03,0,0,1,.273-.979,3.438,3.438,0,0,0,.856,2.315C28.435,26.231,29.488,26.159,29.488,27.231ZM21.746,20.6c-.118-.483-.095-2.465-.263-3.168-.572-2.4-1.356-2.868-1.359-2.884-.411-2.675-1.74-3.168-1.74-4.292,0-.535.229-.744.229-1.456,0-.447-.738-.447-1.228-.682-.248-.119-1.034-.452-1.034-.452a1.518,1.518,0,0,1-.151-.679c0-.1.038-1.14.855-1.14.965,0,.959,1.156.959,1.156,0,.41-.181.466-.181.708,0,.136.167.206.3.206.264,0,.491-.286.529-.685.1-1.077-.281-2.346-1.484-2.444-1.69-.139-1.667,1.737-1.571,2.6a1.768,1.768,0,0,0-1.362-.158c0-1.168-.24-2.325-1.065-2.269s-1.024,1.011-1.024,1.542c0,1,.416,1.406.517,1.448s.263-.051.332-.179c.047-.1-.048-.14-.122-.14-.117,0-.436-.383-.436-.838,0-.361.162-.889.709-.889.435,0,.662.587.679,1A2.117,2.117,0,0,1,13.8,7.4a7.007,7.007,0,0,1-1.015.854c-.229.13-.639.429-.639.747a.271.271,0,0,0,.142.256c.358.156.731,1.013,1.659,1.013a6.835,6.835,0,0,0,3.627-1.035c.15-.215.356-.282.46-.149.149.19-.081.423-.3.468A22.249,22.249,0,0,1,14.4,10.711c-.87.072-1.183-.278-1.2-.059a1.945,1.945,0,0,0,1.46.736c1.092-.076,2.091-.921,2.8-1.176.282-.1.391-.017.419.049s.061.256-.341.4c-1.107.407-2.564,1.907-3.233,1.907-.967,0-1.623-1.86-1.934-1.794-.074.016,0,.405-.169.885-.154.426-.721,1.325-.931,1.937a1.715,1.715,0,0,0,.1,1.454,7.241,7.241,0,0,0-1.953,5.132c.119,1.621-.4,1.335-.4,1.335a6.509,6.509,0,0,0,2,2.324c.978.786,1.894,1.639,1.919,2.128a1.508,1.508,0,0,1-.361.781,4.484,4.484,0,0,0,.765.87,3.279,3.279,0,0,0,2.9.629,4.035,4.035,0,0,0,3.09-1.519c.307-.416,1.177-1.091.995-1.716-.254-.868-.281-3.185,1.221-2.848a1.148,1.148,0,0,1,.618-.989S21.874,21.125,21.746,20.6Z"/>
    <path d="M15.655,7.868q-.072,0-.164-.163a.288.288,0,0,0-.274-.157q.455-.074.53.182A.1.1,0,0,1,15.655,7.868Z"/>
    <path d="M14.3,7.543a.315.315,0,0,0-.278.173c-.15.273-.241.139-.239.069C13.791,7.476,14.237,7.541,14.3,7.543Z"/>
  </g>
</svg>
