<svg xmlns="http://www.w3.org/2000/svg" viewBox="0 0 32 32">
  <title>icon_python</title>
  <path d="M11.94,3.2C9.46,3.6,9,4.5,9,6.2V8h6V9H7a3.776,3.776,0,0,0-3.6,3.16,11.144,11.144,0,0,0,0,5.9C3.8,19.8,4.8,21,6.54,21H9V18.56a3.7,3.7,0,0,1,3.66-3.6h5.4A2.962,2.962,0,0,0,21,12V6.26a3.2,3.2,0,0,0-2.94-3A14.382,14.382,0,0,0,15,3a18.19,18.19,0,0,0-3.04.2ZM11,5h2V7H11Zm9.06,23.8c2.48-.4,2.94-1.32,2.94-3V24H17V23h8a3.776,3.776,0,0,0,3.6-3.16,11.144,11.144,0,0,0,0-5.9C28.2,12.2,27.2,11,25.46,11H23v2.44a3.7,3.7,0,0,1-3.66,3.6h-5.4A2.962,2.962,0,0,0,11,20v5.74a3.2,3.2,0,0,0,2.94,3,15.609,15.609,0,0,0,3.04.26,18.584,18.584,0,0,0,3.06-.2ZM21,27H19V25h2Z"/>
</svg>
