<svg xmlns="http://www.w3.org/2000/svg" viewBox="0 0 32 32">
  <title>icon_setting</title>
  <path d="M31.2,13.5H26.53a1.228,1.228,0,0,1-1.144-.845A9.879,9.879,0,0,0,25,11.733a1.228,1.228,0,0,1,.21-1.41l3.3-3.3a.8.8,0,0,0,0-1.131l-2.4-2.4a.8.8,0,0,0-1.131,0l-3.3,3.3a1.228,1.228,0,0,1-1.41.21,9.861,9.861,0,0,0-.922-.384A1.228,1.228,0,0,1,18.5,5.47V.8a.8.8,0,0,0-.8-.8H14.3a.8.8,0,0,0-.8.8V5.47a1.228,1.228,0,0,1-.845,1.144A9.861,9.861,0,0,0,11.733,7a1.228,1.228,0,0,1-1.41-.21l-3.3-3.3a.8.8,0,0,0-1.131,0l-2.4,2.4a.8.8,0,0,0,0,1.131l3.3,3.3A1.228,1.228,0,0,1,7,11.733a9.879,9.879,0,0,0-.384.922A1.228,1.228,0,0,1,5.47,13.5H.8a.8.8,0,0,0-.8.8v3.4a.8.8,0,0,0,.8.8H5.47a1.228,1.228,0,0,1,1.144.845A9.866,9.866,0,0,0,7,20.267a1.228,1.228,0,0,1-.21,1.41l-3.3,3.3a.8.8,0,0,0,0,1.131l2.4,2.4a.8.8,0,0,0,1.131,0l3.3-3.3a1.228,1.228,0,0,1,1.41-.21,9.864,9.864,0,0,0,.922.384A1.228,1.228,0,0,1,13.5,26.53V31.2a.8.8,0,0,0,.8.8h3.4a.8.8,0,0,0,.8-.8V26.53a1.228,1.228,0,0,1,.845-1.144A9.864,9.864,0,0,0,20.267,25a1.228,1.228,0,0,1,1.41.21l3.3,3.3a.8.8,0,0,0,1.131,0l2.4-2.4a.8.8,0,0,0,0-1.131l-3.3-3.3a1.228,1.228,0,0,1-.21-1.41,9.866,9.866,0,0,0,.384-.922A1.228,1.228,0,0,1,26.53,18.5H31.2a.8.8,0,0,0,.8-.8V14.3A.8.8,0,0,0,31.2,13.5ZM16,20a4,4,0,1,1,4-4A4,4,0,0,1,16,20Z"/>
</svg>
