<svg xmlns="http://www.w3.org/2000/svg" viewBox="0 0 32 32">
  <title>hashtag</title>
  <g>
    <path d="M27.9,2H4.1A2.1,2.1,0,0,0,2,4.1V27.9A2.1,2.1,0,0,0,4.1,30H27.9A2.1,2.1,0,0,0,30,27.9V4.1A2.1,2.1,0,0,0,27.9,2ZM25,14H20.984L19.9,18H24v2H19.357l-1.335,4.921H15.731L17.065,20h-4.3l-1.335,4.921H9.139L10.473,20H7V18h4.016L12.1,14H8V12h4.643l1.335-4.922h2.292L14.935,12h4.3l1.335-4.922h2.292L21.527,12H25v2Z"/>
    <polygon points="13.308 18 17.608 18 18.692 14 14.392 14 13.308 18"/>
  </g>
</svg>
