<svg xmlns="http://www.w3.org/2000/svg" viewBox="0 0 16 16">
  <title>icon_file-code</title>
  <g>
    <g>
      <path d="M14,15H2V1h9V0H2A1,1,0,0,0,1,1V15a1,1,0,0,0,1,1H14a1,1,0,0,0,1-1V4H14Z"/>
      <path d="M15,3H13a1,1,0,0,1-1-1V0Z"/>
    </g>
    <path d="M6.5,11a.5.5,0,0,1-.354-.146l-2-2a.5.5,0,0,1,0-.707l2-2a.5.5,0,0,1,.707.707L5.207,8.5l1.646,1.646A.5.5,0,0,1,6.5,11Z"/>
    <path d="M9.5,11a.5.5,0,0,1-.354-.854L10.793,8.5,9.146,6.854a.5.5,0,0,1,.707-.707l2,2a.5.5,0,0,1,0,.707l-2,2A.5.5,0,0,1,9.5,11Z"/>
  </g>
</svg>
