<svg xmlns="http://www.w3.org/2000/svg" viewBox="0 0 32 32">
  <g>
    <path d="M26.436,25.489c-1.692-1.295-.056-5.041-2.375-7.36a3.938,3.938,0,0,0-2.629-1.3,8.3,8.3,0,0,1,1.073-3.294,8.8,8.8,0,0,0,1.019-4.012,7.524,7.524,0,1,0-15.048,0,8.8,8.8,0,0,0,1.019,4.012,8.3,8.3,0,0,1,1.073,3.294,3.938,3.938,0,0,0-2.629,1.3c-2.319,2.319-.683,6.065-2.375,7.36-1.233.944-1.875,0.95-1.567,1.7,0.231,0.567,1.6,1.3,3.667-.244,2.254-1.68,1.523-4.405,2.807-5.689a1.961,1.961,0,0,1,1.417-.5c-0.341,1.538-.184,2.866-0.59,4.754-0.608,2.826-2.451,3.57-1.206,4.373,0.783,0.5,2.779-.664,4.026-3.363,0.818-1.77.769-2.766,1.882-3.831,1.113,1.065,1.064,2.062,1.882,3.831,1.247,2.7,3.243,3.867,4.026,3.363,1.245-.8-0.6-1.546-1.206-4.373-0.406-1.888-.249-3.216-0.59-4.754a1.961,1.961,0,0,1,1.417.5c1.284,1.284.553,4.009,2.807,5.689,2.068,1.542,3.435.811,3.667,0.244C28.311,26.439,27.67,26.433,26.436,25.489Z"/>
    <path d="M26.537,23c-0.011-.385-0.04-0.726-0.08-1.041a1.859,1.859,0,0,0,2.32-.091,1.531,1.531,0,0,0-.407-2.447,0.557,0.557,0,0,1-.247-0.789,0.754,0.754,0,0,1,.992-0.148,2.911,2.911,0,0,1,1.112,4.288,3.641,3.641,0,0,1-2.881,1.64,0.66,0.66,0,0,1-.719-0.526A4.828,4.828,0,0,1,26.537,23Z"/>
    <path d="M5.463,23c0.011-.385.04-0.726,0.08-1.041a1.859,1.859,0,0,1-2.32-.091,1.531,1.531,0,0,1,.407-2.447,0.557,0.557,0,0,0,.247-0.789,0.754,0.754,0,0,0-.992-0.148,2.911,2.911,0,0,0-1.112,4.288,3.641,3.641,0,0,0,2.881,1.64,0.66,0.66,0,0,0,.719-0.526A4.828,4.828,0,0,0,5.463,23Z"/>
  </g>
</svg>
