<svg xmlns="http://www.w3.org/2000/svg" viewBox="0 0 16 16">
  <title>icon_ci-add</title>
  <g>
    <path d="M17.5,7A4.5,4.5,0,1,0,22,11.5,4.5,4.5,0,0,0,17.5,7ZM20,12H18v2H17V12H15V11h2V9h1v2h2Z"/>
    <g>
      <path d="M15.554,3.786a3.469,3.469,0,0,1,2.192,2.226,5.487,5.487,0,0,1,1.084.156,4.5,4.5,0,0,0-2.965-3.333,4.207,4.207,0,0,0-4.322,1.052L4.76,10.4a3.233,3.233,0,0,1-3.314.818A3.573,3.573,0,0,1-.93,8.284,5.621,5.621,0,0,1-1,7.336a3.648,3.648,0,0,1,2.31-3.511,3.057,3.057,0,0,1,3.208.656L3,6H7V2L5.224,3.776A4.072,4.072,0,0,0,.962,2.888,4.735,4.735,0,0,0-2,7.416a6.411,6.411,0,0,0,.083,1.029,4.555,4.555,0,0,0,3.052,3.719,4.207,4.207,0,0,0,1.318.213,4.267,4.267,0,0,0,3-1.265L12.24,4.6A3.229,3.229,0,0,1,15.554,3.786Z"/>
      <path d="M12.161,10.2,10.874,8.751l-.747.664,1.331,1.5a4.622,4.622,0,0,0,.546.516A5.5,5.5,0,0,1,12.161,10.2Z"/>
    </g>
  </g>
</svg>
