<svg xmlns="http://www.w3.org/2000/svg" viewBox="0 0 32 32">
  <path d="M16,1.2A14.8,14.8,0,1,0,30.8,16,14.8,14.8,0,0,0,16,1.2ZM3.314,16a12.634,12.634,0,0,1,.369-3H9.965a21.026,21.026,0,0,0,0,6H3.684A12.634,12.634,0,0,1,3.314,16Zm8.55,0a19.918,19.918,0,0,1,.238-3h7.8a19.952,19.952,0,0,1,.237,3,19.826,19.826,0,0,1-.239,3H12.1A19.927,19.927,0,0,1,11.864,16Zm10.171-3h6.282a12.362,12.362,0,0,1,0,6H22.035a22.1,22.1,0,0,0,.215-3A22.085,22.085,0,0,0,22.035,13Zm5.611-2H21.677a22.213,22.213,0,0,0-3.271-7.45A12.724,12.724,0,0,1,27.646,11ZM16,3.837A20.1,20.1,0,0,1,19.5,11h-7A20.118,20.118,0,0,1,16,3.837Zm-2.416-.286A22.23,22.23,0,0,0,10.322,11H4.354A12.724,12.724,0,0,1,13.586,3.551ZM4.354,21h5.969a22.243,22.243,0,0,0,3.271,7.451A12.724,12.724,0,0,1,4.354,21Zm11.639,7.153A20.111,20.111,0,0,1,12.5,21H19.5A20.156,20.156,0,0,1,15.993,28.153Zm2.412,0.3A22.194,22.194,0,0,0,21.677,21h5.969A12.724,12.724,0,0,1,18.405,28.451Z"/>
</svg>
