<svg xmlns="http://www.w3.org/2000/svg" viewBox="0 0 32 32">
  <g>
    <path d="M15.9,2.2A13.9,13.9,0,0,0,2,16.091H2V26.847H2A3.16,3.16,0,0,0,5.161,30H15.906A13.9,13.9,0,0,0,15.9,2.2Zm5.323,6.459c-.44,0-.6-.084-1.242-.084a3.443,3.443,0,0,0-3.443,3.438V14.99h0a.486.486,0,0,0,.486.486h2.262a1.519,1.519,0,1,1,0,3.037H16.538v3.472a6.524,6.524,0,0,1-6.524,6.524,5.187,5.187,0,0,1-1.441-.194,1.682,1.682,0,0,1-1.341-1.5,1.44,1.44,0,0,1,1.54-1.469c.439,0,.6.084,1.242.084a3.444,3.444,0,0,0,3.444-3.438V19a.486.486,0,0,0-.486-.485H10.709a1.519,1.519,0,1,1,.016-3.037h2.732V12.019a6.524,6.524,0,0,1,6.524-6.524,5.178,5.178,0,0,1,1.441.194,1.683,1.683,0,0,1,1.341,1.5A1.439,1.439,0,0,1,21.224,8.659Z" opacity="0.7"/>
    <g>
      <path d="M19.992,8.564a3.476,3.476,0,0,0-3.459,3.459v2.958a.513.513,0,0,0,.5.5h2.958a3.459,3.459,0,0,0,0-6.919Z"/>
      <path d="M12.968,18.52H10.01a3.459,3.459,0,1,0,3.459,3.459V19A.491.491,0,0,0,12.968,18.52Z"/>
      <path d="M15.9,2.2A13.9,13.9,0,0,0,2,16.091H2V26.847H2A3.16,3.16,0,0,0,5.161,30H15.906A13.9,13.9,0,0,0,15.9,2.2Zm4.092,16.32H16.533v3.459a6.523,6.523,0,1,1-6.523-6.5H13.47V12.024a6.523,6.523,0,1,1,6.523,6.5Z"/>
    </g>
  </g>
</svg>
