<svg xmlns="http://www.w3.org/2000/svg" viewBox="0 0 32 32">
  <title>shop-line</title>
  <g>
    <path d="M29.714,9.092,28.18,5.257A2,2,0,0,0,26.323,4H5.677A2,2,0,0,0,3.82,5.257L2.286,9.092A4,4,0,0,0,2,10.578v.688a4.515,4.515,0,0,0,2,3.752V27.9A2.1,2.1,0,0,0,6.1,30H25.9A2.1,2.1,0,0,0,28,27.9V15.018a4.515,4.515,0,0,0,2-3.752v-.688A4,4,0,0,0,29.714,9.092ZM6,28V15.688A4.213,4.213,0,0,0,9.5,14.16,4.26,4.26,0,0,0,12,15.63V28Zm8,0V15.506a4.3,4.3,0,0,0,2-1.346,4.191,4.191,0,0,0,6.5,0A4.213,4.213,0,0,0,26,15.688V28ZM28,11.455a2.252,2.252,0,0,1-2.485,2.238A2.342,2.342,0,0,1,23.5,11.322v-.367a1,1,0,0,0-2,0v.367a2.342,2.342,0,0,1-2.015,2.371A2.252,2.252,0,0,1,17,11.455v-.5a1,1,0,0,0-2,0v.367a2.342,2.342,0,0,1-2.015,2.371A2.252,2.252,0,0,1,10.5,11.455v-.5a1,1,0,0,0-2,0v.367a2.342,2.342,0,0,1-2.015,2.371A2.252,2.252,0,0,1,4,11.455v-.492a4,4,0,0,1,.286-1.486L5.677,6H26.323l1.391,3.477A4,4,0,0,1,28,10.963Z"/>
    <rect x="15.172" y="19" width="5.657" height="2" transform="translate(-8.87 18.586) rotate(-45)"/>
    <rect x="16.757" y="22" width="8.485" height="2" transform="translate(-10.113 21.586) rotate(-45)"/>
  </g>
</svg>
