<svg xmlns="http://www.w3.org/2000/svg" viewBox="0 0 32 32">
  <g>
    <path d="M23,5a3.949,3.949,0,0,0-3.851,5.023l-9.125,9.125A3.991,3.991,0,1,0,13,23a3.962,3.962,0,0,0-.149-1.023l9.125-9.125A3.993,3.993,0,1,0,23,5ZM9,25a2,2,0,1,1,2-2A2,2,0,0,1,9,25ZM23,11a2,2,0,1,1,2-2A2,2,0,0,1,23,11Z"/>
    <path d="M16,20.95V30H2V16h9.05l2-2H2.1A2.1,2.1,0,0,0,0,16.1V29.9A2.1,2.1,0,0,0,2.1,32H15.9A2.1,2.1,0,0,0,18,29.9V18.95Z"/>
    <path d="M14,2.1V13.05l2-2V2H30V16H20.95l-2,2H29.9A2.1,2.1,0,0,0,32,15.9V2.1A2.1,2.1,0,0,0,29.9,0H16.1A2.1,2.1,0,0,0,14,2.1Z"/>
  </g>
</svg>
