<svg xmlns="http://www.w3.org/2000/svg" viewBox="0 0 32 32">
  <title>icon_setting</title>
  <path d="M31.2,13.5H27.83a2.4,2.4,0,0,1-1.7-4.1L28.516,7.02a.8.8,0,0,0,0-1.131l-2.4-2.4a.8.8,0,0,0-1.131,0L22.6,5.867a2.4,2.4,0,0,1-4.1-1.7V.8a.8.8,0,0,0-.8-.8H14.3a.8.8,0,0,0-.8.8V4.17a2.4,2.4,0,0,1-4.1,1.7L7.02,3.484a.8.8,0,0,0-1.131,0l-2.4,2.4a.8.8,0,0,0,0,1.131L5.868,9.4a2.4,2.4,0,0,1-1.7,4.1H.8a.8.8,0,0,0-.8.8v3.4a.8.8,0,0,0,.8.8H4.17a2.4,2.4,0,0,1,1.7,4.1L3.484,24.98a.8.8,0,0,0,0,1.131l2.4,2.4a.8.8,0,0,0,1.131,0L9.4,26.133a2.4,2.4,0,0,1,4.1,1.7V31.2a.8.8,0,0,0,.8.8h3.4a.8.8,0,0,0,.8-.8V27.83a2.4,2.4,0,0,1,4.1-1.7l2.383,2.383a.8.8,0,0,0,1.131,0l2.4-2.4a.8.8,0,0,0,0-1.131L26.133,22.6a2.4,2.4,0,0,1,1.7-4.1H31.2a.8.8,0,0,0,.8-.8V14.3A.8.8,0,0,0,31.2,13.5ZM16,20a4,4,0,1,1,4-4A4,4,0,0,1,16,20Z"/>
</svg>
