<svg xmlns="http://www.w3.org/2000/svg" viewBox="0 0 16 16">
  <title>icon_exclamation-bubble</title>
  <g>
    <path d="M8,0A7.771,7.771,0,0,0,0,7.5a7.215,7.215,0,0,0,2.508,5.446c-.107.194-.209.362-.3.511A2.382,2.382,0,0,0,1.746,14.6a1.309,1.309,0,0,0,1.272,1.342l.1,0a5.766,5.766,0,0,0,2.979-1.161A8.5,8.5,0,0,0,8,15a7.771,7.771,0,0,0,8-7.5A7.771,7.771,0,0,0,8,0ZM8,14a7.487,7.487,0,0,1-2.124-.307,5.166,5.166,0,0,1-2.762,1.252H3.061a.305.305,0,0,1-.316-.3c.014-.321.519-.842,1.016-1.98A6.338,6.338,0,0,1,1,7.5,6.764,6.764,0,0,1,8,1a6.764,6.764,0,0,1,7,6.5A6.764,6.764,0,0,1,8,14Z"/>
    <circle cx="8" cy="11" r="1"/>
    <path d="M8,9a.83.83,0,0,0,.829-.8l.135-3.706A.96.96,0,0,0,8,3.5H8a.96.96,0,0,0-.959.995L7.171,8.2A.83.83,0,0,0,8,9Z"/>
  </g>
</svg>
