<svg xmlns="http://www.w3.org/2000/svg" viewBox="0 0 32 32">
  <g>
    <polygon points="5 10.029 6.1 8.929 6.808 8.222 7.515 8.929 12.586 14 14 14 14 12.586 8.929 7.515 8.222 6.807 8.929 6.1 10.029 5 5 5 5 10.029"/>
    <polygon points="14 11.172 14 5 11.445 5 11.444 5 9.636 6.808 14 11.172"/>
    <polygon points="5 11.444 5 14 11.172 14 6.808 9.636 5 11.444"/>
    <polygon points="23.778 6.808 23.071 7.515 18 12.586 18 14 19.414 14 24.486 8.929 25.193 8.222 25.9 8.929 27 10.029 27 5 21.971 5 23.071 6.1 23.778 6.808"/>
    <polygon points="20.828 14 27 14 27 11.444 25.192 9.636 20.828 14"/>
    <polygon points="4 17 12.172 17 13.172 16 12.172 15 4 15 4 12.444 0.444 16 4 19.556 4 17"/>
    <polygon points="12.445 4 15 4 15 12.172 16 13.172 17 12.172 17 4 19.556 4 16 0.444 12.445 4"/>
    <polygon points="18 11.172 22.364 6.808 20.556 5 18 5 18 11.172"/>
    <polygon points="18 20.828 18 27 20.556 27 22.364 25.192 18 20.828"/>
    <polygon points="20.828 18 25.192 22.364 27 20.556 27 18 20.828 18"/>
    <polygon points="26.999 21.971 25.899 23.071 25.192 23.778 24.485 23.071 19.414 18 18 18 18 19.414 23.071 24.486 23.778 25.193 23.071 25.9 21.971 27 26.999 27 26.999 21.971"/>
    <polygon points="6.808 22.364 11.172 18 5 18 5 20.556 6.808 22.364"/>
    <polygon points="28 15 19.828 15 18.828 16 19.828 17 28 17 28 19.556 31.556 16 28 12.444 28 15"/>
    <polygon points="8.222 25.192 8.929 24.485 14 19.414 14 18 12.586 18 7.514 23.071 6.807 23.778 6.1 23.071 5 21.971 5 27 10.029 27 8.929 25.9 8.222 25.192"/>
    <polygon points="19.556 28 17 28 17 19.828 16 18.828 15 19.828 15 28 12.444 28 16 31.556 19.556 28"/>
    <polygon points="14 20.828 9.636 25.192 11.444 27 14 27 14 20.828"/>
  </g>
</svg>
