<svg xmlns="http://www.w3.org/2000/svg" viewBox="0 0 32 32">
  <title>notebook</title>
  <g>
    <rect x="10" y="10" width="12" height="2"/>
    <rect x="10" y="15" width="12" height="2"/>
    <polygon points="16 26.172 16 29 18.828 29 27.314 20.515 24.485 17.686 16 26.172"/>
    <polygon points="19.343 20 10 20 10 22 17.343 22 19.343 20"/>
    <path d="M22.657,28H23.9A2.1,2.1,0,0,0,26,25.9h0V24.657Z"/>
    <path d="M23.9,4H22L20,2H12L10,4H8.1A2.1,2.1,0,0,0,6,6.1H6V25.9A2.1,2.1,0,0,0,8.1,28H14V26H8V6H24v9.343l.485-.485L25.9,16.272l.1.1V6.1A2.1,2.1,0,0,0,23.9,4Z"/>
  </g>
</svg>
