<svg xmlns="http://www.w3.org/2000/svg" viewBox="0 0 32 32">
  <path d="M26.45,16c2.868-2.838,4.461-5.774,3.233-7.9s-4.567-2.215-8.458-1.15C20.2,3.048,18.455.2,16,.2s-4.2,2.848-5.225,6.75C6.884,5.885,3.544,5.974,2.317,8.1S2.682,13.162,5.55,16c-2.868,2.838-4.461,5.774-3.233,7.9s4.567,2.215,8.458,1.15c1.024,3.9,2.77,6.75,5.225,6.75s4.2-2.848,5.225-6.75c3.891,1.065,7.231.976,8.458-1.15S29.318,18.838,26.45,16Zm1.5-6.9c0.67,1.16-.23,3.406-2.558,5.909a35.489,35.489,0,0,0-3.252-2.555,35.48,35.48,0,0,0-.587-4.094C24.887,7.6,27.281,7.94,27.951,9.1ZM18.5,20.33c-0.852.492-1.686,0.927-2.5,1.315-0.814-.389-1.648-0.823-2.5-1.315s-1.646-1-2.389-1.508C11.041,17.924,11,16.984,11,16s0.041-1.924.111-2.823c0.743-.51,1.537-1.015,2.389-1.508s1.686-.927,2.5-1.315c0.814,0.389,1.648.823,2.5,1.315s1.646,1,2.389,1.508C20.959,14.076,21,15.016,21,16s-0.041,1.924-.111,2.823C20.146,19.333,19.352,19.838,18.5,20.33ZM20.715,20.5a27.173,27.173,0,0,1-.51,2.784,27.149,27.149,0,0,1-2.666-.95c0.543-.282,1.083-0.572,1.611-0.877S20.2,20.829,20.715,20.5Zm-6.254,1.834a27.149,27.149,0,0,1-2.666.95,27.173,27.173,0,0,1-.51-2.784c0.516,0.329,1.037.652,1.565,0.957S13.918,22.051,14.461,22.333Zm-4.715-4.5A27.178,27.178,0,0,1,7.59,16a27.178,27.178,0,0,1,2.156-1.834C9.719,14.778,9.7,15.39,9.7,16S9.719,17.222,9.746,17.834ZM11.285,11.5a27.175,27.175,0,0,1,.51-2.784,27.163,27.163,0,0,1,2.666.95c-0.543.282-1.083,0.572-1.611,0.877S11.8,11.171,11.285,11.5Zm6.254-1.834a27.163,27.163,0,0,1,2.666-.95,27.175,27.175,0,0,1,.51,2.784c-0.516-.329-1.037-0.652-1.565-0.957S18.082,9.949,17.539,9.667Zm4.715,4.5A27.178,27.178,0,0,1,24.41,16a27.178,27.178,0,0,1-2.156,1.834C22.281,17.222,22.3,16.61,22.3,16S22.281,14.778,22.254,14.166ZM16,2.2c1.339,0,2.834,1.9,3.839,5.17A35.5,35.5,0,0,0,16,8.909,35.5,35.5,0,0,0,12.161,7.37C13.166,4.1,14.661,2.2,16,2.2ZM4.049,9.1c0.67-1.16,3.064-1.5,6.4-.739a35.48,35.48,0,0,0-.587,4.094,35.489,35.489,0,0,0-3.252,2.555C4.279,12.505,3.379,10.26,4.049,9.1Zm0,13.8c-0.67-1.16.23-3.405,2.558-5.909a35.489,35.489,0,0,0,3.252,2.555,35.479,35.479,0,0,0,.587,4.094C7.113,24.4,4.719,24.06,4.049,22.9ZM16,29.8c-1.339,0-2.834-1.9-3.839-5.17A35.5,35.5,0,0,0,16,23.091a35.5,35.5,0,0,0,3.839,1.539C18.834,27.9,17.339,29.8,16,29.8Zm11.951-6.9c-0.67,1.16-3.064,1.5-6.4.74a35.479,35.479,0,0,0,.587-4.094,35.489,35.489,0,0,0,3.252-2.555C27.721,19.495,28.621,21.74,27.951,22.9Z"/>
</svg>
