<svg xmlns="http://www.w3.org/2000/svg" viewBox="0 0 32 32">
  <title>id</title>
  <path d="M29.9,4H2.1A2.1,2.1,0,0,0,0,6.1V25.9A2.1,2.1,0,0,0,2.1,28H29.9A2.1,2.1,0,0,0,32,25.9V6.1A2.1,2.1,0,0,0,29.9,4ZM4.012,19.751a2.342,2.342,0,0,1,.127-0.6,1.393,1.393,0,0,1,.324-0.562,2.5,2.5,0,0,1,.788-0.446q0.591-.243,1.338-0.513a10.458,10.458,0,0,0,1.1-.449,1.606,1.606,0,0,0,.683-0.663,1.841,1.841,0,0,0,.243-0.906,1.241,1.241,0,0,0-.382-0.753,2.336,2.336,0,0,1-.382-0.718,0.866,0.866,0,0,1-.533-0.9,1.211,1.211,0,0,1,.168-0.724q-0.046-.319-0.1-0.979a2.027,2.027,0,0,1,.171-0.982A2.723,2.723,0,0,1,8.129,9.7a2.958,2.958,0,0,1,.86-0.594,2.346,2.346,0,0,1,2.021,0,2.958,2.958,0,0,1,.86.594,2.723,2.723,0,0,1,.576.854,2.027,2.027,0,0,1,.171.982q-0.058.66-.1,0.979a1.211,1.211,0,0,1,.168.724,0.866,0.866,0,0,1-.533.9,2.336,2.336,0,0,1-.382.718,1.241,1.241,0,0,0-.382.753,1.841,1.841,0,0,0,.243.906,1.606,1.606,0,0,0,.683.663,10.458,10.458,0,0,0,1.1.449q0.747,0.269,1.338.513a2.5,2.5,0,0,1,.788.446,1.393,1.393,0,0,1,.324.562,2.342,2.342,0,0,1,.127.6L16,20H4ZM28,24H4V22H28v2Zm0-4H18V18H28v2Zm0-4H18V14H28v2Zm0-4H18V10H28v2Z"/>
</svg>
