<svg xmlns="http://www.w3.org/2000/svg" viewBox="0 0 16 16">
  <title>icon_ci-error</title>
  <g>
    <g>
      <path d="M11.161,10.2,9.874,8.751l-.747.664,1.331,1.5a4.634,4.634,0,0,0,.546.516A5.5,5.5,0,0,1,11.161,10.2Z" fill="#22c36a"/>
      <path d="M14.554,3.786a3.469,3.469,0,0,1,2.192,2.226,5.487,5.487,0,0,1,1.084.156,4.5,4.5,0,0,0-2.965-3.333,4.207,4.207,0,0,0-4.322,1.052L3.76,10.4a3.233,3.233,0,0,1-3.314.818A3.573,3.573,0,0,1-1.93,8.284,5.621,5.621,0,0,1-2,7.336,3.648,3.648,0,0,1,.311,3.825a3.057,3.057,0,0,1,3.208.656L2,6H6V2L4.224,3.776A4.072,4.072,0,0,0-.038,2.888,4.735,4.735,0,0,0-3,7.416a6.411,6.411,0,0,0,.083,1.029A4.555,4.555,0,0,0,.135,12.164a4.207,4.207,0,0,0,1.318.213,4.267,4.267,0,0,0,3-1.265L11.24,4.6A3.229,3.229,0,0,1,14.554,3.786Z" fill="#22c36a"/>
    </g>
    <circle cx="16.5" cy="11.5" r="3.5" fill="#fff"/>
    <path d="M16.5,7A4.5,4.5,0,1,0,21,11.5,4.5,4.5,0,0,0,16.5,7Zm.5,7H16V13h1Zm0-2H16V9h1Z" fill="#f1483f"/>
  </g>
</svg>
