<svg xmlns="http://www.w3.org/2000/svg" viewBox="0 0 32 32">
  <title>icon_file-zip</title>
  <g>
    <g>
      <path d="M28,6V30H4V2H24V0H4A2,2,0,0,0,2,2V30a2,2,0,0,0,2,2H28a2,2,0,0,0,2-2V6Z"/>
      <path d="M25,0V3a2,2,0,0,0,2,2h3Z"/>
    </g>
    <g>
      <rect x="12" y="2" width="2" height="2"/>
      <rect x="14" y="4" width="2" height="2"/>
      <rect x="12" y="6" width="2" height="2"/>
      <rect x="14" y="8" width="2" height="2"/>
      <rect x="12" y="10" width="2" height="2"/>
      <rect x="14" y="12" width="2" height="2"/>
    </g>
    <path d="M17.385,17.385,16,16H14V14H12v2l-1.385,1.385A2.1,2.1,0,0,0,10,18.87V21a1,1,0,0,0,1,1h6a1,1,0,0,0,1-1V18.87A2.1,2.1,0,0,0,17.385,17.385ZM16,20H12V18h4Z"/>
  </g>
</svg>
