<svg xmlns="http://www.w3.org/2000/svg" viewBox="0 0 32 32">
  <g>
    <g>
      <path d="M30,6.084c-3.716.595-7.1,1.267-10.112,2.028a65.653,65.653,0,0,0-9.473,3.022q-3.593,1.5-3.356,2.443c.139.552,1.14.8,3.012.749q1.439-.027,4.682-.314t8.371-.832c2.647-.276,4.925-.482,6.876-.626Z"/>
      <path d="M14.756,24.562Q7.648,26.357,2,27.389V27.9A2.1,2.1,0,0,0,4.1,30H27.9A2.1,2.1,0,0,0,30,27.9V19.952A148.759,148.759,0,0,1,14.756,24.562Z"/>
      <path d="M21.908,20.21q3.3-1.451,3.048-2.448-.218-.864-3.045-.883-1.447.016-3.988.2t-6.332.587q-5.752.617-9.59.939v6.757q5.694-.953,10.5-2.165A62.556,62.556,0,0,0,21.908,20.21Z"/>
      <path d="M16.486,7.041Q23.473,5.277,30,4.059A2.1,2.1,0,0,0,27.9,2H4.1A2.1,2.1,0,0,0,2,4.1v7.246Q7.92,9.2,16.486,7.041Z"/>
    </g>
    <g>
      <path d="M30,6.084c-3.716.595-7.1,1.267-10.112,2.028a65.653,65.653,0,0,0-9.473,3.022q-3.593,1.5-3.356,2.443c.139.552,1.14.8,3.012.749q1.439-.027,4.682-.314t8.371-.832c2.647-.276,4.925-.482,6.876-.626Z"/>
      <path d="M14.756,24.562Q7.648,26.357,2,27.389V27.9A2.1,2.1,0,0,0,4.1,30H27.9A2.1,2.1,0,0,0,30,27.9V19.952A148.759,148.759,0,0,1,14.756,24.562Z"/>
      <path d="M21.908,20.21q3.3-1.451,3.048-2.448-.218-.864-3.045-.883-1.447.016-3.988.2t-6.332.587q-5.752.617-9.59.939v6.757q5.694-.953,10.5-2.165A62.556,62.556,0,0,0,21.908,20.21Z"/>
      <path d="M16.486,7.041Q23.473,5.277,30,4.059A2.1,2.1,0,0,0,27.9,2H4.1A2.1,2.1,0,0,0,2,4.1v7.246Q7.92,9.2,16.486,7.041Z"/>
    </g>
  </g>
</svg>
