<svg xmlns="http://www.w3.org/2000/svg" viewBox="0 0 16 16">
  <title>icon_ci-success</title>
  <g>
    <g>
      <circle cx="16.5" cy="11.5" r="4.5" fill="#22c36a"/>
      <polygon points="15.675 14.151 13.348 11.823 14.231 10.94 15.675 12.384 18.769 9.29 19.652 10.175 15.675 14.151" fill="#fff"/>
    </g>
    <g>
      <path d="M14.554,3.786a3.469,3.469,0,0,1,2.192,2.226,5.487,5.487,0,0,1,1.084.156,4.5,4.5,0,0,0-2.965-3.333,4.207,4.207,0,0,0-4.322,1.052L3.76,10.4a3.233,3.233,0,0,1-3.314.818A3.573,3.573,0,0,1-1.93,8.284,5.621,5.621,0,0,1-2,7.336,3.648,3.648,0,0,1,.311,3.825a3.057,3.057,0,0,1,3.208.656L2,6H6V2L4.224,3.776A4.073,4.073,0,0,0-.038,2.888,4.735,4.735,0,0,0-3,7.416a6.411,6.411,0,0,0,.083,1.029A4.555,4.555,0,0,0,.135,12.164a4.207,4.207,0,0,0,1.318.213,4.267,4.267,0,0,0,3-1.265L11.24,4.6A3.228,3.228,0,0,1,14.554,3.786Z" fill="#22c36a"/>
      <path d="M11.161,10.2,9.874,8.751l-.747.664,1.331,1.5a4.625,4.625,0,0,0,.546.516A5.5,5.5,0,0,1,11.161,10.2Z" fill="#22c36a"/>
    </g>
  </g>
</svg>
