<svg xmlns="http://www.w3.org/2000/svg" viewBox="0 0 32 32">
  <title>setting</title>
  <path d="M26.519,16a10.54,10.54,0,0,0-.125-1.54l3.344-2.69L26.515,6.225,22.535,7.767a10.494,10.494,0,0,0-2.673-1.544L19.207,2H12.793L12.138,6.223A10.494,10.494,0,0,0,9.465,7.767L5.485,6.225,2.263,11.77l3.344,2.69A10.54,10.54,0,0,0,5.481,16a10.541,10.541,0,0,0,.125,1.54L2.263,20.23l3.222,5.545,3.979-1.542a10.5,10.5,0,0,0,2.673,1.544L12.793,30h6.414l0.655-4.223a10.5,10.5,0,0,0,2.673-1.544l3.979,1.542,3.222-5.545-3.344-2.69A10.541,10.541,0,0,0,26.519,16ZM15.967,21.207A5.207,5.207,0,1,1,21.174,16,5.207,5.207,0,0,1,15.967,21.207Z"/>
</svg>
