<svg xmlns="http://www.w3.org/2000/svg" viewBox="0 0 32 32">
  <title>icon_tomcat</title>
  <path d="M30.555,25.36a3.591,3.591,0,0,0-2.618-.917c-.6-.712-3.778-4.069-4.388-4.711a12.022,12.022,0,0,0,3.331-3.545h1.748v-.374H27.108c.1-.171.187-.347.276-.523h1.245v-.374H27.564a13.076,13.076,0,0,0,1.185-5.79l0,0a15.046,15.046,0,0,0-.519-3.736A5.568,5.568,0,0,0,25.3,8a18.2,18.2,0,0,0-5.579.07c-.3-1.229-1.779-2.17-2.9-2.7A8.969,8.969,0,0,0,16.2,9.32l-.006,0a15.094,15.094,0,0,0,.487,3.266A23.868,23.868,0,0,0,6.217,18.537,8.109,8.109,0,0,1,4.547,14.9a3.946,3.946,0,0,1,.807-3.1c1.084-1.346,2.623-1.441,4.206-1.175a.972.972,0,0,0,.1.637c.419.618,2.669.836,4.012.236-.991-1.389-3-2.067-3.555-1.8a.951.951,0,0,0-.419.448,8.925,8.925,0,0,0-1.488-.168,3.967,3.967,0,0,0-3.263,1.491,4.452,4.452,0,0,0-.917,3.5,8.755,8.755,0,0,0,1.825,3.943q-.257.276-.5.545C2.841,22.279,1,25.3,1,25.8v.259H4.323l-.058-.308A4.054,4.054,0,0,1,5.219,22.6a4.66,4.66,0,0,1,2.533-1.552A34.279,34.279,0,0,0,11.867,24.4h2.47v-.259a.848.848,0,0,0-.409-.721,1.842,1.842,0,0,0-1.545-.1,3.77,3.77,0,0,1-.887-2.346c5.359.475,10.485,2.639,16.269,5.66h3.182l.042-.209A1.357,1.357,0,0,0,30.555,25.36Z"/>
</svg>
