<svg xmlns="http://www.w3.org/2000/svg" viewBox="0 0 32 32">
  <path d="M31.125,3.5a13.352,13.352,0,0,1-4.188,1.563A6.568,6.568,0,0,0,17.5,4.938a6.313,6.313,0,0,0-1.938,4.625,6.164,6.164,0,0,0,.188,1.5,18.166,18.166,0,0,1-7.531-2A18.1,18.1,0,0,1,2.25,4.188,6.126,6.126,0,0,0,1.312,7.5,6.156,6.156,0,0,0,4.25,12.938a5.679,5.679,0,0,1-2.938-.812V12.25a6.373,6.373,0,0,0,1.469,4.125,6.492,6.492,0,0,0,3.781,2.313,8.331,8.331,0,0,1-1.75.188,6.36,6.36,0,0,1-1.25-.125,6.891,6.891,0,0,0,2.344,3.281,6.014,6.014,0,0,0,3.781,1.281,12.756,12.756,0,0,1-8.125,2.813q-0.75,0-1.562-.062A18.409,18.409,0,0,0,10.062,29a18.723,18.723,0,0,0,8-1.687,16.843,16.843,0,0,0,5.906-4.406,20.788,20.788,0,0,0,3.531-6,18.4,18.4,0,0,0,1.25-6.594V9.5A13.416,13.416,0,0,0,32,6.063a13.275,13.275,0,0,1-3.75,1.063A6.513,6.513,0,0,0,31.125,3.5Z"/>
</svg>
