<svg xmlns="http://www.w3.org/2000/svg" viewBox="0 0 32 32">
  <path d="M15,10H3a1,1,0,0,0-1,1v4H15V10Z"/>
  <path d="M29,10H17v5H30V11A1,1,0,0,0,29,10Z"/>
  <path d="M28,17H17V30H27a1,1,0,0,0,1-1V17Z"/>
  <path d="M4,17V29a1,1,0,0,0,1,1H15V17H4Z"/>
  <path d="M22.961,2.028c-2.044,0-4.393,2.768-5.165,3.678L16,7.822,14.2,5.706c-0.772-.91-3.122-3.678-5.165-3.678A3.385,3.385,0,0,0,5.407,5.305C5.407,7.01,6.67,9,10.228,9H21.772c3.558,0,4.82-1.99,4.82-3.695A3.385,3.385,0,0,0,22.961,2.028ZM10.228,7c-2.4,0-2.82-1.069-2.82-1.695A1.406,1.406,0,0,1,9.039,4.028c1.118,0,3.64,2.972,3.64,2.972H10.228ZM21.772,7H19.321s2.523-2.972,3.64-2.972a1.406,1.406,0,0,1,1.632,1.277C24.593,5.931,24.174,7,21.772,7Z"/>
</svg>
