<svg xmlns="http://www.w3.org/2000/svg" viewBox="0 0 32 32">
  <title>icon_file-docker-image</title>
  <g>
    <g>
      <polygon points="16.5 17.141 16.5 23.563 22 20.354 22 13.933 16.5 17.141"/>
      <polygon points="16 16.275 21.504 13.065 16 9.854 10.496 13.065 16 16.275"/>
      <polygon points="15.5 17.141 10 13.933 10 20.354 15.5 23.563 15.5 17.141"/>
    </g>
    <g>
      <path d="M28,6V30H4V2H24V0H4A2,2,0,0,0,2,2V30a2,2,0,0,0,2,2H28a2,2,0,0,0,2-2V6Z"/>
      <path d="M25,0V3a2,2,0,0,0,2,2h3Z"/>
    </g>
  </g>
</svg>
