<svg xmlns="http://www.w3.org/2000/svg" viewBox="0 0 32 32">
  <title>cloud-line</title>
  <path d="M24.511,26H7.489A6.487,6.487,0,0,1,5.546,13.323a5.646,5.646,0,0,1,5.625-5.249,5.55,5.55,0,0,1,1.353.167,8.578,8.578,0,0,1,14.647,5.35A6.489,6.489,0,0,1,24.511,26ZM11.171,10.075a3.643,3.643,0,0,0-3.639,3.639c0,.1.007.206.016.308l.079.916-.905.156A4.486,4.486,0,0,0,7.489,24H24.511a4.488,4.488,0,0,0,1.38-8.76l-.692-.224v-.735a6.578,6.578,0,0,0-11.6-4.249l-.459.542-.663-.254A3.619,3.619,0,0,0,11.171,10.075Z"/>
</svg>
