<svg xmlns="http://www.w3.org/2000/svg" viewBox="0 0 32 32">
  <title>swarm</title>
  <g>
    <polygon points="11.5 3.458 7.5 5.792 7.5 10.458 11.5 12.792 15.5 10.458 15.5 5.792 11.5 3.458"/>
    <polygon points="20.5 3.458 16.5 5.792 16.5 10.458 20.5 12.792 24.5 10.458 24.5 5.792 20.5 3.458"/>
    <polygon points="7 11.333 3 13.667 3 18.333 7 20.667 11 18.333 11 13.667 7 11.333"/>
    <polygon points="16 11.333 12 13.667 12 18.333 16 20.667 20 18.333 20 13.667 16 11.333"/>
    <polygon points="25 11.333 21 13.667 21 18.333 25 20.667 29 18.333 29 13.667 25 11.333"/>
    <polygon points="11.5 19.208 7.5 21.542 7.5 26.208 11.5 28.542 15.5 26.208 15.5 21.542 11.5 19.208"/>
    <polygon points="20.5 19.208 16.5 21.542 16.5 26.208 20.5 28.542 24.5 26.208 24.5 21.542 20.5 19.208"/>
  </g>
</svg>
