<svg xmlns="http://www.w3.org/2000/svg" viewBox="0 0 32 32">
  <title>city</title>
  <path d="M27.9,14H22.1A2.1,2.1,0,0,0,20,16.1V2.1A2.1,2.1,0,0,0,17.9,0H14.1A2.1,2.1,0,0,0,12,2.1v6A2.1,2.1,0,0,0,9.9,6H4.1A2.1,2.1,0,0,0,2,8.1V30H30V16.1A2.1,2.1,0,0,0,27.9,14ZM6,28H4V24H6v4Zm0-6H4V20H6v2Zm0-4H4V16H6v2Zm0-4H4V12H6v2Zm0-4H4V8H6v2Zm4,18H8V24h2v4Zm0-6H8V20h2v2Zm0-4H8V16h2v2Zm0-4H8V12h2v2Zm0-4H8V8h2v2Zm8,18H14V24h4v4Zm0-6H14V20h4v2Zm0-4H14V16h4v2Zm0-4H14V12h4v2Zm0-4H14V8h4v2Zm0-4H14V4h4V6Zm6,22H22V24h2v4Zm0-6H22V20h2v2Zm0-4H22V16h2v2Zm4,10H26V24h2v4Zm0-6H26V20h2v2Zm0-4H26V16h2v2Z"/>
</svg>
