<svg xmlns="http://www.w3.org/2000/svg" viewBox="0 0 32 32">
  <title>ubuntu</title>
  <path d="M4.09,13.411A2.589,2.589,0,1,0,6.679,16,2.589,2.589,0,0,0,4.09,13.411ZM22.577,25.179a2.589,2.589,0,1,0,3.536.948A2.588,2.588,0,0,0,22.577,25.179ZM9.714,16A7.553,7.553,0,0,1,12.93,9.812L11.037,6.642A11.273,11.273,0,0,0,6.386,13.18a3.637,3.637,0,0,1,0,5.64,11.264,11.264,0,0,0,4.651,6.539l1.893-3.171A7.549,7.549,0,0,1,9.714,16Zm7.563-7.564a7.563,7.563,0,0,1,7.533,6.893l3.69-.054a11.215,11.215,0,0,0-3.343-7.3A3.635,3.635,0,0,1,20.281,5.16a11.253,11.253,0,0,0-7.99.756l1.8,3.224A7.543,7.543,0,0,1,17.277,8.437Zm0,15.127a7.529,7.529,0,0,1-3.186-.7l-1.8,3.224a11.239,11.239,0,0,0,7.989.756,3.635,3.635,0,0,1,4.876-2.819,11.212,11.212,0,0,0,3.343-7.3l-3.69-.054A7.562,7.562,0,0,1,17.277,23.564Zm5.3-16.743a2.589,2.589,0,1,0-.948-3.535A2.587,2.587,0,0,0,22.576,6.821Z"/>
</svg>
