<svg xmlns="http://www.w3.org/2000/svg" viewBox="0 0 32 32">
  <title>redhat</title>
  <g>
    <path d="M14.562,7.823c-.678,0-1.164.089-1.585.1a1.188,1.188,0,0,1-.9-.487.425.425,0,0,0-.74.194l-.007.018a.861.861,0,0,0,.529,1.1s.558,1.038.982.586c.3-.32.468-.494,2.073-.61h0c.764-.055.842-.233.82-.421A1.169,1.169,0,0,0,14.562,7.823Z"/>
    <path d="M23.56,4.333A13.9,13.9,0,0,0,2.828,20.442h.963a5.058,5.058,0,0,0,2.324-.564,1.231,1.231,0,0,1,.564-.141,1.158,1.158,0,0,1,1.033.564,1.806,1.806,0,0,0,.61.681,1.372,1.372,0,0,0,.845.211.585.585,0,0,0,.54-.235.368.368,0,0,0-.282-.493,1.3,1.3,0,0,1-.681-.728,2.471,2.471,0,0,1-.7-1.221A1.117,1.117,0,0,1,9.5,17.3a2.755,2.755,0,0,1,1.381,1.4.473.473,0,0,0,.652.152.485.485,0,0,0,.048-.035.4.4,0,0,1,.7.07c.171.265,1.417,1.929,2.771,1.972a21.54,21.54,0,0,0,2.7-.3,3.577,3.577,0,0,1,.869.282c.422.067.731-.327,1.2-.3.377.018.776.282,1.2.282s1.327-.515,1.315-.3a9.991,9.991,0,0,1-.376,1.338,8.009,8.009,0,0,1-.141,1.127,4.216,4.216,0,0,1-.61,1.08,10.938,10.938,0,0,0-.845,1.2,8.49,8.49,0,0,1-.963,1.338c-.17.227.96-.018,1.362-.4a4.142,4.142,0,0,1,1.878-1.5c.638-.14.782-.384.7-.61a.247.247,0,0,1-.023-.094.2.2,0,0,1,.117-.188,6.792,6.792,0,0,1,2.536-.446,7.633,7.633,0,0,1,1.691.188A13.888,13.888,0,0,0,23.56,4.333Zm3.735,11.392c-.669,3.658-6.65,4.888-12.469,3.126-5.545-1.684-10.415-5.025-9.852-6.984C5.3,10.726,7.111,10.239,9.522,10.5c-.365.746-.342,1.625,1.258,2.6a16.581,16.581,0,0,0,6.148,1.966c.332-.035.632-.2.332-.4a2.049,2.049,0,0,1-.731-1.3c-.094-.39-.2-.93-2.294-1.33-4.5-.859-4.323-2.128-4.19-2.859,0,0,.4-1.8.565-2.428S11.2,4.667,14.1,5.319a5.026,5.026,0,0,0,3.037-.211,3.609,3.609,0,0,1,3.4.687,15.813,15.813,0,0,1,2.4,5.21A2.547,2.547,0,0,1,23,12.741a6.684,6.684,0,0,1-.48.918c-.059.1-.01.206.116.141a2.168,2.168,0,0,0,1.2-1.5C26.2,12.836,27.6,14.065,27.295,15.725Z"/>
    <path d="M18.424,5.614h-.079c-.15,0-.306.01-.465.026a3.722,3.722,0,0,0-1.307.349.042.042,0,0,0-.025.038.044.044,0,0,0,.045.042H16.6c.089-.014.181-.026.271-.037.861-.086,1.588.057,1.623.32a1,1,0,0,1-.9.537.06.06,0,0,0,0,.117,3.144,3.144,0,0,0,.792.116c.89.02,1.624-.3,1.631-.718S19.314,5.634,18.424,5.614Z"/>
  </g>
</svg>
