<svg xmlns="http://www.w3.org/2000/svg" viewBox="0 0 32 32">
  <g>
    <path d="M29,15a1,1,0,0,0,0-2H26V11h3a1,1,0,0,0,0-2H26V8.1A2.1,2.1,0,0,0,23.9,6H23V3a1,1,0,0,0-2,0V6H19V3a1,1,0,0,0-2,0V6H15V3a1,1,0,0,0-2,0V6H11V3A1,1,0,0,0,9,3V6H8.1A2.1,2.1,0,0,0,6,8.1V9H3a1,1,0,0,0,0,2H6v2H3a1,1,0,0,0,0,2H6v2H3a1,1,0,0,0,0,2H6v2H3a1,1,0,0,0,0,2H6v0.9A2.1,2.1,0,0,0,8.1,26H9v3a1,1,0,0,0,2,0V26h2v3a1,1,0,0,0,2,0V26h2v3a1,1,0,0,0,2,0V26h2v3a1,1,0,0,0,2,0V26h0.9A2.1,2.1,0,0,0,26,23.9V23h3a1,1,0,0,0,0-2H26V19h3a1,1,0,0,0,0-2H26V15h3Zm-6,7a1,1,0,0,1-1,1H10a1,1,0,0,1-1-1V10a1,1,0,0,1,1-1H22a1,1,0,0,1,1,1V22Z"/>
    <rect x="12" y="12" width="8" height="8" rx="1" ry="1"/>
  </g>
</svg>
