<svg xmlns="http://www.w3.org/2000/svg" viewBox="0 0 16 16">
  <g>
    <path d="M11.745,9.641l.168.484a.875.875,0,0,1-.392,1.047l-.75.428a.875.875,0,0,1-1.1-.187l-.3-.347-.086.45a.875.875,0,0,1-.859.711H7.569a.875.875,0,0,1-.859-.711l-.086-.45-.3.347a.875.875,0,0,1-1.1.188l-.75-.428a.875.875,0,0,1-.392-1.047l.168-.483L1,11.5l7,4,7-4Z"/>
    <path d="M13.425,6.357V5.494L12.35,5.288a4.366,4.366,0,0,0-.264-.988l.828-.714-.428-.75L11.45,3.2a4.418,4.418,0,0,0-.722-.723l.361-1.037-.75-.428-.715.826a4.367,4.367,0,0,0-.987-.262L8.432.5H7.569L7.363,1.577a4.367,4.367,0,0,0-.987.262l-.715-.827-.75.428.361,1.037A4.418,4.418,0,0,0,4.55,3.2L3.514,2.838l-.428.75.828.712a4.366,4.366,0,0,0-.263.988l-1.077.206v.863l1.077.206a4.367,4.367,0,0,0,.263.988l-.828.714.428.75L4.55,8.65a4.419,4.419,0,0,0,.722.722l-.361,1.037.75.428.714-.828a4.366,4.366,0,0,0,.987.262l.206,1.077h.863l.205-1.077a4.366,4.366,0,0,0,.987-.262l.715.828.75-.428-.361-1.037a4.419,4.419,0,0,0,.722-.722l1.037.361.428-.75-.828-.711a4.367,4.367,0,0,0,.262-.987ZM8,2.573a3.35,3.35,0,0,1,3.323,2.933h-2.6A.838.838,0,0,1,8,5.088L6.7,2.838A3.342,3.342,0,0,1,8,2.573ZM4.65,5.924A3.343,3.343,0,0,1,5.978,3.256l1.3,2.25a.838.838,0,0,1,0,.838l-1.3,2.25A3.343,3.343,0,0,1,4.65,5.925ZM8,9.274a3.341,3.341,0,0,1-1.3-.262L8,6.762a.838.838,0,0,1,.726-.419h2.6A3.35,3.35,0,0,1,8,9.278Z"/>
  </g>
</svg>
