<svg xmlns="http://www.w3.org/2000/svg" viewBox="0 0 32 32">
  <path d="M16,4.2A11.8,11.8,0,1,1,4.2,16,11.813,11.813,0,0,1,16,4.2m0-3A14.8,14.8,0,1,0,30.8,16,14.8,14.8,0,0,0,16,1.2h0Z"/>
  <path d="M24.451,12.8a0.8,0.8,0,0,0-.649.508L22.668,16.27,20.3,7.575a0.8,0.8,0,0,0-1.561.077L16.776,19.277,14.742,10.7a0.8,0.8,0,0,0-.715-0.613,0.777,0.777,0,0,0-.8.492L11.3,15.254H9v1.6h2.831a0.8,0.8,0,0,0,.739-0.495l1.188-2.877,2.372,10a0.8,0.8,0,0,0,.778.615h0.026a0.8,0.8,0,0,0,.763-0.667L19.712,11.5l2.056,7.55a0.8,0.8,0,0,0,.731.589,0.764,0.764,0,0,0,.787-0.513l1.472-3.845,1.275,1.82a9.725,9.725,0,0,0-.113-2.949L25.2,13.134A0.8,0.8,0,0,0,24.451,12.8Z"/>
  <circle cx="8" cy="16" r="2"/>
</svg>
