<svg xmlns="http://www.w3.org/2000/svg" viewBox="0 0 32 32">
  <g>
    <path d="M14.816,14.5a1.826,1.826,0,1,1-1.827-1.825A1.826,1.826,0,0,1,14.816,14.5Z"/>
    <path d="M17.176,14.5A1.826,1.826,0,1,0,19,12.676,1.826,1.826,0,0,0,17.176,14.5Z"/>
    <path d="M29.6,16.482c-0.131.011-.264,0.016-0.4,0.016a5.258,5.258,0,0,1-2.317-.541,21.443,21.443,0,0,0,.312-4.1,21.292,21.292,0,0,0-2.653-3.144,5.274,5.274,0,0,1,1.87-2L26.755,6.5l-0.267-.3a13.965,13.965,0,0,0-4.88-3.56l-0.371-.162-0.094.392a5.255,5.255,0,0,1-1.323,2.4A21.2,21.2,0,0,0,16,3.694a21.22,21.22,0,0,0-3.817,1.572,5.254,5.254,0,0,1-1.319-2.4l-0.095-.392-0.37.161A14.107,14.107,0,0,0,5.515,6.2l-0.268.3L5.589,6.71A5.264,5.264,0,0,1,7.455,8.7a21.384,21.384,0,0,0-2.648,3.132,21.457,21.457,0,0,0,.3,4.128,5.247,5.247,0,0,1-2.3.535c-0.142,0-.275-0.005-0.4-0.016L2,16.451l0.038,0.4A13.888,13.888,0,0,0,3.914,22.6l0.2,0.347,0.307-.261a5.254,5.254,0,0,1,2.487-1.165,21.313,21.313,0,0,0,2.128,3.467,21.534,21.534,0,0,0,4.034.991,5.243,5.243,0,0,1-.336,2.753l-0.153.373,0.394,0.087A14.106,14.106,0,0,0,16,29.525l3.021-.335,0.394-.087-0.154-.374a5.257,5.257,0,0,1-.335-2.754,21.505,21.505,0,0,0,4.018-.989,21.34,21.34,0,0,0,2.131-3.47,5.278,5.278,0,0,1,2.5,1.166l0.307,0.26,0.2-.347a13.837,13.837,0,0,0,1.875-5.744l0.038-.4Zm-9.286,4.911a16.285,16.285,0,0,1-8.651,0,16.762,16.762,0,0,1-1.852-3.9,16.565,16.565,0,0,1-.78-4.28,16.484,16.484,0,0,1,3.135-2.985A16.693,16.693,0,0,1,16,8.146a16.761,16.761,0,0,1,3.817,2.075,16.58,16.58,0,0,1,3.149,3,16.6,16.6,0,0,1-.788,4.261A16.709,16.709,0,0,1,20.319,21.392Z"/>
  </g>
</svg>
