<svg xmlns="http://www.w3.org/2000/svg" viewBox="0 0 32 32">
  <title>aws</title>
  <path d="M9,16.3l6-2.081V6.635a0.1,0.1,0,0,0-.133-0.094L9,8.575V16.3Z"/>
  <path d="M7,16.3L1,14.217V6.635A0.1,0.1,0,0,1,1.133,6.54L7,8.575V16.3Z"/>
  <path d="M14.424,4.246L8.028,6.4a0.087,0.087,0,0,1-.056,0l-6.4-2.15a0.136,0.136,0,0,1-.009-0.24l6.4-2.177a0.087,0.087,0,0,1,.073,0l6.4,2.177A0.136,0.136,0,0,1,14.424,4.246Z"/>
  <path d="M25,16.3l6-2.081V6.635a0.1,0.1,0,0,0-.133-0.094L25,8.575V16.3Z"/>
  <path d="M23,16.3l-6-2.081V6.635a0.1,0.1,0,0,1,.133-0.094L23,8.575V16.3Z"/>
  <path d="M30.424,4.246l-6.4,2.15a0.087,0.087,0,0,1-.056,0l-6.4-2.15a0.136,0.136,0,0,1-.009-0.24l6.4-2.177a0.087,0.087,0,0,1,.073,0l6.4,2.177A0.136,0.136,0,0,1,30.424,4.246Z"/>
  <path d="M17,30.6l6-2.081V20.937a0.1,0.1,0,0,0-.133-0.094L17,22.877V30.6Z"/>
  <path d="M15,30.6L9,28.519V20.937a0.1,0.1,0,0,1,.133-0.094L15,22.877V30.6Z"/>
  <path d="M22.424,18.76l-6.4,2.15a0.087,0.087,0,0,1-.056,0l-6.4-2.15a0.136,0.136,0,0,1-.009-0.24l6.4-2.177a0.087,0.087,0,0,1,.073,0l6.4,2.177A0.136,0.136,0,0,1,22.424,18.76Z"/>
</svg>
