<svg xmlns="http://www.w3.org/2000/svg" viewBox="0 0 32 32">
  <path d="M31.525,25.984a3.83,3.83,0,0,0-2.793-.978c-.638-.759-4.03-4.34-4.68-5.025A12.824,12.824,0,0,0,27.606,16.2H29.47v-.4H27.848c.1-.182.2-.37.295-.558H29.47v-.4H28.335A13.948,13.948,0,0,0,29.6,8.668l0,0a16.049,16.049,0,0,0-.554-3.985c-.968.368-2.729,1.56-3.128,2.778a19.41,19.41,0,0,0-5.951.075c-.315-1.311-1.9-2.315-3.091-2.88a9.566,9.566,0,0,0-.67,4.216l-.007,0a16.1,16.1,0,0,0,.52,3.484A25.459,25.459,0,0,0,5.565,18.706a8.65,8.65,0,0,1-1.782-3.878,4.209,4.209,0,0,1,.861-3.309c1.156-1.436,2.8-1.537,4.487-1.253a1.037,1.037,0,0,0,.109.679c.447.66,2.847.891,4.279.252-1.057-1.482-3.2-2.2-3.792-1.915a1.015,1.015,0,0,0-.447.478,9.52,9.52,0,0,0-1.587-.179,4.232,4.232,0,0,0-3.48,1.591A4.749,4.749,0,0,0,3.235,14.9a9.338,9.338,0,0,0,1.946,4.206q-.274.295-.53.581C1.964,22.7,0,25.922,0,26.456v.277H3.544L3.482,26.4A4.324,4.324,0,0,1,4.5,23.036a4.971,4.971,0,0,1,2.7-1.655,36.565,36.565,0,0,0,4.388,3.58h2.634v-.277a.9.9,0,0,0-.436-.769,1.965,1.965,0,0,0-1.648-.108,4.021,4.021,0,0,1-.946-2.5c5.716.506,11.184,2.814,17.353,6.037h3.395l.044-.223A1.448,1.448,0,0,0,31.525,25.984Z"/>
</svg>
