<svg xmlns="http://www.w3.org/2000/svg" viewBox="0 0 32 32">
  <title>daocloud</title>
  <g>
    <polygon points="16.012 8.104 22.324 4.992 15.983 2.225 9.642 4.963 16.012 8.104"/>
    <polygon points="9.527 16.636 9.21 11.505 13.821 9.2 7.308 5.972 3.1 7.816 3.647 12.745 9.527 16.636"/>
    <polygon points="28.318 12.716 28.924 7.816 24.658 5.972 18.202 9.2 22.871 11.505 22.497 16.636 28.318 12.716"/>
    <polygon points="22.324 19.085 21.863 25.772 27.223 21.737 28.03 15.252 22.324 19.085"/>
    <polygon points="9.671 19.085 3.965 15.252 4.714 21.766 10.103 25.772 9.671 19.085"/>
    <polygon points="20.306 20.44 16.041 23.322 11.717 20.44 12.15 27.299 16.012 30.182 19.816 27.299 20.306 20.44"/>
  </g>
</svg>
