<svg xmlns="http://www.w3.org/2000/svg" viewBox="0 0 32 32">
  <g>
    <g>
      <polygon points="9 14 16 10 23 14 16 18 9 14"/>
      <polygon points="16.496 18.868 16 19.152 15.504 18.868 10.617 16.076 9 17 16 21 23 17 21.383 16.076 16.496 18.868"/>
      <polygon points="16.496 21.868 16 22.152 15.504 21.868 10.617 19.076 9 20 16 24 23 20 21.383 19.076 16.496 21.868"/>
    </g>
    <g>
      <path d="M28,6V30H4V2H24V0H4A2,2,0,0,0,2,2V30a2,2,0,0,0,2,2H28a2,2,0,0,0,2-2V6Z"/>
      <path d="M25,0V3a2,2,0,0,0,2,2h3Z"/>
    </g>
  </g>
</svg>
