<svg xmlns="http://www.w3.org/2000/svg" viewBox="0 0 32 32">
  <title>dce</title>
  <g>
    <path d="M25,28H16.058A11.909,11.909,0,0,1,4.012,16.529,2.472,2.472,0,0,1,4,16.28v-.311a1.738,1.738,0,0,1,.011-.24A12.022,12.022,0,0,1,16.058,4H25a2.5,2.5,0,0,1,0,5H16.058A7.087,7.087,0,0,0,9,16.116v.008A6.886,6.886,0,0,0,15.894,23l.164,0H25a2.5,2.5,0,0,1,0,5Z"/>
    <path d="M25.5,18.5h-10A2.507,2.507,0,0,1,13,16h0a2.507,2.507,0,0,1,2.5-2.5h10A2.507,2.507,0,0,1,28,16h0A2.507,2.507,0,0,1,25.5,18.5Z"/>
  </g>
</svg>
