<svg xmlns="http://www.w3.org/2000/svg" viewBox="0 0 32 32">
  <path d="M30.971,29.377a5.857,5.857,0,0,0-.319-1.506,3.481,3.481,0,0,0-.811-1.4,6.245,6.245,0,0,0-1.969-1.115q-1.477-.608-3.345-1.281a26.158,26.158,0,0,1-2.751-1.122,4.015,4.015,0,0,1-1.709-1.658,4.6,4.6,0,0,1-.608-2.266,3.1,3.1,0,0,1,.956-1.882,5.845,5.845,0,0,0,.956-1.8A2.164,2.164,0,0,0,22.7,13.1a3.028,3.028,0,0,0-.42-1.81q.116-.8.261-2.447a5.066,5.066,0,0,0-.427-2.454,6.8,6.8,0,0,0-1.441-2.136,7.394,7.394,0,0,0-2.15-1.484,5.865,5.865,0,0,0-5.052,0,7.394,7.394,0,0,0-2.15,1.484A6.8,6.8,0,0,0,9.883,6.392a5.066,5.066,0,0,0-.427,2.454q.145,1.651.261,2.447A3.028,3.028,0,0,0,9.3,13.1a2.164,2.164,0,0,0,1.332,2.244,5.845,5.845,0,0,0,.956,1.8,3.1,3.1,0,0,1,.956,1.882,4.6,4.6,0,0,1-.608,2.266,4.015,4.015,0,0,1-1.709,1.658,26.158,26.158,0,0,1-2.751,1.122q-1.868.673-3.345,1.281a6.245,6.245,0,0,0-1.969,1.115,3.481,3.481,0,0,0-.811,1.4,5.857,5.857,0,0,0-.319,1.506L1,30H31Z"/>
</svg>
