<svg xmlns="http://www.w3.org/2000/svg" viewBox="0 0 32 32">
  <title>server-alt</title>
  <g>
    <path d="M28,6v7H4V6H28m-.1-2H4.1A2.1,2.1,0,0,0,2,6.1v6.8A2.1,2.1,0,0,0,4.1,15H27.9A2.1,2.1,0,0,0,30,12.9V6.1A2.1,2.1,0,0,0,27.9,4Z"/>
    <path d="M28,19v7H4V19H28m-.1-2H4.1A2.1,2.1,0,0,0,2,19.1v6.8A2.1,2.1,0,0,0,4.1,28H27.9A2.1,2.1,0,0,0,30,25.9V19.1A2.1,2.1,0,0,0,27.9,17Z"/>
    <path d="M7.5,8A1.5,1.5,0,1,0,9,9.5,1.5,1.5,0,0,0,7.5,8Z"/>
    <polygon points="26 8 12 8 12 11 26 11 26 8 26 8"/>
    <path d="M7.5,21A1.5,1.5,0,1,0,9,22.5,1.5,1.5,0,0,0,7.5,21Z"/>
    <polygon points="26 21 12 21 12 24 26 24 26 21 26 21"/>
  </g>
</svg>
