<svg xmlns="http://www.w3.org/2000/svg" viewBox="0 0 32 32">
  <g>
    <path d="M13.262,5.359a11.021,11.021,0,0,0-7.9,7.9,18.433,18.433,0,0,1,6.191-1.713A18.44,18.44,0,0,1,13.262,5.359Z"/>
    <path d="M18.619,11.37C18.035,7.219,16.75,5,16,5s-2.035,2.219-2.619,6.37c.864-.061,1.741-.1,2.619-.1S17.755,11.308,18.619,11.37Z"/>
    <path d="M26.641,13.263a11.021,11.021,0,0,0-7.9-7.9,18.44,18.44,0,0,1,1.712,6.191A18.433,18.433,0,0,1,26.641,13.263Z"/>
    <path d="M13.186,13.186c-.069.875-.111,1.808-.111,2.814s.042,1.939.111,2.814c.875.069,1.808.111,2.814.111s1.939-.042,2.814-.111c.069-.875.111-1.808.111-2.814s-.042-1.939-.111-2.814c-.875-.069-1.808-.111-2.814-.111S14.061,13.117,13.186,13.186Z"/>
    <path d="M27,16c0-.75-2.219-2.035-6.37-2.619.061.864.1,1.741.1,2.619s-.034,1.755-.1,2.619C24.781,18.035,27,16.75,27,16Z"/>
    <path d="M13.381,20.63C13.965,24.781,15.25,27,16,27s2.035-2.219,2.619-6.37c-.864.061-1.741.1-2.619.1S14.245,20.692,13.381,20.63Z"/>
    <path d="M18.738,26.641a11.021,11.021,0,0,0,7.9-7.9,18.433,18.433,0,0,1-6.191,1.713A18.44,18.44,0,0,1,18.738,26.641Z"/>
    <path d="M11.37,18.619c-.061-.864-.1-1.741-.1-2.619s.034-1.755.1-2.619C7.219,13.965,5,15.25,5,16S7.219,18.035,11.37,18.619Z"/>
    <path d="M16,1.2A14.8,14.8,0,1,0,30.8,16,14.8,14.8,0,0,0,16,1.2Zm0,27.6A12.8,12.8,0,1,1,28.8,16,12.814,12.814,0,0,1,16,28.8Z"/>
    <path d="M5.359,18.737a11.021,11.021,0,0,0,7.9,7.9,18.44,18.44,0,0,1-1.712-6.191A18.433,18.433,0,0,1,5.359,18.737Z"/>
  </g>
</svg>
