<svg xmlns="http://www.w3.org/2000/svg" viewBox="0 0 32 32">
  <g>
    <path d="M25.2,18.375a1.262,1.262,0,1,0-1.262-1.262A1.262,1.262,0,0,0,25.2,18.375h0Zm-6.16,0a1.262,1.262,0,1,0-1.262-1.262,1.262,1.262,0,0,0,1.262,1.262h0Zm6.786,8.578a0.658,0.658,0,0,0-.52-0.059,10.946,10.946,0,0,1-3.167.462c-5.134,0-9.3-3.472-9.3-7.756s4.162-7.756,9.3-7.756,9.3,3.472,9.3,7.756a7.3,7.3,0,0,1-3.272,5.907,0.474,0.474,0,0,0-.184.507l0.438,1.669c0.131,0.5-.128.7-0.575,0.438l-2.016-1.167h0Z"/>
    <path d="M11.807,3.271c-6.169,0-11.17,4.162-11.17,9.3a8.73,8.73,0,0,0,3.9,7.056,0.661,0.661,0,0,1,.256.709L4.265,22.291c-0.158.591,0.144,0.823,0.673,0.514l2.392-1.4a0.9,0.9,0,0,1,.713-0.086,13.189,13.189,0,0,0,3.765.541q0.3,0,.6-0.013a7.113,7.113,0,0,1-.378-2.288c0-4.673,4.577-8.461,10.224-8.461q0.3,0,.588.014C22,6.671,17.382,3.271,11.807,3.271ZM8.059,11.064A1.484,1.484,0,1,1,9.543,9.58,1.484,1.484,0,0,1,8.059,11.064Zm7.459,0A1.484,1.484,0,1,1,17,9.58,1.484,1.484,0,0,1,15.518,11.064Z"/>
  </g>
</svg>
