<svg xmlns="http://www.w3.org/2000/svg" viewBox="0 0 32 32">
  <title>console</title>
  <g>
    <path d="M29.9,4H2.1A2.1,2.1,0,0,0,0,6.1V25.9A2.1,2.1,0,0,0,2.1,28H29.9A2.1,2.1,0,0,0,32,25.9V6.1A2.1,2.1,0,0,0,29.9,4ZM30,26H2V6H30V26Z"/>
    <path d="M3,7V25H29V7H3ZM9.207,21.707L7.793,20.293,12.086,16,7.793,11.707l1.414-1.414L14.914,16ZM24,22H16V20h8v2Z"/>
  </g>
  <g>
    <rect y="31" width="1" height="1" fill="#fcfcfc" opacity="0.01"/>
    <rect x="31" width="1" height="1" fill="#fcfcfc" opacity="0.01"/>
    <rect width="1" height="1" fill="#fcfcfc" opacity="0.01"/>
    <rect x="31" y="31" width="1" height="1" fill="#fcfcfc" opacity="0.01"/>
  </g>
</svg>
