<svg xmlns="http://www.w3.org/2000/svg" viewBox="0 0 32 32">
  <g>
    <path d="M27.436,13.988V13.98A8.5,8.5,0,0,0,12.446,8.49a5.192,5.192,0,0,0-7.063,4.853c0,.149.01.3.022.442A6.153,6.153,0,0,0,6.456,26h.851A44.4,44.4,0,0,0,17.545,15.73L14.552,14l8.2-2.2,2.2,8.2L21.92,18.256A52.36,52.36,0,0,1,15.214,26h10.33a6.155,6.155,0,0,0,1.892-12.012Z"/>
    <path d="M31.769,10.167c-.766.206-1.082.591-1.241,1.744a.172.172,0,0,1-.342,0c-.159-1.153-.475-1.538-1.241-1.744a.172.172,0,0,1,0-.334c.766-.206,1.082-.591,1.241-1.744a.172.172,0,0,1,.342,0c.159,1.153.475,1.538,1.241,1.744A.172.172,0,0,1,31.769,10.167Z"/>
    <path d="M29.367,3.729c-1.013.272-1.431.781-1.641,2.305a.228.228,0,0,1-.453,0C27.063,4.51,26.646,4,25.633,3.729a.227.227,0,0,1,0-.441c1.013-.272,1.431-.781,1.641-2.305a.228.228,0,0,1,.453,0c.21,1.524.628,2.033,1.641,2.305A.227.227,0,0,1,29.367,3.729Z"/>
    <path d="M20.558,2.625c-.574.154-.81.443-.93,1.306a.129.129,0,0,1-.256,0c-.119-.863-.356-1.152-.93-1.306a.129.129,0,0,1,0-.25c.574-.154.81-.443.93-1.306a.129.129,0,0,1,.256,0c.119.863.356,1.152.93,1.306A.129.129,0,0,1,20.558,2.625Z"/>
  </g>
</svg>
