<svg xmlns="http://www.w3.org/2000/svg" viewBox="0 0 32 32">
  <title>github</title>
  <path d="M16,1.2a14.8,14.8,0,0,0-4.681,28.842,0.748,0.748,0,0,0,1.018-.7c0-.351-0.019-1.517-0.019-2.756-3.718.684-4.68-.906-4.977-1.739a5.382,5.382,0,0,0-1.517-2.091c-0.518-.277-1.258-0.962-0.018-0.98a2.962,2.962,0,0,1,2.276,1.517,3.163,3.163,0,0,0,4.31,1.221,3.113,3.113,0,0,1,.943-1.979c-3.293-.37-6.734-1.647-6.734-7.307a5.76,5.76,0,0,1,1.517-3.978,5.318,5.318,0,0,1,.148-3.922s1.24-.389,4.07,1.517a13.953,13.953,0,0,1,7.4,0c2.83-1.924,4.07-1.517,4.07-1.517a5.318,5.318,0,0,1,.148,3.922,5.726,5.726,0,0,1,1.517,3.978c0,5.68-3.459,6.938-6.752,7.308a3.5,3.5,0,0,1,1,2.738c0,1.979-.019,3.571-0.019,4.07a0.742,0.742,0,0,0,1.018.7A14.808,14.808,0,0,0,16,1.2Z"/>
</svg>
