<svg xmlns="http://www.w3.org/2000/svg" viewBox="0 0 32 32">
  <title>datadog</title>
  <path d="M25.873,22.612l-2.608-1.729-2.178,3.64-2.532-.745L16.33,27.188l0.115,1.07,12.1-2.235-0.707-7.585ZM14.581,19.335l1.939-.267a5.618,5.618,0,0,0,.908.3,2.865,2.865,0,0,0,2.274-.21,3.667,3.667,0,0,0,.917-0.822l7.958-1.452,0.812,9.859L15.756,29.2ZM29.36,15.781l-0.783.153L27.068,0.3,1.35,3.286,4.522,29.08l3.009-.439a6.5,6.5,0,0,0-1.251-1.29c-0.888-.736-0.573-2-0.048-2.79,0.688-1.337,4.261-3.038,4.051-5.178A3.788,3.788,0,0,0,9.365,16.9a2.376,2.376,0,0,0,.019.564,2.894,2.894,0,0,1-.439-0.9,5.6,5.6,0,0,1-.42-0.525,1.867,1.867,0,0,0-.1.659,4.163,4.163,0,0,1-.277-1.06,1.729,1.729,0,0,0-.182.631,4.01,4.01,0,0,1-.239-1.395A6.513,6.513,0,0,1,7.283,11.7a2.559,2.559,0,0,0,3.191-.573c0.22-.334.373-1.232-0.115-3A26.932,26.932,0,0,0,8.964,4.652l-0.038.029c0.162,0.516.487,1.6,0.611,2.13A5.736,5.736,0,0,1,9.843,9.7,2.25,2.25,0,0,1,8.4,11.225c-0.927.468-2.159-.669-2.235-0.736A4.944,4.944,0,0,1,4.493,8.024a2.807,2.807,0,0,1,.583-1.509c-0.315.1-.669,0.248-0.669,0.248a7.94,7.94,0,0,1,.946-0.822,6.69,6.69,0,0,0,.573-0.42c-0.325-.01-0.592,0-0.592,0a10.693,10.693,0,0,1,1.118-.516c-0.42-.019-0.812,0-0.812,0S6.862,4.461,7.827,4.05a1.312,1.312,0,0,1,1.681.334,2.883,2.883,0,0,0,2.044,1.3,9.513,9.513,0,0,1,1.672-.669,2.6,2.6,0,0,1,1.29-.9,1.25,1.25,0,0,0-.353.669,9.072,9.072,0,0,1,.86-0.592,3.389,3.389,0,0,0-.334.554L14.725,4.8a8.775,8.775,0,0,1,1.041-.516s-0.162.2-.353,0.468c0.363,0,1.1.019,1.376,0.048,1.681,0.038,2.025-1.8,2.675-2.025,0.8-.287,1.166-0.468,2.541.888,1.175,1.166,2.1,3.239,1.643,3.707-0.382.382-1.137-.153-1.978-1.2a4.649,4.649,0,0,1-.936-2.044,1.978,1.978,0,0,0-.65-1.108,3.7,3.7,0,0,1,.3,1.261,4.1,4.1,0,0,0,.554,2.2c-0.048.1-.076,0.487-0.134,0.564a7.87,7.87,0,0,0-2.092-1.395,11.916,11.916,0,0,1,2.971,3.21c0.592,1.213.239,2.331,0.545,2.618a10.347,10.347,0,0,1,1.5,2.312,4.492,4.492,0,0,1-.5,3.516l-1.462.229a1.87,1.87,0,0,1-.545-0.2,3.464,3.464,0,0,0,.315-0.755l-0.086-.143a6.232,6.232,0,0,1-1.844,1.634,3.077,3.077,0,0,1-2.4.2,13.713,13.713,0,0,1-3.831-2.054,0.52,0.52,0,0,0,.067.306,13.2,13.2,0,0,0,2.446,2.044l-2.092.229,0.994,7.738c-0.439.067-.506,0.1-0.984,0.162a5.179,5.179,0,0,0-2.121-3.057,3.963,3.963,0,0,0-2.895-.411L8.725,23.3a3.7,3.7,0,0,1,2.436.583,5.669,5.669,0,0,1,1.8,2.78,3.614,3.614,0,0,1-.325,3.449,2.922,2.922,0,0,1-3.9.306,2.371,2.371,0,0,0,1.634,1.242A3.1,3.1,0,0,0,13.12,30.9a4.541,4.541,0,0,0,.822-3.219l0.936-.134,0.334,2.407L30.65,28.1ZM19.969,9.257a0.479,0.479,0,0,0-.01.487l0.01,0.019L19.989,9.8l0.038,0.1a1.912,1.912,0,0,0,.716.908,1.711,1.711,0,0,1,.908.076,2.348,2.348,0,0,0,.01-0.3,1.588,1.588,0,0,0-.822-1.71,0.92,0.92,0,0,0-.984.086,0.18,0.18,0,0,1,.076.019c0.248,0.1.076,0.182,0.038,0.277M22.53,13.7a3.3,3.3,0,0,0-1.07.01,5.262,5.262,0,0,0-1.739.487,0.543,0.543,0,0,0,.067.86,2.718,2.718,0,0,0,1.872.755,1.852,1.852,0,0,0,.946-1.194A0.764,0.764,0,0,0,22.53,13.7M15.9,9.849c0.21-.2-1.051-0.468-2.035.2a1.363,1.363,0,0,0-.057,2.159,0.97,0.97,0,0,0,.182.134,5.579,5.579,0,0,1,.7-0.277,6.268,6.268,0,0,1,1.127-.258,1.244,1.244,0,0,0,.277-0.974c-0.057-.707-0.592-0.6-0.191-0.984"/>
</svg>
