<svg xmlns="http://www.w3.org/2000/svg" viewBox="0 0 32 32">
  <title>ram-memory</title>
  <path d="M28.5,15A2.5,2.5,0,0,1,30,12.711V10a2,2,0,0,0-2-2H4a2,2,0,0,0-2,2v2.711a2.5,2.5,0,0,1,0,4.578V24H3.867V22H5.733v2H7.6V22H9.467v2h1.867V22H13.2v2h1.867V22h1.867v2H18.8V22h1.867v2h1.867V22H24.4v2h1.867V22h1.867v2H30V17.289A2.5,2.5,0,0,1,28.5,15ZM11,17a1,1,0,0,1-1,1H7a1,1,0,0,1-1-1V13a1,1,0,0,1,1-1h3a1,1,0,0,1,1,1Zm7.5,0a1,1,0,0,1-1,1h-3a1,1,0,0,1-1-1V13a1,1,0,0,1,1-1h3a1,1,0,0,1,1,1ZM26,17a1,1,0,0,1-1,1H22a1,1,0,0,1-1-1V13a1,1,0,0,1,1-1h3a1,1,0,0,1,1,1Z"/>
</svg>
