<svg xmlns="http://www.w3.org/2000/svg" viewBox="0 0 32 32">
  <g>
    <rect x="10" y="24" width="6" height="2"/>
    <rect x="10" y="20" width="4" height="2"/>
    <rect x="10" y="16" width="6" height="2"/>
    <rect x="10" y="12" width="10" height="2"/>
    <path d="M24,24v4H8V10H24v6h2V6.1A2.1,2.1,0,0,0,23.9,4H18.816a2.982,2.982,0,0,0-5.631,0H8.1A2.1,2.1,0,0,0,6,6.1V27.9A2.1,2.1,0,0,0,8.1,30H23.9A2.1,2.1,0,0,0,26,27.9V24H24ZM10.618,6h2.449A0.962,0.962,0,0,0,14,4.993a2,2,0,0,1,2.3-1.971,2.148,2.148,0,0,1,1.7,2.1A0.986,0.986,0,0,0,19,6h2.38a1,1,0,0,1,.894.553L23,8H9L9.724,6.553A1,1,0,0,1,10.618,6Z"/>
    <polygon points="20.949 25.38 16.508 20.94 17.926 19.522 20.949 22.544 26.874 16.62 28.292 18.038 20.949 25.38"/>
  </g>
</svg>
