<svg xmlns="http://www.w3.org/2000/svg" viewBox="0 0 32 32">
  <title>daomirror</title>
  <path d="M8.157,26.715C7.171,27.7,4,28,4,28s0.3-3.17,1.285-4.156A2.317,2.317,0,0,1,8.5,23.5,2.317,2.317,0,0,1,8.157,26.715Z"/>
  <path d="M13.651,25.544l-0.267,4.631a25.376,25.376,0,0,0,6.994-4.655c1.353-1.353,1.435-3.468,1.293-4.918A33.169,33.169,0,0,1,13.651,25.544Z"/>
  <path d="M7.846,15.457a38.976,38.976,0,0,1,3.514-5.13c-1.449-.136-3.537-0.043-4.877,1.3a25.378,25.378,0,0,0-4.655,6.994l4.59-.265A22.814,22.814,0,0,1,7.846,15.457Z"/>
  <path d="M28.862,3.142l0,0h0l0-.005,0,0c-0.209-.155-7.5-1.113-14.07,5.458C9.843,13.539,6.93,19.868,7.43,20.368l4.2,4.2c0.5,0.5,6.829-2.413,11.772-7.356C29.976,10.64,29.018,3.351,28.862,3.142Zm-6.519,9.2a1.9,1.9,0,1,1,0-2.687A1.9,1.9,0,0,1,22.344,12.344Z"/>
</svg>
