<svg xmlns="http://www.w3.org/2000/svg" viewBox="0 0 32 32">
  <title>board</title>
  <g>
    <path d="M18,2.5H17V2a1,1,0,0,0-2,0v.5H14a1,1,0,0,0-1,1V4h6V3.5A1,1,0,0,0,18,2.5Z"/>
    <path d="M26.5,26H5.5a1,1,0,0,0,0,2H8.359l-.639,2.557a1,1,0,1,0,1.94.485L10.42,28H21.58l.76,3.042a1,1,0,1,0,1.94-.485L23.641,28H26.5a1,1,0,0,0,0-2Z"/>
    <path d="M26.022,6.978a1,1,0,0,0-1-.978H6.978a1,1,0,0,0-1,.978l-.356,16a1,1,0,0,0,1,1.022H25.378a1,1,0,0,0,1-1.022ZM23,15.6l-1.672-1.672-4.5,4.5-3.263-3.263-2.746,2.746a.9.9,0,0,1-1.272-1.273l4.019-4.018,3.263,3.263,3.224-3.224L18.4,11H23Z"/>
  </g>
</svg>
