<svg xmlns="http://www.w3.org/2000/svg" viewBox="0 0 32 32">
  <title>docker</title>
  <g>
    <path d="M31.392,14.565a5.047,5.047,0,0,0-3.735-.338,4.965,4.965,0,0,0-2.019-3.163l-0.4-.315-0.339.38a4.184,4.184,0,0,0-.79,3.01,3.861,3.861,0,0,0,.754,2.022,5.864,5.864,0,0,1-1.086.478A7.263,7.263,0,0,1,21.538,17H0.424l-0.045.473a8.833,8.833,0,0,0,.743,4.6l0.289,0.573L1.444,22.7c1.985,3.278,5.945,4.976,9.744,4.976,7.356,0,12.949-3.511,15.736-10.257,1.862,0.095,3.767-.441,4.678-2.169l0.232-.441-0.442-.248h0ZM6.577,23.1a1.651,1.651,0,1,1,1.7-1.651,1.677,1.677,0,0,1-1.7,1.651h0Z"/>
    <path d="M6.577,20.576a0.869,0.869,0,1,0,.894.87,0.882,0.882,0,0,0-.894-0.87"/>
    <rect x="2" y="13" width="3" height="3"/>
    <rect x="6" y="13" width="3" height="3"/>
    <rect x="6" y="9" width="3" height="3"/>
    <rect x="10" y="9" width="3" height="3"/>
    <rect x="10" y="13" width="3" height="3"/>
    <rect x="14" y="13" width="3" height="3"/>
    <rect x="18" y="13" width="3" height="3"/>
    <rect x="14" y="9" width="3" height="3"/>
    <rect x="14" y="5" width="3" height="3"/>
  </g>
</svg>
