<svg xmlns="http://www.w3.org/2000/svg" viewBox="0 0 32 32">
  <title>foot</title>
  <g>
    <circle cx="19.9" cy="4.32" r="2.92"/>
    <circle cx="13.612" cy="5.341" r="1.84"/>
    <circle cx="9.741" cy="8.16" r="1.5"/>
    <circle cx="7.3" cy="11.4" r="1.45"/>
    <path d="M22.076,24.07a3.915,3.915,0,0,1-3.084,6.43,3.6,3.6,0,0,1-2.3-.722,4.433,4.433,0,0,1-1.443-1.968l-4.921-8.661a7.238,7.238,0,0,1-.722-1.64,8.144,8.144,0,0,1-.328-2.165,6.627,6.627,0,0,1,2.034-4.855,6.627,6.627,0,0,1,4.855-2.034,7.01,7.01,0,0,1,3.477.919,6.685,6.685,0,0,1,2.493,2.559,6.89,6.89,0,0,1,.919,3.412,6.717,6.717,0,0,1-1.115,3.871A4.832,4.832,0,0,0,22.076,24.07Z"/>
  </g>
</svg>
