<svg xmlns="http://www.w3.org/2000/svg" viewBox="0 0 32 32">
  <g>
    <path d="M27.768,13.509a1.27,1.27,0,0,1-1.22-1.31,1.266,1.266,0,1,1,1.22,1.31h0Zm0.293-1.146a0.5,0.5,0,0,0,.562-0.374,0.607,0.607,0,0,0-1.122,0,0.5,0.5,0,0,0,.561.374"/>
    <path d="M13.44,20.773l0.045,0,0.007-.053a2.353,2.353,0,0,1-.08-0.6,3.19,3.19,0,0,1,.524-2.333,2.155,2.155,0,0,1,.913-0.528,4.022,4.022,0,0,1,4.119,1.459c0.692,0.8,1.031,1.166,1.2,1.33L20.227,20.1,20.3,20.154c0.055,0.031,2.3,1.066,2.3,1.066l0.046-.011V21.16c-0.015-.017-1.425-1.838-1.175-3.339,0.2-1.2,1.15-1.088,2.465-.938,0.43,0.049.92,0.105,1.426,0.117a10.485,10.485,0,0,0,3.874-.661,4.818,4.818,0,0,0,1.237-.661,0.725,0.725,0,0,0,.18-0.316l0.032-.084a3.714,3.714,0,0,0,.122-0.435,0.133,0.133,0,0,0-.02-0.136l-0.13.024a5.522,5.522,0,0,1-2.406.736A11.979,11.979,0,0,1,24.4,14.133l-0.024-.028-0.5-1.179A10.192,10.192,0,0,0,28.15,14.8a3.928,3.928,0,0,0,2.588-.845,1.579,1.579,0,0,1,.166-0.107L30.93,13.8a9.747,9.747,0,0,0-1.191-3.013,1.988,1.988,0,0,0-.458-0.4c-1.751-1.021-5.907-1.637-6.1-1.665l-0.033.009-0.012.029s-0.016.862-.018,0.958a25.826,25.826,0,0,0-6.4-1.239A16.675,16.675,0,0,0,6.174,11.19l-0.14.087A10.921,10.921,0,0,0,1.466,16.37a5.953,5.953,0,0,0-.256,3.369,5.2,5.2,0,0,0,.78,1.688,5.07,5.07,0,0,0,3.688,2.1A3.765,3.765,0,0,0,9.93,21.006a3.475,3.475,0,0,0-1.489-3.915,3.1,3.1,0,0,0-3.27-.074A2.181,2.181,0,0,0,4.15,18.87a2.038,2.038,0,0,0,1.963,2.016,2.357,2.357,0,0,0,.744-0.128,1.161,1.161,0,0,0,.284-0.126l0.03-.02,0.02-.011-0.007,0a0.666,0.666,0,0,0,.3-0.552,0.7,0.7,0,0,0-.026-0.183A0.668,0.668,0,0,0,6.69,19.4l-0.046.009-0.062.021-0.091.03a1.677,1.677,0,0,1-.358.051,0.664,0.664,0,0,1-.566-0.661V18.841a0.761,0.761,0,0,1,.119-0.393,1.168,1.168,0,0,1,1.085-.406,1.818,1.818,0,0,1,1.557,1.109,1.907,1.907,0,0,1-.211,2,2.389,2.389,0,0,1-2.268.7A3.18,3.18,0,0,1,3.34,17.328a3.72,3.72,0,0,1,4.179-1.8,5.181,5.181,0,0,1,3.774,3.327,5.126,5.126,0,0,1,.206.7l0.071,0.3,1.844,0.9,0.025,0.018h0Zm13.11-9.81a1.762,1.762,0,0,0-.563,1.238,1.785,1.785,0,0,0,1.715,1.84,1.777,1.777,0,0,0,1.839-1.714,1.784,1.784,0,0,0-1.716-1.841,1.765,1.765,0,0,0-1.275.477"/>
  </g>
</svg>
