<svg xmlns="http://www.w3.org/2000/svg" viewBox="0 0 32 32">
  <title>emoji</title>
  <g>
    <path d="M16,3.2A12.8,12.8,0,1,1,3.2,16,12.815,12.815,0,0,1,16,3.2m0-2A14.8,14.8,0,1,0,30.8,16,14.8,14.8,0,0,0,16,1.2Z"/>
    <ellipse cx="11.76" cy="12.236" rx="1.85" ry="2.313"/>
    <ellipse cx="20.24" cy="12.236" rx="1.85" ry="2.313"/>
    <path d="M25.191,17.436a.994.994,0,0,0-.98-.143,23.678,23.678,0,0,1-16.422,0,1,1,0,0,0-1.356,1.06A9.884,9.884,0,0,0,16,27.154a9.884,9.884,0,0,0,9.567-8.8A1,1,0,0,0,25.191,17.436Zm-3.8,5.315a17.8,17.8,0,0,1-10.784,0,8.28,8.28,0,0,1-1.805-3,25.914,25.914,0,0,0,14.395,0A8.279,8.279,0,0,1,21.392,22.751Z"/>
  </g>
</svg>
