<svg xmlns="http://www.w3.org/2000/svg" viewBox="0 0 32 32">
  <title>audit</title>
  <g>
    <path d="M27.1,25H30l-5,5V27.1A2.1,2.1,0,0,1,27.1,25Z"/>
    <g>
      <path d="M27.9,2H8.1A2.1,2.1,0,0,0,6,4.1V8.144A9.182,9.182,0,0,1,8,6.425V4H28V24h2V4.1A2.1,2.1,0,0,0,27.9,2Z"/>
      <path d="M8,23.508l-2,2V27.9A2.1,2.1,0,0,0,8.1,30H24V28H8Z"/>
    </g>
    <g opacity="0.5">
      <path d="M25,11V9H20.419a9.1,9.1,0,0,1,1.018,2Z"/>
      <path d="M21.956,15H25V13H21.923A9.136,9.136,0,0,1,22,14.125C22,14.42,21.983,14.712,21.956,15Z"/>
      <path d="M25,19V17H21.529a9.079,9.079,0,0,1-.953,2Z"/>
      <path d="M25,23V21H18.856a9.1,9.1,0,0,1-3.9,2Z"/>
    </g>
    <path d="M7.072,18.249,2.09,23.231,3.769,24.91l4.982-4.982a7.139,7.139,0,1,0-1.679-1.679ZM7.9,14.125A4.976,4.976,0,1,1,12.875,19.1,4.982,4.982,0,0,1,7.9,14.125Z"/>
  </g>
</svg>
