<svg xmlns="http://www.w3.org/2000/svg" viewBox="0 0 32 32">
  <title>globe</title>
  <path d="M24.965,24.965a12.49,12.49,0,0,0,3.344-5.835l-1.352-.142a5.911,5.911,0,0,1-1.637-3.2q-0.071-.64-0.071-1.992a11.257,11.257,0,0,0-.142-2.063,5.553,5.553,0,0,0-.961-1.779,9.973,9.973,0,0,1-.961-1.494q-0.213-.5-0.676-1.494T21.763,5.469a0.816,0.816,0,0,1,.249.071,0.764,0.764,0,0,1,.249.142,6,6,0,0,1,1-.142A11.844,11.844,0,0,0,17.85,3.477V4.046l0.285,0.64-1,.925L16.5,5.4l-0.712-.712-0.712-.854-1-.356a13.264,13.264,0,0,0-3.2.925V4.9a2.754,2.754,0,0,1,.783-0.285,4.411,4.411,0,0,0,.854-0.285,2.681,2.681,0,0,1,1.138.64q-0.071.071-.783,0.676a3.022,3.022,0,0,0-.783.818,0.833,0.833,0,0,0,.249.32,0.685,0.685,0,0,1,.249.391q0,0.213-.036.6t-0.036.6a18.445,18.445,0,0,1,1.565-1.494,1.974,1.974,0,0,1,1.565.6,3.03,3.03,0,0,1,1.067,1.245,0.716,0.716,0,0,1-.285.6,11.281,11.281,0,0,1-1.138,1.032q-0.783.64-.925,0.783a4.577,4.577,0,0,1-.64.462,2.748,2.748,0,0,0-.712.6,0.619,0.619,0,0,0-.071.64q0.712,1.423.356,1.708a0.282,0.282,0,0,1-.356.036,0.886,0.886,0,0,1-.32-0.249q-0.107-.142-0.285-0.356t-0.249-.285q-0.427-.5-2.7-0.5,0,2.277,1.067,3.06,2.917,2.135,3.344,2.348a3.262,3.262,0,0,0,1.708,0,2.383,2.383,0,0,1,1.637.071,22.96,22.96,0,0,0,3.344,2.063,4.051,4.051,0,0,1,1.423.961q0.783,0.747.427,1.245a15.577,15.577,0,0,0-1,1.637,4.227,4.227,0,0,1-1.423,1.779,4.955,4.955,0,0,0-1.494,2.063A12.607,12.607,0,0,0,24.965,24.965ZM14.435,28.594l0.391-.783,0.391-.783a1.334,1.334,0,0,0,.142-0.6,0.791,0.791,0,0,0-.356-0.6q-1.138-1-1.637-1.494a3.246,3.246,0,0,1-.427-0.818,1.521,1.521,0,0,1-.213-0.818,5.975,5.975,0,0,0,.569-1.708,1.466,1.466,0,0,0-.925-1.565,6.478,6.478,0,0,1-1-.712q-0.5-.427-1.1-0.925T9.312,17a4.214,4.214,0,0,1-1.423-1.352q-0.64-1.85-.712-1.992A4.484,4.484,0,0,1,6.394,11.7a6.735,6.735,0,0,1,.071-2.17q0-.5-0.142-1.779A12.1,12.1,0,0,0,3.335,16a12.21,12.21,0,0,0,3.7,8.965A12.48,12.48,0,0,0,14.435,28.594ZM16,1.2A14.256,14.256,0,0,1,26.46,5.54,14.256,14.256,0,0,1,30.8,16a14.256,14.256,0,0,1-4.34,10.46A14.256,14.256,0,0,1,16,30.8,14.256,14.256,0,0,1,5.54,26.46,14.256,14.256,0,0,1,1.2,16,14.256,14.256,0,0,1,5.54,5.54,14.256,14.256,0,0,1,16,1.2Z"/>
</svg>
