<svg xmlns="http://www.w3.org/2000/svg" viewBox="0 0 32 32">
  <title>scaleio</title>
  <path d="M27.9,2H4.1A2.1,2.1,0,0,0,2,4.1V27.9A2.1,2.1,0,0,0,4.1,30H27.9A2.1,2.1,0,0,0,30,27.9V4.1A2.1,2.1,0,0,0,27.9,2ZM12.72,26.2c-4.495,0-6.92-3.206-6.92-6.223v-0.2H7.959v0.2c0,2.02,1.635,4.063,4.761,4.063,2.807,0,4.321-1.5,4.321-2.912,0-2.46-.9-2.862-4.7-4.167-0.243-.083-0.486-0.163-0.727-0.242l-0.1-.035c-2.429-.8-5.183-1.7-5.183-5,0-2.962,2.547-4.952,6.338-4.952,3.679,0,6.453,2.471,6.453,5.747v0.2H16.956v-0.2c0-1.739-1.5-3.588-4.294-3.588-1.928,0-4.179.731-4.179,2.793,0,1.66,1.267,2.152,3.7,2.948l0.05,0.016c0.268,0.088.54,0.177,0.811,0.27,3.577,1.227,6.161,2.113,6.161,6.208C19.2,23.587,16.929,26.2,12.72,26.2ZM24,26H22V14h2V26ZM23,11a2,2,0,1,1,2-2A2,2,0,0,1,23,11Z"/>
</svg>
