<svg xmlns="http://www.w3.org/2000/svg" viewBox="0 0 32 32">
  <title>eye-slash</title>
  <g>
    <path d="M25.909,9.626,22.538,13A7.189,7.189,0,0,1,13,22.538l-2.552,2.552A13.334,13.334,0,0,0,16,26.4C24.836,26.4,32,16,32,16A33.306,33.306,0,0,0,25.909,9.626Z"/>
    <path d="M27.293,3.293l-4.33,4.33A14.216,14.216,0,0,0,16,5.6C7.163,5.6,0,16,0,16a32.653,32.653,0,0,0,7.3,7.281L3.293,27.293l1.414,1.414,24-24ZM8.8,16a7.19,7.19,0,0,1,11.529-5.743L18.24,12.346a4.28,4.28,0,0,0-5.895,5.895l-2.089,2.089A7.159,7.159,0,0,1,8.8,16Z"/>
    <path d="M15.305,20.23a4.226,4.226,0,0,0,4.925-4.925Z"/>
  </g>
</svg>
