<svg xmlns="http://www.w3.org/2000/svg" viewBox="0 0 64 64">
  <title>icon</title>
  <g>
    <path d="M44.309,24.476a58.976,58.976,0,0,0,0,13.054A6.537,6.537,0,0,0,44.309,24.476Z" opacity="0.25"/>
    <path d="M53.693,6.822c-4.472,0-8.229,7.477-9.379,17.657a6.536,6.536,0,0,1,0,13.052c1.149,10.18,4.907,17.657,9.379,17.657,5.385,0,9.751-10.827,9.751-24.183S59.078,6.822,53.693,6.822Z" opacity="0.5"/>
    <path d="M12,20c-2.449,0-4.435,4.925-4.435,11S9.554,42,12,42h8.87c-2.449,0-4.435-4.925-4.435-11s1.986-11,4.435-11H12Z" opacity="0.9"/>
    <g opacity="0.9">
      <path d="M6.568,31A23.844,23.844,0,0,1,7.69,23.567c-0.113,0-.222.006-0.336,0.006,0,0-5.989-.232-5.989,7.43s5.989,7.43,5.989,7.43c0.114,0,.222.006,0.335,0.006A23.842,23.842,0,0,1,6.568,31Z"/>
      <path d="M43.947,31c0-12.91,4.079-23.455,9.215-24.145-6,.662-14.97,12.036-33.949,15.633A17.945,17.945,0,0,0,17.438,31a17.945,17.945,0,0,0,1.774,8.512c18.979,3.6,27.95,14.971,33.949,15.633C48.026,54.458,43.947,43.913,43.947,31Z"/>
    </g>
    <path d="M12,43V56.244A1.769,1.769,0,0,0,13.785,58h5.437A1.769,1.769,0,0,0,21,56.244V43H12Z" opacity="0.9"/>
  </g>
</svg>
