<svg xmlns="http://www.w3.org/2000/svg" viewBox="0 0 64 64">
  <polygon points="8 54 8 8 6 8 6 56 62 56 62 54 8 54" opacity="0.9"/>
  <path d="M14.1,22h3.8A2.1,2.1,0,0,1,20,24.1V50a0,0,0,0,1,0,0H12a0,0,0,0,1,0,0V24.1A2.1,2.1,0,0,1,14.1,22Z" opacity="0.5"/>
  <path d="M26.1,8h3.8A2.1,2.1,0,0,1,32,10.1V50a0,0,0,0,1,0,0H24a0,0,0,0,1,0,0V10.1A2.1,2.1,0,0,1,26.1,8Z" opacity="0.9"/>
  <path d="M38.1,34h3.8A2.1,2.1,0,0,1,44,36.1V50a0,0,0,0,1,0,0H36a0,0,0,0,1,0,0V36.1A2.1,2.1,0,0,1,38.1,34Z" opacity="0.5"/>
  <path d="M50.1,44h3.8A2.1,2.1,0,0,1,56,46.1V50a0,0,0,0,1,0,0H48a0,0,0,0,1,0,0V46.1A2.1,2.1,0,0,1,50.1,44Z" opacity="0.9"/>
</svg>
