<svg xmlns="http://www.w3.org/2000/svg" viewBox="0 0 64 64">
  <title>icon_register</title>
  <path d="M43.266,32.687q1.467-.418,2.817-0.837,1.173-.358,2.405-0.717t2.054-.658l-0.821,3.167a14.241,14.241,0,0,1-.646,1.972A18.962,18.962,0,0,1,47.7,38.6q-0.793,1.375-1.5,2.39A25.135,25.135,0,0,1,44.5,43.2L37.28,45.415l5.927,1.076q-1.174,1.016-2.524,2.091-1.173.9-2.67,1.882a32.769,32.769,0,0,1-3.14,1.823,8.224,8.224,0,0,1-3.667.866,21.6,21.6,0,0,1-3.844-.268,23.219,23.219,0,0,1-4.225-1.016q0.646-1.016,1.408-2.271,0.646-1.077,1.555-2.54T28.009,43.8q2.816-4.84,5.458-9.5t4.753-8.426q2.406-4.361,4.636-8.246-2.759,3.227-5.809,7.231-2.641,3.4-5.869,8.1T24.605,43.2q-0.7,1.134-1.584,2.629T21.172,49q-0.967,1.673-2,3.437t-2.024,3.436Q14.8,59.757,12.34,64a21.538,21.538,0,0,1,.47-3.227,41.177,41.177,0,0,1,1.174-4.183,62.047,62.047,0,0,1,2.347-5.917q1-2.151,1.526-3.346t0.822-1.852a5.1,5.1,0,0,1,.47-0.956,1.933,1.933,0,0,1-.117-1.435,17.889,17.889,0,0,1,.675-2.778q0.557-1.823,1.907-5.109a59.833,59.833,0,0,1,3.55-7.2,83.037,83.037,0,0,1,4.959-7.649A87.288,87.288,0,0,1,36.107,13a60.774,60.774,0,0,1,6.6-6.3A40.23,40.23,0,0,1,49.456,2.18C51.706,1.005,52.888.16,55,0c0.039,1.395.9,3.415,0.589,5.707s-0.7,4.74-1.174,7.35-1,5.258-1.584,7.947-1.154,5.13-1.7,7.321l-7.864,4.362h0Z"/>
</svg>
