<svg xmlns="http://www.w3.org/2000/svg" viewBox="0 0 64 64">
  <g>
    <path d="M32,4.5A27.5,27.5,0,1,0,59.5,32,27.532,27.532,0,0,0,32,4.5Z" opacity="0.25"/>
    <g opacity="0.9">
      <path d="M32,61.5A29.5,29.5,0,1,1,61.5,32,29.533,29.533,0,0,1,32,61.5Zm0-57A27.5,27.5,0,1,0,59.5,32,27.532,27.532,0,0,0,32,4.5Z"/>
    </g>
    <path d="M59.5,32c0-.168-0.01-0.333-0.013-0.5H32.5V4.513C32.333,4.51,32.168,4.5,32,4.5s-0.333.01-.5,0.013V31.5H4.513c0,0.167-.013.332-0.013,0.5s0.01,0.333.013,0.5H31.5V59.487c0.167,0,.332.013,0.5,0.013s0.333-.01.5-0.013V32.5H59.487C59.49,32.333,59.5,32.168,59.5,32Z" opacity="0.5"/>
    <circle cx="14.459" cy="45.526" r="2" opacity="0.9"/>
    <circle cx="19.45" cy="36.761" r="2" opacity="0.9"/>
    <circle cx="22.381" cy="51.404" r="1" opacity="0.9"/>
    <circle cx="34.334" cy="47.526" r="1" opacity="0.9"/>
    <circle cx="37.585" cy="44.258" r="1" opacity="0.9"/>
    <circle cx="51.914" cy="43.193" r="1" opacity="0.9"/>
    <path d="M32,12.5a19.406,19.406,0,0,0-13.271,5.254l-3.422-3.108-0.66.66,3.107,3.422a19.822,19.822,0,0,0-1.9,2.41A2.967,2.967,0,0,0,15,21a3,3,0,0,0-1.7,5.472A19.306,19.306,0,0,0,12.5,32,19.5,19.5,0,1,0,32,12.5Zm0,38A18.521,18.521,0,0,1,13.5,32a18.3,18.3,0,0,1,.729-5.113,2.988,2.988,0,0,0,2.534-5.3,18.814,18.814,0,0,1,1.665-2.112L24.172,25.8A10.029,10.029,0,1,0,25.8,24.172l-6.325-5.744A18.488,18.488,0,1,1,32,50.5Zm1.114-19.681-6.566-5.963a9.033,9.033,0,1,1-1.693,1.693l5.963,6.566A1.625,1.625,0,1,0,33.114,30.819Z" opacity="0.9"/>
  </g>
</svg>
