<svg xmlns="http://www.w3.org/2000/svg" viewBox="0 0 64 64">
  <g>
    <path d="M40.1,20H54L38,4V17.9A2.1,2.1,0,0,0,40.1,20Z" opacity="0.5"/>
    <path d="M40.1,20A2.1,2.1,0,0,1,38,17.9V4H12.1A2.1,2.1,0,0,0,10,6.1V57.9A2.1,2.1,0,0,0,12.1,60H51.9A2.1,2.1,0,0,0,54,57.9V20H40.1ZM32,24.155l12.008,7L32,38.164l-12.008-7Zm-1,29.75-12-7V32.9l12,7V53.905Zm1,0.583h0Zm13-7.583-12,7V39.9l12-7v14.01Z" opacity="0.9"/>
    <g opacity="0.25">
      <polygon points="19 46.905 31 53.905 31 39.897 19 32.896 19 46.905"/>
      <polygon points="44.008 31.16 32 24.155 19.992 31.16 32 38.164 44.008 31.16"/>
      <polygon points="33 53.905 45 46.905 45 32.896 33 39.897 33 53.905"/>
    </g>
  </g>
</svg>
