<svg xmlns="http://www.w3.org/2000/svg" viewBox="0 0 64 64">
  <title>puzzle-big</title>
  <g>
    <path d="M30.87,50.528a6.774,6.774,0,1,1,0-11.415V33.13H22.123a1.156,1.156,0,0,1-1.026-.591,1.132,1.132,0,0,1,.413-1.509,4.52,4.52,0,0,0-1.332-8.289,4.554,4.554,0,0,0-4.927,6.749A3.892,3.892,0,0,0,16.806,31a1.18,1.18,0,0,1,.593,1.14,1.131,1.131,0,0,1-1.122.992H6V55.9A2.1,2.1,0,0,0,8.1,58H30.87V50.528Z" opacity="0.5"/>
    <path d="M51.444,38.28a6.784,6.784,0,0,1-12.772,1.37,6.682,6.682,0,0,1-.585-3.639,6.844,6.844,0,0,1,1.026-2.88H33.13v8.656a1.171,1.171,0,0,1-.6,1.046,1.13,1.13,0,0,1-1.485-.4A4.49,4.49,0,0,0,28.2,40.415a4.522,4.522,0,1,0,2.843,6.809,1.131,1.131,0,0,1,1.383-.449,1.168,1.168,0,0,1,.706,1.093V58H55.9A2.1,2.1,0,0,0,58,55.9V33.13H50.534A6.787,6.787,0,0,1,51.444,38.28Z" opacity="0.9"/>
    <path d="M40.667,16.767a4.492,4.492,0,0,0-2.829-1.993,4.513,4.513,0,0,0-4.868,2.085,1.132,1.132,0,0,1-1.5.418,1.164,1.164,0,0,1-.6-1.039V6H8.1A2.1,2.1,0,0,0,6,8.1V30.87h7.509a6.779,6.779,0,1,1,11.356,0h6V22.137a1.169,1.169,0,0,1,.711-1.1,1.13,1.13,0,0,1,1.388.469A4.482,4.482,0,0,0,35.855,23.6a4.552,4.552,0,0,0,1,.111h0a4.414,4.414,0,0,0,3.707-1.9A4.579,4.579,0,0,0,40.667,16.767Z" opacity="0.9"/>
    <path d="M47.855,30.87H58V8.1A2.1,2.1,0,0,0,55.9,6H33.13v7.516a6.8,6.8,0,0,1,9.414,9.394,6.654,6.654,0,0,1-5.693,3.06h0a6.846,6.846,0,0,1-3.721-1.1v6H41.8a1.156,1.156,0,0,1,1.021.582,1.132,1.132,0,0,1-.39,1.507,4.506,4.506,0,0,0-2.109,3.426,4.436,4.436,0,0,0,.389,2.285,4.535,4.535,0,0,0,4.121,2.646,4.555,4.555,0,0,0,4.174-6.31,4.817,4.817,0,0,0-1.842-2.087,1.132,1.132,0,0,1-.33-1.467A1.156,1.156,0,0,1,47.855,30.87Z" opacity="0.5"/>
  </g>
</svg>
