<svg xmlns="http://www.w3.org/2000/svg" viewBox="0 0 64 64">
  <title>app-center-big</title>
  <g>
    <g>
      <polygon points="32 32 32 43.667 22 37.833 22 26.167 32 32" opacity="0.25"/>
      <polygon points="32 32 42 26.167 42 37.833 32 43.667 32 32" opacity="0.5"/>
      <polygon points="22 26.167 32 20.333 42 26.167 32 32 22 26.167" opacity="0.9"/>
    </g>
    <g>
      <path d="M14.051,31A17.971,17.971,0,0,1,31,14.051V6.025A25.993,25.993,0,0,0,6.025,31Z" opacity="0.9"/>
      <path d="M33,14.051A17.971,17.971,0,0,1,49.949,31h8.025A25.993,25.993,0,0,0,33,6.025Z" opacity="0.5"/>
      <path d="M49.95,33A17.971,17.971,0,0,1,33,49.949v8.025A25.993,25.993,0,0,0,57.975,33Z" opacity="0.25"/>
      <path d="M31,49.949A17.971,17.971,0,0,1,14.05,33H6.025A25.993,25.993,0,0,0,31,57.975Z" opacity="0.5"/>
    </g>
  </g>
</svg>
