<svg xmlns="http://www.w3.org/2000/svg" viewBox="0 0 64 64">
  <g>
    <g>
      <rect x="10" y="12" width="4" height="4" opacity="0.25"/>
      <rect x="50.95" y="10.95" width="2.1" height="2.1" rx="1.05" ry="1.05" opacity="0.5"/>
      <rect x="46.95" y="10.95" width="2.1" height="2.1" rx="1.05" ry="1.05" opacity="0.5"/>
      <rect x="42.95" y="10.95" width="2.1" height="2.1" rx="1.05" ry="1.05" opacity="0.5"/>
      <rect x="42.95" y="14.95" width="2.1" height="2.1" rx="1.05" ry="1.05" opacity="0.5"/>
      <rect x="46.95" y="14.95" width="2.1" height="2.1" rx="1.05" ry="1.05" opacity="0.5"/>
      <rect x="50.95" y="14.95" width="2.1" height="2.1" rx="1.05" ry="1.05" opacity="0.5"/>
      <rect x="38.95" y="10.95" width="2.1" height="2.1" rx="1.05" ry="1.05" opacity="0.5"/>
      <rect x="38.95" y="14.95" width="2.1" height="2.1" rx="1.05" ry="1.05" opacity="0.5"/>
      <rect x="34.95" y="10.95" width="2.1" height="2.1" rx="1.05" ry="1.05" opacity="0.5"/>
      <rect x="34.95" y="14.95" width="2.1" height="2.1" rx="1.05" ry="1.05" opacity="0.5"/>
      <rect x="30.95" y="10.95" width="2.1" height="2.1" rx="1.05" ry="1.05" opacity="0.5"/>
      <rect x="30.95" y="14.95" width="2.1" height="2.1" rx="1.05" ry="1.05" opacity="0.5"/>
    </g>
    <path d="M57.9,6H6.1A2.1,2.1,0,0,0,4,8.1V19.9A2.1,2.1,0,0,0,6.1,22H57.9A2.1,2.1,0,0,0,60,19.9V8.1A2.1,2.1,0,0,0,57.9,6ZM14,16H10V12h4v4Zm18,1.05A1.05,1.05,0,1,1,33.05,16,1.05,1.05,0,0,1,32,17.05Zm0-4A1.05,1.05,0,1,1,33.05,12,1.05,1.05,0,0,1,32,13.05Zm4,4A1.05,1.05,0,1,1,37.05,16,1.05,1.05,0,0,1,36,17.05Zm0-4A1.05,1.05,0,1,1,37.05,12,1.05,1.05,0,0,1,36,13.05Zm4,4A1.05,1.05,0,1,1,41.05,16,1.05,1.05,0,0,1,40,17.05Zm0-4A1.05,1.05,0,1,1,41.05,12,1.05,1.05,0,0,1,40,13.05Zm4,4A1.05,1.05,0,1,1,45.05,16,1.05,1.05,0,0,1,44,17.05Zm0-4A1.05,1.05,0,1,1,45.05,12,1.05,1.05,0,0,1,44,13.05Zm4,4A1.05,1.05,0,1,1,49.05,16,1.05,1.05,0,0,1,48,17.05Zm0-4A1.05,1.05,0,1,1,49.05,12,1.05,1.05,0,0,1,48,13.05Zm4,4A1.05,1.05,0,1,1,53.05,16,1.05,1.05,0,0,1,52,17.05Zm0-4A1.05,1.05,0,1,1,53.05,12,1.05,1.05,0,0,1,52,13.05Z" opacity="0.9"/>
    <g>
      <rect x="10" y="30" width="4" height="4" opacity="0.25"/>
      <rect x="50.95" y="28.95" width="2.1" height="2.1" rx="1.05" ry="1.05" opacity="0.5"/>
      <rect x="46.95" y="28.95" width="2.1" height="2.1" rx="1.05" ry="1.05" opacity="0.5"/>
      <rect x="42.95" y="28.95" width="2.1" height="2.1" rx="1.05" ry="1.05" opacity="0.5"/>
      <rect x="42.95" y="32.95" width="2.1" height="2.1" rx="1.05" ry="1.05" opacity="0.5"/>
      <rect x="46.95" y="32.95" width="2.1" height="2.1" rx="1.05" ry="1.05" opacity="0.5"/>
      <rect x="50.95" y="32.95" width="2.1" height="2.1" rx="1.05" ry="1.05" opacity="0.5"/>
      <rect x="38.95" y="28.95" width="2.1" height="2.1" rx="1.05" ry="1.05" opacity="0.5"/>
      <rect x="38.95" y="32.95" width="2.1" height="2.1" rx="1.05" ry="1.05" opacity="0.5"/>
      <rect x="34.95" y="28.95" width="2.1" height="2.1" rx="1.05" ry="1.05" opacity="0.5"/>
      <rect x="34.95" y="32.95" width="2.1" height="2.1" rx="1.05" ry="1.05" opacity="0.5"/>
      <rect x="30.95" y="28.95" width="2.1" height="2.1" rx="1.05" ry="1.05" opacity="0.5"/>
      <rect x="30.95" y="32.95" width="2.1" height="2.1" rx="1.05" ry="1.05" opacity="0.5"/>
    </g>
    <path d="M57.9,24H6.1A2.1,2.1,0,0,0,4,26.1V37.9A2.1,2.1,0,0,0,6.1,40H57.9A2.1,2.1,0,0,0,60,37.9V26.1A2.1,2.1,0,0,0,57.9,24ZM14,34H10V30h4v4Zm18,1.05A1.05,1.05,0,1,1,33.05,34,1.05,1.05,0,0,1,32,35.05Zm0-4A1.05,1.05,0,1,1,33.05,30,1.05,1.05,0,0,1,32,31.05Zm4,4A1.05,1.05,0,1,1,37.05,34,1.05,1.05,0,0,1,36,35.05Zm0-4A1.05,1.05,0,1,1,37.05,30,1.05,1.05,0,0,1,36,31.05Zm4,4A1.05,1.05,0,1,1,41.05,34,1.05,1.05,0,0,1,40,35.05Zm0-4A1.05,1.05,0,1,1,41.05,30,1.05,1.05,0,0,1,40,31.05Zm4,4A1.05,1.05,0,1,1,45.05,34,1.05,1.05,0,0,1,44,35.05Zm0-4A1.05,1.05,0,1,1,45.05,30,1.05,1.05,0,0,1,44,31.05Zm4,4A1.05,1.05,0,1,1,49.05,34,1.05,1.05,0,0,1,48,35.05Zm0-4A1.05,1.05,0,1,1,49.05,30,1.05,1.05,0,0,1,48,31.05Zm4,4A1.05,1.05,0,1,1,53.05,34,1.05,1.05,0,0,1,52,35.05Zm0-4A1.05,1.05,0,1,1,53.05,30,1.05,1.05,0,0,1,52,31.05Z" opacity="0.9"/>
    <g>
      <rect x="50.95" y="46.95" width="2.1" height="2.1" rx="1.05" ry="1.05" opacity="0.5"/>
      <rect x="46.95" y="46.95" width="2.1" height="2.1" rx="1.05" ry="1.05" opacity="0.5"/>
      <rect x="42.95" y="46.95" width="2.1" height="2.1" rx="1.05" ry="1.05" opacity="0.5"/>
      <rect x="42.95" y="50.95" width="2.1" height="2.1" rx="1.05" ry="1.05" opacity="0.5"/>
      <rect x="46.95" y="50.95" width="2.1" height="2.1" rx="1.05" ry="1.05" opacity="0.5"/>
      <rect x="50.95" y="50.95" width="2.1" height="2.1" rx="1.05" ry="1.05" opacity="0.5"/>
      <rect x="10" y="48" width="4" height="4" opacity="0.25"/>
      <rect x="38.95" y="46.95" width="2.1" height="2.1" rx="1.05" ry="1.05" opacity="0.5"/>
      <rect x="38.95" y="50.95" width="2.1" height="2.1" rx="1.05" ry="1.05" opacity="0.5"/>
      <rect x="34.95" y="46.95" width="2.1" height="2.1" rx="1.05" ry="1.05" opacity="0.5"/>
      <rect x="34.95" y="50.95" width="2.1" height="2.1" rx="1.05" ry="1.05" opacity="0.5"/>
      <rect x="30.95" y="46.95" width="2.1" height="2.1" rx="1.05" ry="1.05" opacity="0.5"/>
      <rect x="30.95" y="50.95" width="2.1" height="2.1" rx="1.05" ry="1.05" opacity="0.5"/>
    </g>
    <path d="M57.9,42H6.1A2.1,2.1,0,0,0,4,44.1V55.9A2.1,2.1,0,0,0,6.1,58H57.9A2.1,2.1,0,0,0,60,55.9V44.1A2.1,2.1,0,0,0,57.9,42ZM14,52H10V48h4v4Zm18,1.05A1.05,1.05,0,1,1,33.05,52,1.05,1.05,0,0,1,32,53.05Zm0-4A1.05,1.05,0,1,1,33.05,48,1.05,1.05,0,0,1,32,49.05Zm4,4A1.05,1.05,0,1,1,37.05,52,1.05,1.05,0,0,1,36,53.05Zm0-4A1.05,1.05,0,1,1,37.05,48,1.05,1.05,0,0,1,36,49.05Zm4,4A1.05,1.05,0,1,1,41.05,52,1.05,1.05,0,0,1,40,53.05Zm0-4A1.05,1.05,0,1,1,41.05,48,1.05,1.05,0,0,1,40,49.05Zm4,4A1.05,1.05,0,1,1,45.05,52,1.05,1.05,0,0,1,44,53.05Zm0-4A1.05,1.05,0,1,1,45.05,48,1.05,1.05,0,0,1,44,49.05Zm4,4A1.05,1.05,0,1,1,49.05,52,1.05,1.05,0,0,1,48,53.05Zm0-4A1.05,1.05,0,1,1,49.05,48,1.05,1.05,0,0,1,48,49.05Zm4,4A1.05,1.05,0,1,1,53.05,52,1.05,1.05,0,0,1,52,53.05Zm0-4A1.05,1.05,0,1,1,53.05,48,1.05,1.05,0,0,1,52,49.05Z" opacity="0.9"/>
  </g>
</svg>
