<svg xmlns="http://www.w3.org/2000/svg" viewBox="0 0 64 64">
  <title>users</title>
  <g>
    <path d="M59.316,50.948a42.668,42.668,0,0,1-4.191-1.7,6.077,6.077,0,0,1-2.376-2.163,6.93,6.93,0,0,1-1.076-2.992h3.721l0.157-.336a11.58,11.58,0,0,0,.37-1.3q0.235-.964.482-2.376c0.164-.941.4-2.256,0.578-3.945s0.362-3.556.467-5.6a18.786,18.786,0,0,0-.372-4.617,12.3,12.3,0,0,0-1.143-3.463A9.639,9.639,0,0,0,54.1,20.03a9.787,9.787,0,0,0-2.14-1.6,11.974,11.974,0,0,0-2.286-.919,13.557,13.557,0,0,0-2.578-.493H47.033q-0.09,0-.314-0.011t-0.314-.011a6.223,6.223,0,0,0-2.846.359,3.828,3.828,0,0,0-1.905,2.2,1.576,1.576,0,0,0-.112.359,0.091,0.091,0,0,1-.067.022,1.973,1.973,0,0,0-1.558-.011A4.3,4.3,0,0,0,38,21.094a5.643,5.643,0,0,0-1.513,2.6,16.037,16.037,0,0,0-.684,3.732,41.684,41.684,0,0,0-.034,4.471q0.1,2.488.325,4.415t0.538,3.967q0.314,2.04.448,2.723t0.224,1.087h3.721a6.91,6.91,0,0,1-1.087,2.981,6.13,6.13,0,0,1-2.387,2.174c-0.311.156-.705,0.331-1.137,0.516,1.481,0.555,2.857,1.093,4.11,1.61a11.589,11.589,0,0,1,3.653,2.072,6.46,6.46,0,0,1,1.5,2.607,10.873,10.873,0,0,1,.589,2.795l0.052,1.136H63V52.34C61.867,51.892,60.643,51.429,59.316,50.948Z"  opacity="0.5"/>
    <path d="M7.775,46.887a48.551,48.551,0,0,1-5.107,2.079Q1.812,49.275,1,49.575V59.969L46.324,60l-0.053-1.156a10.871,10.871,0,0,0-.589-2.795,6.461,6.461,0,0,0-1.5-2.608,11.59,11.59,0,0,0-3.653-2.072q-2.74-1.13-6.206-2.382a48.539,48.539,0,0,1-5.1-2.086,7.45,7.45,0,0,1-3.169-3.079,8.54,8.54,0,0,1-1.126-4.206A5.758,5.758,0,0,1,26.7,36.125a10.846,10.846,0,0,0,1.776-3.331q2.473-.992,2.475-4.163a5.619,5.619,0,0,0-.777-3.359q0.216-1.478.487-4.541a9.4,9.4,0,0,0-.789-4.555A12.626,12.626,0,0,0,27.2,12.211,13.721,13.721,0,0,0,23.21,9.454a10.884,10.884,0,0,0-9.376-.006A13.721,13.721,0,0,0,9.841,12.2,12.626,12.626,0,0,0,7.165,16.16a9.4,9.4,0,0,0-.8,4.554q0.267,3.063.481,4.541a5.619,5.619,0,0,0-.782,3.358q0,3.171,2.469,4.167a10.847,10.847,0,0,0,1.771,3.333,5.758,5.758,0,0,1,1.771,3.494,8.541,8.541,0,0,1-1.131,4.2A7.451,7.451,0,0,1,7.775,46.887Z" opacity="0.9"/>
  </g>
</svg>
