<svg xmlns="http://www.w3.org/2000/svg" viewBox="0 0 64 64">
  <g>
    <path d="M49.9,6H6.1A2.1,2.1,0,0,0,4,8.1V39.9A2.1,2.1,0,0,0,6.1,42H12V24.1A2.1,2.1,0,0,1,14.1,22H52V8.1A2.1,2.1,0,0,0,49.9,6ZM10,14a2,2,0,1,1,2-2A2,2,0,0,1,10,14Zm7,0a2,2,0,1,1,2-2A2,2,0,0,1,17,14Zm7,0a2,2,0,1,1,2-2A2,2,0,0,1,24,14Z" opacity="0.5"/>
    <circle cx="10" cy="12" r="2" opacity="0.9"/>
    <circle cx="17" cy="12" r="2" opacity="0.9"/>
    <circle cx="24" cy="12" r="2" opacity="0.9"/>
  </g>
  <g>
    <path d="M57.9,22H14.1A2.1,2.1,0,0,0,12,24.1V55.9A2.1,2.1,0,0,0,14.1,58H57.9A2.1,2.1,0,0,0,60,55.9V24.1A2.1,2.1,0,0,0,57.9,22ZM18,30a2,2,0,1,1,2-2A2,2,0,0,1,18,30Zm7,0a2,2,0,1,1,2-2A2,2,0,0,1,25,30Zm7,0a2,2,0,1,1,2-2A2,2,0,0,1,32,30Z" opacity="0.9"/>
    <circle cx="18" cy="28" r="2" opacity="0.25"/>
    <circle cx="25" cy="28" r="2" opacity="0.25"/>
    <circle cx="32" cy="28" r="2" opacity="0.25"/>
  </g>
</svg>
