<svg xmlns="http://www.w3.org/2000/svg" viewBox="0 0 64 64">
  <title>chat</title>
  <g>
    <circle cx="36.079" cy="32.971" r="3.275" opacity="0.25"/>
    <circle cx="24.847" cy="32.971" r="3.275" opacity="0.25"/>
    <circle cx="13.615" cy="32.971" r="3.275" opacity="0.25"/>
    <path d="M63.43,32.107c0-10.073-9.522-18.238-21.267-18.238a24.565,24.565,0,0,0-5.341.6c6.928,3.6,11.558,10.134,11.558,17.591,0,7.5-4.685,14.061-11.682,17.652a24.554,24.554,0,0,0,5.465.63,24.138,24.138,0,0,0,9.229-1.8,27.487,27.487,0,0,0,9.41,2.222,21.838,21.838,0,0,1-3.111-6.2A16.875,16.875,0,0,0,63.43,32.107Z" opacity="0.5"/>
    <g opacity="0.9">
      <path d="M24.4,11.5C11.164,11.5.43,20.708,0.43,32.063A19.024,19.024,0,0,0,6.9,46.106,24.617,24.617,0,0,1,3.393,53.1,30.987,30.987,0,0,0,14,50.592a27.212,27.212,0,0,0,10.4,2.032c13.241,0,23.975-9.205,23.975-20.56S37.646,11.5,24.4,11.5ZM13.615,36.246a3.275,3.275,0,1,1,3.275-3.275A3.275,3.275,0,0,1,13.615,36.246Zm11.232,0a3.275,3.275,0,1,1,3.275-3.275A3.275,3.275,0,0,1,24.847,36.246Zm11.232,0a3.275,3.275,0,1,1,3.275-3.275A3.275,3.275,0,0,1,36.079,36.246Z"/>
    </g>
  </g>
</svg>
