<svg xmlns="http://www.w3.org/2000/svg" viewBox="0 0 330 88">
  <g>
    <path d="M104.6,39c-4.162,1.571-6.159,4.948-5.442,9.592l0,0L114.712,42.2A8.2,8.2,0,0,0,104.6,39Z"/>
    <path d="M184.559,38.554a9.1,9.1,0,0,0-9.08,9.064,8.964,8.964,0,0,0,8.935,8.993h0l.149,0a9.092,9.092,0,0,0,9.012-8.861A9.245,9.245,0,0,0,184.559,38.554Z"/>
    <path d="M25,0V88H305V0ZM88.264,65.4H57.529V21.729h9.735V56.935h21Zm34.166-3.933c-6.766,4.836-14.144,6.173-21.983,3.319-7.974-2.9-12.306-11.08-10.869-19.806,1.333-8.094,8.376-14.214,16.966-14.743a18.083,18.083,0,0,1,18,12.75c.557,1.876.112,2.6-1.621,3.315-6.171,2.544-12.275,5.254-18.4,7.91-.792.34-1.557.73-2.63,1.238,4.7,3.242,9.937,2.84,16.877-1.135l6.208,5.372C124,60.37,123.207,60.91,122.43,61.467Zm40.384,3.219h-9.451v-10.1c0-2.64.016-5.281,0-7.921-.036-4.749-2.671-8-6.528-8.082-4.97-.11-8.8,3.28-8.907,8.094-.112,5.014-.032,10.032-.036,15.048V64.7h-9.428V31.767h8.51l.382,2.685a30.029,30.029,0,0,1,10.19-3.608c7.781-1.016,14.521,3.773,15.153,11.783C163.264,49.867,162.814,57.188,162.814,64.686Zm21.917.93a18,18,0,0,1-18.237-17.759q0-.1,0-.194a18.02,18.02,0,1,1,18.239,17.953Zm31.143-.185L200.947,31.745h10.7l8.719,21.268,8.587-21.268h10.04L225.782,65.431ZM274.15,47.486a18.019,18.019,0,0,1-36.035.46v-.317a18.018,18.018,0,0,1,36.036-.143Z"/>
    <path d="M256.068,38.559a9.263,9.263,0,0,0-9.006,9.208,9.124,9.124,0,0,0,9.034,8.851,8.965,8.965,0,0,0,9.071-8.857v-.153h0A9.122,9.122,0,0,0,256.068,38.559Z"/>
  </g>
</svg>
