<svg xmlns="http://www.w3.org/2000/svg" viewBox="0 0 330 88">
  <path d="M89.832,60.531l0.416,0.86,3.371-2.569c5.438-4.143,5.146-3.9,5.045-4.109A49.453,49.453,0,0,1,97,49.386a32.754,32.754,0,0,1-.011-12.765A33.488,33.488,0,0,1,101.2,26.447a2.468,2.468,0,0,0,.584-1.173c-2.213-2.87-4.742-6.209-4.742-6.254s2.472-.067,5.494-0.067h5.483l0.764-.581a35.029,35.029,0,0,1,8.169-4.322,38.481,38.481,0,0,1,5.876-1.429,44.768,44.768,0,0,1,8.651,0,31.287,31.287,0,0,1,13.73,5.517l1.146,0.815,7.146-.022,7.146-.034-1.2-1.507a51.518,51.518,0,0,0-6.461-6.432,41.217,41.217,0,0,0-14.18-7.348A37.926,37.926,0,0,0,126.989,2c-1.416.011-2.787,0.034-3.034,0.056a41.545,41.545,0,0,0-22.921,9.124,56.161,56.161,0,0,0-6,6A45.619,45.619,0,0,0,90.1,24.817a42.333,42.333,0,0,0-4.056,14.317A47.58,47.58,0,0,0,86.5,50.111,43.476,43.476,0,0,0,89.832,60.531Zm51.213-15.087c-0.011-.145,7.393-5.874,14.2-10.989,1.461-1.106,5.6-4.244,13.977-10.643,2.18-1.664,4.157-3.172,4.4-3.373l0.438-.358-13.854-.011H146.359l-7.82,5.941c-4.292,3.272-7.842,5.952-7.888,5.941-0.079,0-.686-0.782-5.742-7.393l-3.427-4.478-11.157-.011H99.169l1.258,1.642c0.7,0.916,1.528,1.977,1.843,2.378s3.348,4.344,6.741,8.767,6.483,8.454,6.876,8.945l0.708,0.9L112.8,45.6c-2.079,1.586-5.506,4.2-7.606,5.8s-4.978,3.786-6.4,4.858-3.8,2.87-5.281,4.009-4.663,3.574-7.079,5.405-4.393,3.384-4.416,3.439,5.809,0.1,13.786.1H109.63l1.045-.815c2.6-2.055,15.977-12.173,16.1-12.184,0.079,0,2.146,2.6,4.6,5.8s4.708,6.12,5.011,6.511l0.551,0.692H148c6.09,0,11.068-.033,11.068-0.078,0-.089-1.719-2.345-8.034-10.531C145.4,51.306,141.056,45.578,141.045,45.443Zm15.842-10.765c0.011,0.045.157,0.659,0.326,1.373l0.3,1.3,0.955-.938a24.76,24.76,0,0,1,7.562-4.958c0.337-.134.64-0.268,0.663-0.279A25.81,25.81,0,0,0,165.6,28c-0.034,0-2.011,1.485-4.393,3.306S156.887,34.633,156.887,34.678Zm41.82,3.931c-1.449-4.5-5.753-7.326-12.562-8.253a51.327,51.327,0,0,0-9.214-.223,38.307,38.307,0,0,0-9.045,1.82,25.562,25.562,0,0,0-7.258,4.121,19.5,19.5,0,0,0-6.449,10.788,8.323,8.323,0,0,0,2.359,7.694c3.258,3.417,9.494,5.159,18.427,5.159a58.722,58.722,0,0,0,12.9-1.3c5.45-1.362,8.887-3.786,9.685-6.8a6.03,6.03,0,0,0,.169-0.916V50.447H180.247l-0.337.637a6.517,6.517,0,0,1-2.618,2.58,3.509,3.509,0,0,1-2.258.413,5.47,5.47,0,0,1-3.495-.871,4.129,4.129,0,0,1-1.359-2.4,12.486,12.486,0,0,1,.079-3.406c0.068-.178.978-0.19,14.146-0.19h14.078l0.225-.871a11.734,11.734,0,0,0,.517-3.931A10.014,10.014,0,0,0,198.707,38.609Zm-15.719,2.68-0.124.558H172.437V41.535a6.406,6.406,0,0,1,.663-2.244,5.5,5.5,0,0,1,3.495-2.8,9.973,9.973,0,0,1,4.269.067,3.622,3.622,0,0,1,2.067,2.055A6.126,6.126,0,0,1,182.988,41.289Zm64.021-1.9A9.823,9.823,0,0,0,245.56,33.9c-1.326-2.044-3.618-3.25-6.944-3.652a28.891,28.891,0,0,0-6.067.1,26.26,26.26,0,0,0-11.315,5.026c-0.3.212-.483,0.3-0.483,0.2,0-.078.157-0.971,0.337-1.966s0.337-1.91.337-2.01c0-.179-0.64-0.19-8.337-0.156l-8.348.022-0.764,3.551c-0.427,1.943-1.112,5.126-1.539,7.058s-1.157,5.3-1.629,7.482c-1.281,5.93-1.842,8.509-1.91,8.789l-0.056.257h8.764c4.82,0,8.764-.011,8.764-0.034,0-.167,2.921-15.511,2.989-15.746a16.646,16.646,0,0,1,2.8-2.814,6.58,6.58,0,0,1,4.719-1.418c1.989,0.268,2.753,1.195,2.753,3.306,0,1.34-.146,2.278-1.281,8.5-0.528,2.892-1.034,5.729-1.135,6.31s-0.2,1.15-.236,1.251c-0.056.19,0.4,0.2,8.483,0.2h8.55l0.056-.257c0.023-.134.4-2.11,0.843-4.378s1.022-5.26,1.292-6.645A30.318,30.318,0,0,0,247.009,39.391ZM156.281,55.74l-0.764-.693L154.977,56.2c-0.292.625-.832,1.63-1.191,2.233l-0.652,1.094,1.124,1.463c0.618,0.8,2.1,2.725,3.281,4.277s2.18,2.814,2.225,2.825a28.621,28.621,0,0,0,2.652-3.775,49.487,49.487,0,0,0,2.382-4.411,4.8,4.8,0,0,0-.809-0.246A19.021,19.021,0,0,1,156.281,55.74ZM141.348,70.213l-1.056.491a31.407,31.407,0,0,1-21.674,1.731,35.575,35.575,0,0,1-6.281-2.591,8.975,8.975,0,0,0-1.022-.525,3.881,3.881,0,0,0-.618.413l-0.539.424-6.921.056-6.921.056,1.236,1.273a41.406,41.406,0,0,0,55.943,3.038,53.577,53.577,0,0,0,4.449-4.277c0-.056-3.73-0.089-8.3-0.089h-8.292Z"/>
</svg>
