<svg xmlns="http://www.w3.org/2000/svg" viewBox="0 0 330 88">
  <path d="M193.878,21.471a3.305,3.305,0,0,0-3.252,2.629l-11.62,33.2L167.58,24.182a3.587,3.587,0,0,0-3.519-2.711H163.7a3.461,3.461,0,0,0-3.332,2.711L148.851,57.305,137.412,24.274a3.551,3.551,0,0,0-3.433-2.8,3.337,3.337,0,0,0-3.424,3.239,6.3,6.3,0,0,0,.439,1.844l13.8,38.333c0.708,2.007,2.109,3.061,3.775,3.061h0.185c1.754,0,3.078-1.054,3.693-3.061l11.437-32.575,11.338,32.575c0.62,2.007,1.941,3.061,3.7,3.061h0.263c1.586,0,2.987-1.054,3.7-3.061l13.893-38.421a6.49,6.49,0,0,0,.439-1.844A3.243,3.243,0,0,0,193.878,21.471Zm74.009,0c-4.916,0-12.334,3.566-15.679,11.12V24.815a3.378,3.378,0,0,0-3.439-3.43,3.415,3.415,0,0,0-3.342,3.43l0,39.649a3.391,3.391,0,1,0,6.781,0v-15.4c0-13.093,7.217-19.686,16.029-20.74a3.351,3.351,0,0,0,3-3.423A3.257,3.257,0,0,0,267.887,21.473Zm24.261-.119c-12.345,0-21.412,10.435-21.412,23.388v0.18c0,13.908,10.013,23.392,22.275,23.392a22.611,22.611,0,0,0,16.828-6.788,2.852,2.852,0,0,0,1.044-2.166,2.872,2.872,0,0,0-4.838-2.1,18.165,18.165,0,0,1-12.857,5.218c-7.952,0-14.767-5.476-15.708-15.207h32.273a3.12,3.12,0,0,0,3.111-3.14C312.864,32.214,305.347,21.354,292.148,21.354Zm-14.672,20.96c0.853-8.786,6.723-15.3,14.492-15.3,8.893,0,13.557,7.123,14.25,15.3H277.476ZM217.9,21.481c-5.794,0-9.166.643-13.639,2.579a2.793,2.793,0,0,0-1.849,2.809,3.006,3.006,0,0,0,2.994,2.891,3.408,3.408,0,0,0,1.219-.266,23.083,23.083,0,0,1,10.573-2.066c8.511,0,13.532,4.211,13.532,12.35v1.584a48.167,48.167,0,0,0-13.975-1.934c-11.5,0-19.41,5.086-19.41,14.631v0.176c0,9.285,8.529,14.1,16.967,14.1a19.92,19.92,0,0,0,16.42-7.8v4.32a3.1,3.1,0,0,0,3.229,3.153,3.21,3.21,0,0,0,3.26-3.327V39.7c0-5.784-1.582-10.163-4.662-13.227C229.223,23.141,224.3,21.481,217.9,21.481Zm12.916,29.25c0,7.175-6.857,12.258-15.2,12.258-6.156,0-11.42-3.329-11.42-9.021V53.794c0-5.688,4.75-9.371,13.258-9.371a47.686,47.686,0,0,1,13.359,1.927v4.38ZM111.439,20.507a20.86,20.86,0,0,0-14.4,6.109c-2.947-3.811-7.01-6.1-13.887-6.1-7.256,0-13.607,6.1-13.607,6.1a16.287,16.287,0,0,0-12.128-6.1c-6.431,0-11.538,2.82-14.653,9.924l-9.2,21.635L21.752,24.316a6.411,6.411,0,0,0-8.6-3.2,6.259,6.259,0,0,0-3.149,8.577L24.42,60.932c2.267,4.9,4.656,7.462,9.139,7.462,4.79,0,6.878-2.795,9.143-7.462,0,0,12.571-27.3,12.7-27.582a1.818,1.818,0,0,1,1.811-1.163A2,2,0,0,1,59.2,34.21V60.9c0,4.114,2.288,7.49,6.691,7.49s6.777-3.375,6.777-7.49V39.06c0-4.213,3.027-6.947,7.153-6.947A6.555,6.555,0,0,1,86.7,39.06V60.9c0,4.114,2.3,7.49,6.691,7.49s6.79-3.375,6.79-7.49V39.06c0-4.213,3.015-6.947,7.143-6.947A6.561,6.561,0,0,1,114.2,39.06V60.9c0,4.114,2.294,7.49,6.693,7.49s6.784-3.375,6.784-7.49V36.043C127.672,26.907,120.3,20.507,111.439,20.507Zm207.587,0.846a5.64,5.64,0,0,0-5.613,5.631v0.038a5.583,5.583,0,0,0,5.613,5.6,5.64,5.64,0,0,0,5.624-5.642V26.962A5.6,5.6,0,0,0,319.026,21.354Zm4.544,5.631a4.548,4.548,0,1,1-9.095.029V26.985a4.548,4.548,0,1,1,9.095-.015v0.015Zm-4.214-2.815h-1.874a0.6,0.6,0,0,0-.605.6h0v4.276a0.6,0.6,0,0,0,.605.595,0.587,0.587,0,0,0,.595-0.595V27.863h0.956l1.166,1.471a0.736,0.736,0,0,0,.588.308,0.557,0.557,0,0,0,.567-0.549,0.714,0.714,0,0,0-.193-0.459l-0.828-1.006a1.665,1.665,0,0,0,1.086-1.651V25.96a1.685,1.685,0,0,0-.477-1.236A2.129,2.129,0,0,0,319.356,24.169Zm0.838,1.869a0.776,0.776,0,0,1-.905.767v0h-1.216V25.242h1.2a0.781,0.781,0,0,1,.926.777v0.019Z"/>
</svg>
